<?xml version="1.0" encoding="UTF-8" standalone="no"?>
<!-- Created with Inkscape (http://www.inkscape.org/) -->

<svg
   version="1.1"
   id="svg1"
   width="533.33331"
   height="666.66669"
   viewBox="0 0 533.33331 666.66669"
   sodipodi:docname="A.svg"
   inkscape:version="1.4.3 (0d15f75042, 2025-12-25)"
   inkscape:export-filename="A.png"
   inkscape:export-xdpi="96"
   inkscape:export-ydpi="96"
   xmlns:inkscape="http://www.inkscape.org/namespaces/inkscape"
   xmlns:sodipodi="http://sodipodi.sourceforge.net/DTD/sodipodi-0.dtd"
   xmlns="http://www.w3.org/2000/svg"
   xmlns:svg="http://www.w3.org/2000/svg">
  <defs
     id="defs1" />
  <sodipodi:namedview
     id="namedview1"
     pagecolor="#505050"
     bordercolor="#ffffff"
     borderopacity="1"
     inkscape:showpageshadow="0"
     inkscape:pageopacity="0"
     inkscape:pagecheckerboard="1"
     inkscape:deskcolor="#505050"
     inkscape:zoom="0.57599998"
     inkscape:cx="265.62501"
     inkscape:cy="333.33334"
     inkscape:window-width="1128"
     inkscape:window-height="1030"
     inkscape:window-x="0"
     inkscape:window-y="0"
     inkscape:window-maximized="0"
     inkscape:current-layer="g1" />
  <g
     inkscape:groupmode="layer"
     inkscape:label="Image"
     id="g1">
    <path
       style="fill-opacity:1;fill:#014a5d"
       d="m 231.92854,636.4502 c -1.21375,-3.6777 -1.25557,-7.05144 -0.16942,-13.66667 0.79319,-4.83093 1.8089,-12.73332 2.25713,-17.56086 l 0.81497,-8.77736 -11.35269,-3.69298 C 208.49392,587.87791 196.0833,579.53952 177.40792,561.79864 155.31736,540.81347 142.87861,525.23614 134.04561,507.495 121.8517,483.00348 115.08935,452.43236 116.31379,427.33335 l 0.58542,-12 -17.466364,-18.09324 -17.466362,-18.09324 -4.902847,-14.57343 c -6.299675,-18.72542 -8.958666,-33.9998 -9.968221,-57.26172 -1.27004,-29.26398 2.685179,-44.64148 13.858679,-53.88116 8.677144,-7.17538 17.43905,-8.23286 28.712565,-3.46534 2.04025,0.86281 2.33334,0.16055 2.33334,-5.59099 0,-3.61776 0.63385,-13.13196 1.40857,-21.14265 4.95877,-51.2745 17.31827,-88.13855 36.39881,-108.56491 29.96378,-32.077227 64.4599,-37.925061 100.15948,-16.979184 14.72882,8.641784 25.06266,17.188664 47.85309,39.578214 24.69342,24.25906 35.20829,36.58559 48.03878,56.31563 7.73682,11.89727 23.40688,41.71708 28.3726,53.9925 2.53986,6.27861 3.32312,7.04961 8.60723,8.47247 10.25087,2.76027 15.61652,6.42488 30.59387,20.89487 22.29094,21.53583 26.98266,29.23065 26.84962,44.03564 -0.0656,7.29807 -4.81556,19.59297 -8.86923,22.95722 -1.53529,1.27418 0.13353,4.49251 9.57798,18.47117 12.81902,18.97335 17.53176,28.43755 22.18355,44.54937 5.10041,17.66566 6.64939,33.14927 5.74484,57.42541 -1.22607,32.90517 -6.30502,53.43636 -19.69621,79.62004 -17.77434,34.75403 -45.16689,54.66666 -75.20145,54.66666 -16.03071,0 -35.20469,-6.14189 -52.15488,-16.70648 l -9.72216,-6.05956 -6.40559,4.55173 c -15.14387,10.76105 -29.48321,15.53944 -49.58915,16.52492 l -15.18356,0.74422 0.92771,19.08215 c 1.01418,20.86084 0.2408,24.52969 -5.17075,24.52969 -2.48237,0 -3.53777,-1.07489 -4.79461,-4.88315 z"
       id="path3" />
    <path
       style="fill-opacity:1;fill:#15cffd"
       d="m 362.05319,556.59735 c 29.60604,-7.70937 54.48696,-42.49743 63.29354,-88.4959 8.59675,-44.90246 2.26844,-84.13497 -18.73993,-116.17872 -3.63375,-5.54251 -6.60682,-10.67481 -6.60682,-11.40512 0,-2.30898 -8.46779,-9.63284 -13.62384,-11.78336 -2.72644,-1.13716 -7.93359,-2.06757 -11.57142,-2.06757 -7.39196,0 -10.80473,-2.3163 -10.80473,-7.33334 0,-5.50723 3.05378,-7.16626 11.74102,-6.37852 15.952,1.44647 25.48913,-7.0377 23.81365,-21.18449 -0.92689,-7.82611 -3.06638,-11.10618 -10.53704,-16.15446 -5.16327,-3.48906 -6.53981,-3.7988 -15.01763,-3.37909 -6.36122,0.31492 -11.15091,1.41226 -15.04106,3.44598 -3.13925,1.64115 -5.9414,2.98392 -6.227,2.98392 -0.2856,0 -2.96263,-7.41237 -5.94894,-16.47194 -11.4909,-34.85984 -27.85734,-68.57667 -45.44967,-93.63178 -5.5,-7.83313 -10.74001,-15.57511 -11.64446,-17.20438 -2.28269,-4.11202 -20.8676,-21.67927 -30.4303,-28.76402 -37.53587,-27.809327 -65.26357,-27.628736 -93.32108,0.6078 -12.1515,12.22905 -17.86052,22.08221 -24.4111,42.13098 -8.4462,25.85055 -12.01004,49.87351 -13.10439,88.33333 -0.45384,15.95 -1.33602,29.00001 -1.96039,29.00001 -0.62436,0 -3.38365,-2.50077 -6.13174,-5.55727 -11.73008,-13.04649 -22.849756,-16.40321 -29.776058,-8.98858 -5.922031,6.33955 -7.232354,12.81877 -7.121191,35.21251 0.186463,37.563 6.958599,63.1381 20.389149,77 4.08545,4.21667 7.85084,7.66667 8.36753,7.66667 3.23751,0 9.00515,-7.39932 11.13541,-14.28566 5.04926,-16.32233 10.30569,-22.69452 17.27734,-20.94475 1.95309,0.49019 4.40954,2.20145 5.45878,3.80278 1.71245,2.61354 1.37266,4.84736 -3.32003,21.8261 -9.7357,35.22496 -11.85662,51.19704 -9.45769,71.22332 3.89679,32.53037 16.1284,61.44913 34.15039,80.74059 8.14331,8.71691 25.21863,19.55966 36.11823,22.9349 40.26734,12.46945 80.85983,-7.75006 96.38602,-48.01082 7.80067,-20.22783 9.65092,-40.24509 5.99546,-64.86332 -3.77574,-25.42828 -10.86335,-45.11425 -22.41802,-62.26636 -3.40002,-5.04711 -6.18186,-9.59571 -6.18186,-10.108 0,-1.06295 -17.38189,-17.468 -24.56035,-23.1801 -11.00922,-8.76034 -1.48601,-18.98041 10.67994,-11.46144 2.43889,1.50732 7.24047,5.85732 10.67019,9.66667 3.42972,3.80935 5.40509,5.72609 4.38971,4.25942 -1.70416,-2.46157 -1.66422,-2.52386 0.5194,-0.81 1.30106,1.02117 2.05782,2.1644 1.68171,2.54052 -0.37612,0.37612 1.9046,3.74062 5.06827,7.47667 16.60248,19.60624 26.03447,38.62512 33.1406,66.82549 2.57316,10.21143 3.01767,15.48871 3.02957,35.96733 0.0123,21.14524 -0.35992,25.34808 -3.12913,35.33333 -3.37637,12.17454 -12.30752,32.43926 -17.96815,40.76963 l -3.48207,5.12432 5.97622,3.71969 c 3.28692,2.04583 6.50549,3.7197 7.15237,3.7197 0.64688,0 4.52382,1.53262 8.61543,3.40582 8.33961,3.818 21.48467,6.99509 29.60283,7.15484 2.96259,0.0583 8.96259,-0.8252 13.33333,-1.96333 z"
       id="path2" />
    <path
       style="fill-opacity:1;fill:#014a5d"
       d="m 239.03824,263.32852 c -3.91782,-2.76838 -5.2984,-8.53332 -7.02357,-29.32851 -2.24694,-27.08452 -6.63711,-41.89006 -14.03541,-47.33334 -2.49179,-1.83333 -5.26512,-5.06984 -6.16296,-7.19225 -1.46562,-3.46459 -1.32017,-4.11177 1.42334,-6.33333 4.60152,-3.72609 11.98076,-3.20934 17.27399,1.20964 4.34044,3.62356 5.37838,5.68848 11.55233,22.98261 7.19716,20.16031 11.99662,57.09664 8.31608,64 -2.13857,4.01119 -7.22474,4.90576 -11.3438,1.99518 z"
       id="path1" />
  </g>
</svg>
