<?xml version="1.0" encoding="UTF-8" standalone="no"?>
<!-- Created with Inkscape (http://www.inkscape.org/) -->

<svg
   version="1.1"
   id="svg1"
   width="533.33331"
   height="666.66669"
   viewBox="0 0 533.33331 666.66669"
   sodipodi:docname="B.svg"
   inkscape:version="1.4.3 (0d15f75042, 2025-12-25)"
   inkscape:export-filename="A.png"
   inkscape:export-xdpi="96"
   inkscape:export-ydpi="96"
   xml:space="preserve"
   xmlns:inkscape="http://www.inkscape.org/namespaces/inkscape"
   xmlns:sodipodi="http://sodipodi.sourceforge.net/DTD/sodipodi-0.dtd"
   xmlns="http://www.w3.org/2000/svg"
   xmlns:svg="http://www.w3.org/2000/svg"><defs
     id="defs1" /><sodipodi:namedview
     id="namedview1"
     pagecolor="#505050"
     bordercolor="#ffffff"
     borderopacity="1"
     inkscape:showpageshadow="0"
     inkscape:pageopacity="0"
     inkscape:pagecheckerboard="1"
     inkscape:deskcolor="#505050"
     inkscape:zoom="0.57599998"
     inkscape:cx="264.75695"
     inkscape:cy="332.46529"
     inkscape:window-width="1706"
     inkscape:window-height="1066"
     inkscape:window-x="0"
     inkscape:window-y="0"
     inkscape:window-maximized="0"
     inkscape:current-layer="g1" /><g
     inkscape:groupmode="layer"
     inkscape:label="Image"
     id="g1"><g
       id="g2"><path
         style="fill-opacity:1;fill:#014a5d"
         d="m 233.09309,629.65664 c -1.58762,-4.13728 -1.53725,-10.50095 0.18858,-23.82468 l 1.46315,-11.29582 -4.85486,1.84582 c -7.84876,2.98409 -19.0879,2.13292 -27.9022,-2.11313 -9.16279,-4.41391 -41.40361,-34.76156 -53.16278,-50.04106 -18.5641,-24.12161 -38.80192,-68.23738 -58.627433,-127.8 -12.981583,-39.00111 -28.319142,-93.83962 -32.974974,-117.9 -10.546852,-54.50396 -15.277365,-138.82134 -9.3558,-166.75916 5.073251,-23.9355 14.84641,-35.740839 29.588385,-35.740839 10.528089,0 20.007617,5.748929 35.252142,21.378909 l 10.73785,11.00935 7.26215,-7.01792 c 18.1594,-17.54868 42.41126,-29.931577 69.25693,-35.362296 18.16696,-3.675067 50.57972,-2.751693 67.60523,1.925936 14.42734,3.963801 37.40094,14.83519 51.5139,24.377 13.30574,8.99606 50.67307,44.82556 61.83373,59.28902 29.73626,38.53617 38.01814,83.36554 23.71949,128.39228 l -4.42821,13.94453 9.28054,6.91392 c 5.1043,3.80266 19.84766,17.74438 32.76302,30.9816 19.26487,19.74497 24.85184,26.72295 31.10674,38.85158 26.45213,51.29227 17.65622,114.34674 -22.98562,164.77502 -28.54696,35.42099 -68.85879,55.66779 -110.74228,55.62082 -27.39201,-0.0307 -46.55005,-5.47227 -73.66158,-20.92244 -13.71486,-7.81575 -14.20452,-7.94775 -18.33885,-4.94374 -4.4975,3.2679 -4.41007,2.70805 -4.97974,31.88643 -0.26303,13.47238 -0.54255,14.43712 -4.33919,14.97625 -2.52562,0.35864 -4.4962,-0.56556 -5.21832,-2.44738 z"
         id="path8" /><path
         style="fill-opacity:1;fill:#15cffd"
         d="m 342.97539,565.63481 c 45.59048,-13.51585 80.456,-48.36314 96.40464,-96.35423 19.93483,-59.98592 -2.63687,-117.13131 -57.51057,-145.60108 -3.465,-1.79772 -13.6609,-5.77811 -22.65755,-8.8453 l -16.35754,-5.57671 8.40386,-14.66121 c 11.98266,-20.90473 16.59913,-35.7856 17.59285,-56.70936 2.40708,-50.68305 -25.77711,-95.43604 -76.18247,-120.9683 -22.99952,-11.65015 -38.63611,-15.49674 -62.86297,-15.46424 -11.07464,0.0148 -24.79929,1.19681 -31.07268,2.67595 -25.71645,6.06345 -49.33888,21.31654 -67.74612,43.74393 -9.52457,11.60472 -11.18749,12.92524 -12.78313,10.15098 -8.33641,-14.49413 -23.862036,-35.82701 -28.834253,-39.61951 -9.360274,-7.13942 -15.140208,-5.59754 -20.699999,5.52204 -4.444284,8.88857 -4.499446,9.55716 -4.455284,54 0.0656,66.01284 4.725645,101.34289 21.635218,164.02681 36.840448,136.56784 79.706458,220.36761 109.389508,213.84812 8.16291,-1.79288 12.44363,-5.07079 19.24717,-14.73831 3.30421,-4.69514 6.23432,-8.83625 6.51136,-9.20246 0.27704,-0.36621 5.60369,3.16789 11.837,7.85355 35.00687,26.31514 76.14826,35.99689 110.14096,25.91933 z"
         id="path7" /><path
         style="fill-opacity:1;fill:#014a5d"
         d="m 267.6269,284.57777 c -4.32849,-6.15815 -6.01529,-14.46346 -8.13414,-40.05 -2.54831,-30.77254 -5.3221,-40.03918 -15.37209,-51.35493 -12.6508,-14.24413 -9.5632,-21.49715 4.9524,-11.63355 18.0822,12.28717 28.70392,41.58976 28.5368,78.72571 -0.0978,21.73109 -1.20456,28.36277 -4.73348,28.36277 -1.32154,0 -3.68381,-1.8225 -5.24949,-4.05 z"
         id="path6" /><path
         style="fill-opacity:1;fill:#014a5d"
         d="m 334.90393,505.32183 c -1.90964,-2.30586 -2.32371,-6.87344 -1.67956,-18.5272 0.47021,-8.50677 0.86545,-25.59186 0.87831,-37.96686 0.0227,-21.8613 -0.14205,-22.82088 -5.80491,-33.80383 -9.19206,-17.82774 -7.27515,-26.27286 4.00977,-17.66543 8.33872,6.36025 15.0827,21.0605 18.37049,40.04321 2.26669,13.08725 2.4132,19.57337 0.82191,36.38795 -2.64486,27.94722 -9.21958,40.43909 -16.59601,31.53216 z"
         id="path5" /></g></g></svg>
