<?xml version="1.0" encoding="UTF-8" standalone="no"?>
<!-- Created with Inkscape (http://www.inkscape.org/) -->

<svg
   version="1.1"
   id="svg1"
   width="533.33331"
   height="666.66669"
   viewBox="0 0 533.33331 666.66669"
   sodipodi:docname="C.svg"
   inkscape:version="1.4.3 (0d15f75042, 2025-12-25)"
   inkscape:export-filename="A.png"
   inkscape:export-xdpi="96"
   inkscape:export-ydpi="96"
   xml:space="preserve"
   xmlns:inkscape="http://www.inkscape.org/namespaces/inkscape"
   xmlns:sodipodi="http://sodipodi.sourceforge.net/DTD/sodipodi-0.dtd"
   xmlns="http://www.w3.org/2000/svg"
   xmlns:svg="http://www.w3.org/2000/svg"><defs
     id="defs1" /><sodipodi:namedview
     id="namedview1"
     pagecolor="#505050"
     bordercolor="#ffffff"
     borderopacity="1"
     inkscape:showpageshadow="0"
     inkscape:pageopacity="0"
     inkscape:pagecheckerboard="1"
     inkscape:deskcolor="#505050"
     inkscape:zoom="0.57599998"
     inkscape:cx="264.75695"
     inkscape:cy="332.46529"
     inkscape:window-width="1706"
     inkscape:window-height="1030"
     inkscape:window-x="0"
     inkscape:window-y="0"
     inkscape:window-maximized="0"
     inkscape:current-layer="g1" /><g
     inkscape:groupmode="layer"
     inkscape:label="Image"
     id="g1"><g
       id="g8"><path
         style="fill-opacity:1;fill:#014a5d"
         d="m 230.6252,636.79846 c -0.49057,-1.55444 -1.28974,-4.08871 -1.77593,-5.63173 -0.48619,-1.54301 -0.0732,-6.42331 0.91773,-10.84509 0.99094,-4.42179 1.88791,-18.65619 1.99326,-31.63201 l 0.19155,-23.59241 -8.75928,-7.33253 C 178.15983,520.06708 141.65097,474.11263 117.31808,424.49837 87.835407,364.38381 74.663501,312.04628 74.451704,254.17221 c -0.188302,-51.45395 8.152452,-84.44952 30.350456,-120.06476 15.19221,-24.3749 39.24006,-40.594143 69.03316,-46.559905 25.3016,-5.066385 55.02409,-0.377719 81.27026,12.820235 l 11.87233,5.97002 10.62767,-10.899888 c 12.90329,-13.233797 33.30236,-27.038809 44.64796,-30.215382 10.99145,-3.077414 27.13695,-1.517297 37.21002,3.595552 8.96551,4.550679 37.12505,31.145503 44.99501,42.494808 2.83777,4.09237 7.38687,13.81237 10.10911,21.6 4.56287,13.0532 4.95406,16.33887 5.00755,42.05932 0.0494,23.7345 -0.54866,29.9931 -4.00548,41.91931 -5.07186,17.49817 -12.54962,34.12529 -21.2259,47.19665 l -6.68705,10.07447 16.2068,16.55479 c 34.55503,35.29699 46.29254,64.34613 51.09268,126.44911 3.3884,43.83838 -2.63974,82.28573 -18.06129,115.19447 -32.49587,69.34436 -93.17359,90.7229 -163.38252,57.56443 -9.08643,-4.29136 -20.17366,-10.31571 -24.63827,-13.38745 l -8.11749,-5.58498 -1.22342,8.15836 c -0.67288,4.48709 -0.92566,19.67891 -0.56173,33.7596 0.65705,25.42173 0.63324,25.60528 -3.39636,26.17749 -2.48479,0.35284 -4.40384,-0.51945 -4.95,-2.25 z"
         id="path10" /><path
         style="fill-opacity:1;fill:#15cffe"
         d="m 335.03325,559.66868 c 38.29891,-12.24678 66.00757,-51.17754 75.7252,-106.39412 2.99486,-17.01712 3.38595,-59.43387 0.73505,-79.7221 -4.23062,-32.37836 -10.00722,-49.79347 -23.48662,-70.80666 -10.78809,-16.81768 -20.23279,-25.78061 -33.62895,-31.91358 -16.40357,-7.5098 -35.07245,-3.92 -53.45391,10.27855 -17.46959,13.49417 -32.06613,37.85052 -36.09014,60.22137 -2.97898,16.5612 -3.94332,18.65943 -10.02006,21.80183 -8.10748,4.19255 -10.67684,-1.21531 -10.69596,-22.51227 -0.033,-36.74619 -3.40077,-58.47717 -14.8638,-95.91042 -1.75921,-5.74481 -1.61825,-7.21305 0.93792,-9.76922 2.45839,-2.45839 3.82961,-2.63407 7.50147,-0.96106 6.26942,2.85654 10.94464,13.00296 17.14139,37.20122 6.99139,27.3013 7.54247,28.21926 12.32893,20.53669 5.79574,-9.30253 23.51205,-25.84615 35.12278,-32.79791 6.75376,-4.04372 14.88092,-7.05003 22.96388,-8.49453 11.54865,-2.06386 13.1759,-2.94002 21.16353,-11.39501 42.76982,-45.27237 43.15336,-144.613185 0.60753,-157.360224 -16.41475,-4.91798 -37.16618,5.556578 -60.26382,30.418964 -7.29755,7.85511 -14.64656,14.28201 -16.33113,14.28201 -1.68458,0 -8.89721,-3.19268 -16.02808,-7.09485 -41.95405,-22.958215 -86.06551,-21.126889 -117.84799,4.89256 -16.30928,13.35196 -33.34348,45.46351 -40.148801,75.68537 -5.133486,22.79739 -6.432716,65.62012 -2.808772,92.57732 10.465593,77.8497 47.850793,158.51743 97.152933,209.63123 30.06778,31.17266 58.10259,48.60001 93.78768,58.30147 14.12536,3.84016 37.31228,3.52031 50.49974,-0.69663 z"
         id="path9" /></g></g></svg>
