<?xml version="1.0" encoding="UTF-8" standalone="no"?>
<svg
   id="uuid-d4dc8613-8451-4c26-9b56-c4f4625bbee1"
   data-name="Layer 1"
   viewBox="0 0 679.72194 799.27504"
   version="1.1"
   sodipodi:docname="cloud.svg"
   width="679.72198"
   height="799.27502"
   inkscape:version="1.4 (e7c3feb100, 2024-10-09)"
   xml:space="preserve"
   inkscape:export-filename="cloud.png"
   inkscape:export-xdpi="60.054455"
   inkscape:export-ydpi="60.054455"
   xmlns:inkscape="http://www.inkscape.org/namespaces/inkscape"
   xmlns:sodipodi="http://sodipodi.sourceforge.net/DTD/sodipodi-0.dtd"
   xmlns="http://www.w3.org/2000/svg"
   xmlns:svg="http://www.w3.org/2000/svg"><sodipodi:namedview
     id="namedview76"
     pagecolor="#ffffff"
     bordercolor="#000000"
     borderopacity="0.25"
     inkscape:showpageshadow="2"
     inkscape:pageopacity="0.0"
     inkscape:pagecheckerboard="0"
     inkscape:deskcolor="#d1d1d1"
     showgrid="false"
     inkscape:zoom="0.72501936"
     inkscape:cx="406.88569"
     inkscape:cy="308.26763"
     inkscape:window-width="852"
     inkscape:window-height="1066"
     inkscape:window-x="0"
     inkscape:window-y="0"
     inkscape:window-maximized="0"
     inkscape:current-layer="uuid-d4dc8613-8451-4c26-9b56-c4f4625bbee1" /><defs
     id="defs1"><style
       id="style1">
      .uuid-030848f5-6a59-4dfe-b94a-06d94b53e82e {
        fill: none;
        stroke: #231f20;
        stroke-linecap: round;
        stroke-linejoin: round;
        stroke-width: 3px;
      }

      .uuid-01330943-5f46-480e-ab3b-8acb03925e92 {
        stroke: #fff;
        stroke-width: 1.78px;
      }

      .uuid-01330943-5f46-480e-ab3b-8acb03925e92, .uuid-4d00aa03-7b7e-460d-ab26-39a477f1ba79 {
        fill: #fff;
      }

      .uuid-a9cbd4ba-557b-4448-bbc5-b6f95d68f594 {
        fill: #9d9fa2;
      }

      .uuid-a9cbd4ba-557b-4448-bbc5-b6f95d68f594, .uuid-88106d0d-ae4d-4cbc-9eea-87533fee0f9c, .uuid-d60d1708-c8d2-4f79-a67c-54b99b1d5ec4, .uuid-bfd944e7-afab-4e90-9ebf-40cf55508c9d, .uuid-4d00aa03-7b7e-460d-ab26-39a477f1ba79, .uuid-7fafd627-2b0a-4102-86c8-3247551a867e, .uuid-c2db7e42-d2c8-41d9-b8ec-841fec647e21, .uuid-05918384-ae20-400a-888f-895911eec38b, .uuid-003f92ab-0f2e-4ce5-9cdb-6d8bad14b21f, .uuid-4582ce87-30f9-4332-b524-b103d34bf1da {
        stroke-width: 0px;
      }

      .uuid-88106d0d-ae4d-4cbc-9eea-87533fee0f9c {
        fill: #f26522;
      }

      .uuid-d60d1708-c8d2-4f79-a67c-54b99b1d5ec4 {
        fill: #3b3b3c;
      }

      .uuid-bfd944e7-afab-4e90-9ebf-40cf55508c9d {
        fill: #505153;
      }

      .uuid-7fafd627-2b0a-4102-86c8-3247551a867e {
        fill: #939598;
      }

      .uuid-c2db7e42-d2c8-41d9-b8ec-841fec647e21 {
        fill: #a9abae;
      }

      .uuid-05918384-ae20-400a-888f-895911eec38b {
        fill: #231f20;
      }

      .uuid-003f92ab-0f2e-4ce5-9cdb-6d8bad14b21f {
        fill: #bcbec0;
      }

      .uuid-4582ce87-30f9-4332-b524-b103d34bf1da {
        fill: #5f6062;
      }
    </style></defs><g
     inkscape:groupmode="layer"
     id="layer4"
     inkscape:label="can 2"
     transform="translate(18.789716,-5.3785751)" /><path
     d="m 492.12687,91.693334 c 22.88419,4.267311 47.80592,10.449376 66.434,25.779156 27.95656,25.75075 31.05891,62.92772 20.43059,90.79641 -7.08977,24.98248 -23.30965,46.16489 -43.94446,62.93667"
     style="display:inline;fill:#fefefe;stroke:#000000;stroke-width:16.8451;stroke-linecap:butt;stroke-linejoin:round;stroke-dasharray:none;stroke-opacity:1"
     id="path1-6" /><g
     inkscape:groupmode="layer"
     id="layer1"
     inkscape:label="spray"
     transform="translate(1218.6771,21.736828)"><path
       class="uuid-cf40cc4f-cab1-4299-bd5f-5f5a84a10a10"
       d="m -643.02375,448.41421 c 2.77899,9.13595 6.04163,36.48796 7.24639,41.33482 5.95661,49.82409 -14.55582,100.60193 -54.65081,138.75764 -5.38448,5.08222 0.66401,2.39716 4.03287,-0.0828 10.21644,-6.35184 18.08714,-14.94626 26.94741,-22.29057 3.20537,5.67605 -1.21157,14.04948 -1.24767,20.72242 -5.01265,42.4269 -43.74475,82.5653 -96.60945,91.83369 -12.14314,1.19971 -25.43431,2.83312 -37.03742,-0.55977 9.01707,-15.32017 17.1505,-31.70254 20.78137,-48.62265 -15.2197,29.18207 -33.0979,59.61913 -66.22098,78.67543 -39.01336,24.72911 -98.70366,28.02567 -139.25081,3.71014 -33.61425,-18.89609 -50.74115,-51.19509 -54.72895,-83.24375 0,-4.43141 -5.6201,-16.31003 3.4283,-13.49487 11.7966,-2.65306 26.2569,-7.18139 34.76215,-12.34775 -22.56865,5.70523 -47.78925,10.52461 -71.12415,4.40168 -36.1693,-11.68126 -54.551,-44.14455 -56.5663,-73.90296 -4.0205,-25.6559 1.8414,-51.68315 13.5592,-75.55322 3.7994,-7.73976 11.687,3.28114 17.1345,3.67943 3.9642,1.27903 10.5787,3.39392 13.6018,3.38185 -31.694,-13.55375 -59.3475,-35.14311 -70.0276,-63.15305 -5.9457,-14.38265 -9.8904,-29.48663 -10.016,-44.71907 v 0 l 0.038,0.009 c 0,-41.28361 19.3031,-83.45375 58.9222,-110.72612 5.7729,-5.05019 17.4969,-10.36263 21.0591,-14.21703 -15.6314,4.63245 -28.7012,13.95384 -42.2314,21.7742 -6.6423,-1.4141 -8.9615,-9.069 -13.3965,-12.95923 -32.4639,-39.14636 -27.3438,-90.69843 -6.6497,-132.68711 17.9108,-36.04957 48.0006,-69.838346 90.3448,-89.654213 32.2772,-15.03762 72.95335,-17.893667 107.74408,-6.734276 4.50094,1.26801 12.87313,3.256778 4.40137,-0.280456 -5.47712,-4.048881 -20.69973,-1.475506 -21.06703,-8.650323 16.43082,-31.547711 54.85924,-59.715933 97.76564,-55.745527 58.94859,2.410539 109.28498,37.458624 133.31312,78.868923 4.82823,7.973495 9.2153,16.606264 11.39656,25.024147 M -913.23308,631.98195 c 18.21413,2.66693 38.31258,2.14412 54.96011,-4.69992 -78.65694,19.7735 -136.78458,-22.67283 -130.56148,-80.3359 -4.1841,25.0537 9.2533,71.54974 75.60137,85.03582 z"
       id="path1709"
       style="display:inline;fill:#fefefe;stroke:#000000;stroke-width:16.8451;stroke-linecap:round;stroke-linejoin:round;stroke-dasharray:none;stroke-opacity:1"
       sodipodi:nodetypes="ccccccccccccccccscccscccccccccccccccccc" /><path
       class="uuid-be687762-8438-4a37-af6a-eff9717bd28f"
       d="m -1076.1928,271.2092 c -0.1585,-0.26683 -1.3043,-0.15328 -3.3366,0.36862 -2.0323,0.52191 -4.951,1.45213 -8.578,2.89706 -3.6269,1.44494 -7.9745,3.40485 -12.7884,6.01454 -4.8141,2.60969 -10.0945,5.86917 -15.5136,9.87175 -4.9427,3.66268 -10.0032,7.93798 -14.9308,12.85077 -4.9276,4.91278 -9.7221,10.47304 -14.123,16.61541 v 0 c -6.7691,9.44208 -12.6689,20.27677 -16.9604,32.17879 -4.2914,11.90202 -6.9497,24.86086 -7.4444,38.27543 -0.026,0.76077 -0.051,1.52155 -0.065,2.28207 -0.2474,12.94933 1.593,25.54569 5.2019,37.18543 3.9011,12.57405 9.9276,24.02408 17.26,33.72673 4.3842,5.8119 9.2351,10.98401 14.2644,15.48223 5.0293,4.49823 10.212,8.33308 15.3124,11.53942 5.7762,3.63261 11.3883,6.43831 16.4803,8.60448 5.0795,2.16643 9.639,3.70332 13.4218,4.78602 3.7829,1.08268 6.7894,1.72117 8.8608,2.02875 2.0713,0.30757 3.2206,0.30397 3.3369,0.0315 0.1159,-0.28248 -0.7886,-0.82409 -2.5891,-1.64739 -1.8005,-0.8233 -4.4852,-1.94856 -7.8817,-3.44932 -3.3968,-1.51076 -7.4937,-3.42728 -12.0327,-5.88489 -4.5516,-2.45736 -9.5453,-5.45583 -14.6241,-9.16278 -4.4901,-3.26888 -9.0475,-7.07657 -13.4485,-11.46765 -4.4012,-4.39109 -8.6333,-9.35584 -12.4581,-14.86913 -6.3926,-9.22178 -11.6229,-19.99794 -15.0249,-31.81198 -3.1491,-10.93895 -4.7269,-22.75044 -4.4806,-34.94951 0.015,-0.71054 0.041,-1.43132 0.056,-2.15186 0.4817,-12.65405 2.8516,-24.86672 6.6382,-36.14817 3.7993,-11.27171 9.0157,-21.6022 15.0086,-30.69823 v 0 c 3.8962,-5.91194 8.121,-11.31045 12.4766,-16.14146 4.3431,-4.83075 8.8165,-9.104 13.1825,-12.82486 4.7916,-4.08972 9.467,-7.51683 13.7354,-10.38542 4.2686,-2.86858 8.1179,-5.16836 11.3072,-7.01444 3.1893,-1.84609 5.7188,-3.22848 7.4107,-4.23355 1.6795,-1.00481 2.5087,-1.64204 2.3502,-1.90887 v 0 z"
       id="path1711"
       style="display:inline;stroke:#000000;stroke-width:0;stroke-linecap:round;stroke-linejoin:round;stroke-dasharray:none;stroke-opacity:1" /><path
       class="uuid-be687762-8438-4a37-af6a-eff9717bd28f"
       d="m -1107.3765,493.1424 c -0.3173,-0.15354 -1.1141,0.32294 -2.3281,1.42826 -1.2018,1.09504 -2.7961,2.80833 -4.6327,5.1468 -1.8367,2.33849 -3.916,5.29215 -6.0257,8.85663 -2.1098,3.56449 -4.2496,7.7498 -6.2216,12.49184 v 0 c -3.6761,8.8784 -6.7254,19.77458 -7.8545,32.11182 -0.9163,10.00211 -0.5904,20.95902 1.7231,32.33526 1.7523,8.67688 4.6876,17.61955 9.2532,26.36869 0.5722,1.08863 1.1565,2.16697 1.7655,3.23482 5.1489,9.01726 11.972,17.24988 20.2322,23.93249 4.3224,3.49241 9.0419,6.51651 13.9821,9.0159 4.9406,2.50939 10.1014,4.48409 15.3076,5.92767 6.6674,1.81371 13.2685,2.72849 19.5251,3.03014 6.2563,0.29165 12.1688,-0.01 17.569,-0.70094 v 0 c 7.1553,-0.89719 13.4054,-2.356 18.7278,-3.91578 5.3224,-1.55979 9.7292,-3.23081 13.2168,-4.73291 3.50015,-1.50235 6.08115,-2.83578 7.76065,-3.84059 1.6794,-1.00481 2.4446,-1.69075 2.2605,-1.97706 -0.1841,-0.28631 -1.3171,-0.16301 -3.3017,0.28788 -1.9846,0.45087 -4.84565,1.22992 -8.50105,2.17524 -3.6676,0.95563 -8.1295,2.07759 -13.344,3.10499 -5.2145,1.0274 -11.1695,1.94996 -17.7907,2.35603 v 0 c -4.9504,0.30174 -10.2854,0.30127 -15.7989,-0.2057 -5.5136,-0.50697 -11.2183,-1.52019 -16.8221,-3.28571 -4.404,-1.36003 -8.7481,-3.19145 -12.9187,-5.45658 -4.1705,-2.26511 -8.1679,-4.97393 -11.8522,-8.0493 -7.0993,-5.9362 -13.0333,-13.3268 -17.7315,-21.53304 -0.5562,-0.9789 -1.0997,-1.95807 -1.6063,-2.948 -4.1665,-7.98708 -6.9547,-16.24254 -8.788,-24.32757 -2.3884,-10.59444 -3.0803,-20.88362 -2.6973,-30.37461 0.4625,-11.69334 2.5642,-22.13992 5.1719,-30.82633 v 0 c 2.789,-9.27029 6.1419,-16.54153 8.5557,-21.53273 1.2069,-2.49559 2.1692,-4.43599 2.7503,-5.79836 0.5686,-1.36213 0.7433,-2.14597 0.4261,-2.29951 v 0 z"
       id="path1712"
       style="display:inline;stroke:#000000;stroke-width:0;stroke-linecap:round;stroke-linejoin:round;stroke-dasharray:none;stroke-opacity:1" /><path
       class="uuid-be687762-8438-4a37-af6a-eff9717bd28f"
       d="m -1035.0938,656.32204 c -0.3877,-0.012 -0.8391,1.10759 -1.2696,3.26714 -0.4303,2.16954 -0.8275,5.36876 -0.9565,9.53281 -0.129,4.16402 0,9.2731 0.7861,15.17885 0.7768,5.916 2.2038,12.62891 4.7855,19.8983 v 0 c 2.0868,5.85908 4.9471,12.0724 8.8218,18.36491 3.8748,6.29253 8.7901,12.69372 14.9331,18.80961 4.7494,4.73404 10.24285,9.29276 16.44895,13.47672 6.2061,4.18396 13.1251,8.00316 20.68798,11.24895 13.45325,5.7657 28.89652,9.68993 45.19232,10.97579 3.24404,0.25348 6.52234,0.40622 9.8221,0.44849 13.1993,0.17907 26.13161,-1.34694 38.15788,-4.2448 8.70346,-2.09938 16.90974,-4.89878 24.51318,-8.18596 7.59096,-3.28693 14.59122,-7.07189 20.90766,-11.14292 8.43387,-5.44493 15.66559,-11.36536 21.85715,-17.38445 6.19156,-6.0191 11.33111,-12.11662 15.60275,-18.00626 v 0 c 5.37197,-7.42273 9.40669,-14.46788 12.50243,-20.79352 3.09572,-6.32564 5.24032,-11.92151 6.75359,-16.5541 1.51359,-4.62259 2.39619,-8.27192 2.84084,-10.77187 0.43216,-2.49969 0.42607,-3.86001 0.0112,-3.94152 -0.40242,-0.0818 -1.18869,1.11477 -2.38921,3.42018 -1.18771,2.31514 -2.78935,5.74915 -4.94869,10.10492 -2.1718,4.35601 -4.90131,9.63379 -8.47183,15.56905 -3.55836,5.925 -7.95741,12.51748 -13.5474,19.37451 v 0 c -4.4234,5.4426 -9.61578,11.06105 -15.69914,16.55776 -6.07086,5.49644 -13.05735,10.88165 -21.0347,15.75703 -11.94713,7.31769 -26.21568,13.54268 -42.12723,17.23057 -10.97553,2.54617 -22.75178,3.88839 -34.72622,3.72418 -2.98729,-0.0387 -5.9528,-0.17785 -8.89591,-0.3975 -14.75429,-1.13745 -28.80812,-4.59005 -41.10277,-9.67931 -13.82648,-5.71801 -25.47098,-13.52151 -34.52573,-21.99839 -5.8604,-5.48149 -10.6687,-11.27468 -14.5883,-17.01609 -3.9203,-5.76141 -6.9643,-11.47079 -9.325,-16.91411 v 0 c -2.94,-6.75187 -4.8418,-13.07489 -6.1839,-18.69919 -1.3421,-5.6243 -2.1121,-10.55011 -2.6539,-14.59032 -0.5417,-4.04024 -0.8555,-7.20484 -1.174,-9.349 -0.3065,-2.15442 -0.6305,-3.29815 -1.0182,-3.31019 v 0 z"
       id="path1713"
       style="display:inline;stroke:#000000;stroke-width:0;stroke-linecap:round;stroke-linejoin:round;stroke-dasharray:none;stroke-opacity:1" /><path
       class="uuid-be687762-8438-4a37-af6a-eff9717bd28f"
       d="m -1119.4091,297.34505 c 0.2431,-0.21506 -0.549,-1.14911 -2.1753,-2.77625 -1.6267,-1.63714 -4.0884,-3.98737 -7.0377,-7.12785 -2.9494,-3.15049 -6.3869,-7.10121 -9.8657,-11.95139 -3.4785,-4.84018 -6.9733,-10.5803 -9.934,-17.2017 v 0 c -2.7581,-6.14539 -5.0656,-13.04028 -6.6318,-20.59062 -1.5663,-7.55033 -2.3913,-15.75608 -2.2935,-24.40094 0.086,-7.46421 0.8485,-15.24243 2.3534,-23.25596 1.5053,-8.00353 3.7657,-16.22264 6.7603,-24.53686 5.3722,-14.82517 13.1477,-29.89977 23.4521,-44.4261 0.3109,-0.43652 0.622,-0.86305 0.9207,-1.28932 10.5393,-14.60119 22.9769,-27.670735 36.6456,-38.574951 7.1758,-5.719201 14.695,-10.855261 22.3865,-15.294631 7.6914,-4.439371 15.5676,-8.182307 23.48,-11.185739 9.159,-3.479184 18.375,-5.959212 27.2331,-7.52159 8.8578,-1.572371 17.34475,-2.236836 25.19155,-2.217928 9.233,4.38e-4 17.54662,0.940065 24.75761,2.172424 7.21099,1.232358 13.31974,2.767446 18.26153,4.146441 4.9418,1.378995 8.72915,2.601639 11.34027,3.378287 2.61112,0.776649 4.04602,1.107298 4.2253,0.853534 0.17928,-0.253765 -0.89738,-1.10194 -3.21271,-2.39483 -2.31531,-1.292889 -5.86958,-3.040493 -10.71599,-4.95162 -4.83392,-1.911386 -10.97243,-3.986041 -18.38767,-5.744381 -7.42774,-1.75808 -16.14474,-3.19959 -26.04204,-3.656541 -8.4077,-0.367503 -17.57855,0.01091 -27.17975,1.388476 -9.6011,1.377574 -19.6322,3.764302 -29.6268,7.290658 -8.5984,3.037532 -17.1463,6.874287 -25.4704,11.456692 -8.324,4.582404 -16.4116,9.920201 -24.0786,15.899577 -14.6162,11.363813 -27.8335,25.049577 -38.8515,40.310802 -0.323,0.44678 -0.6461,0.89356 -0.9687,1.35033 -10.7827,15.19637 -18.7968,31.01611 -24.1583,46.5613 -3.0068,8.7146 -5.1911,17.36229 -6.5577,25.79311 -1.3669,8.42084 -1.9158,16.63481 -1.7268,24.48351 0.2168,9.10854 1.4684,17.75569 3.5333,25.6659 2.0655,7.92019 4.9575,15.12319 8.3098,21.48646 v 0 c 3.6309,6.86772 7.8158,12.7037 11.9557,17.5203 4.1403,4.82659 8.2228,8.63402 11.7645,11.55226 3.5419,2.91824 6.543,4.9473 8.6828,6.22379 2.1397,1.26648 3.4055,1.78066 3.6359,1.56586 z"
       id="path1714"
       style="display:inline;stroke:#000000;stroke-width:0;stroke-linecap:round;stroke-linejoin:round;stroke-dasharray:none;stroke-opacity:1" /><path
       class="uuid-be687762-8438-4a37-af6a-eff9717bd28f"
       d="m -961.55707,45.151414 c 0.36594,0.112523 1.15251,-0.683886 2.36361,-2.269274 1.2111,-1.585386 2.84638,-3.969744 5.01149,-6.975181 2.16512,-3.00544 4.87191,-6.652213 8.30383,-10.673993 3.43192,-4.021784 7.58866,-8.428574 12.75639,-12.866128 v 0 c 4.03701,-3.4640209 8.71111,-6.9311259 14.0431,-10.1416479 5.34449,-3.21078397 11.37153,-6.175497 18.06737,-8.543746 5.23757,-1.868147 10.91118,-3.385129 16.89919,-4.4484151 5.98799,-1.063288 12.27758,-1.682621 18.74616,-1.78546 12.07527,-0.197978 24.77166,1.441897 37.2699,4.6963671 1.90264,0.501102 3.79374,1.032452 5.68613,1.60379 11.07711,3.35368 21.36507,7.81393 30.68457,12.854252 12.68878,6.8617439 23.55144,14.8313479 32.59568,22.9783419 9.26258,8.332574 16.595,16.864839 22.34717,24.819359 5.75216,7.95452 9.92441,15.341287 13.02222,21.559734 3.09781,6.218444 5.14616,11.26805 6.63137,14.728597 1.47267,3.460913 2.39443,5.32259 2.95406,5.241069 0.55962,-0.08148 0.69468,-2.104952 0.20161,-5.796046 -0.49338,-3.700984 -1.64054,-9.089203 -3.99017,-15.74315 -2.34996,-6.663947 -5.92769,-14.6031 -11.31363,-23.215354 -5.38592,-8.612257 -12.59221,-17.887358 -22.02864,-26.966607 -9.20497,-8.873932 -20.54081,-17.5740619 -33.99986,-25.08020587 -9.88458,-5.51887803 -20.9601,-10.38308913 -32.99636,-14.03717913 -2.04383,-0.618241 -4.11166,-1.20598 -6.19038,-1.74348 -13.645,-3.56103 -27.70393,-5.222938 -41.17249,-4.83629 -7.22729,0.208449 -14.25995,1.033104 -20.91386,2.370155 -6.65391,1.337048 -12.92908,3.186491 -18.71633,5.44605 -7.36653,2.882187 -13.85137,6.3764741 -19.49104,10.1234931 -5.62747,3.73676403 -10.42195,7.736513 -14.43108,11.68012 v 0 c -5.11076,5.0465859 -9.02577,9.9785869 -12.09336,14.4530369 -3.05509,4.474194 -5.2631,8.480843 -6.86795,11.814889 -1.59239,3.33379 -2.58192,5.984978 -3.12296,7.816688 -0.52853,1.831451 -0.59573,2.853168 -0.22981,2.965691 v 0 z"
       id="path1715"
       style="display:inline;stroke:#000000;stroke-width:0;stroke-linecap:round;stroke-linejoin:round;stroke-dasharray:none;stroke-opacity:1" /><path
       class="uuid-be687762-8438-4a37-af6a-eff9717bd28f"
       d="m -644.64339,446.21674 c -0.49463,0.16017 -0.36495,1.47798 0.19694,3.80721 0.56188,2.32923 1.55598,5.66992 2.6791,9.91826 1.13562,4.24807 2.40026,9.40381 3.47763,15.34365 1.08985,5.93957 1.98026,12.67351 2.42791,20.01673 0.45022,7.42319 0.44582,15.47593 -0.26959,23.95341 -0.70326,8.46722 -2.11788,17.34918 -4.38952,26.3888 -0.0113,0.0403 -0.0227,0.0705 -0.034,0.11072 -2.26077,8.98937 -5.23418,17.57324 -8.72783,25.51757 -3.48117,7.94409 -7.4826,15.24864 -11.70781,21.80754 -4.20184,6.50841 -8.60251,12.27065 -12.82901,17.22906 -4.22683,4.94841 -8.26736,9.08272 -11.70858,12.42447 -3.44088,3.35175 -6.29463,5.92117 -8.17227,7.76033 -1.87796,1.82916 -2.77947,2.93803 -2.44396,3.27125 0.33551,0.33323 1.89462,-0.13894 4.46473,-1.42212 2.57045,-1.27319 6.13879,-3.37715 10.34098,-6.36441 4.20221,-2.98725 9.03733,-6.8878 14.04245,-11.72215 5.00478,-4.84435 10.17924,-10.63249 15.05019,-17.31469 4.89527,-6.7027 9.49985,-14.28973 13.4446,-22.58345 3.94473,-8.29371 7.22931,-17.30411 9.6002,-26.7559 -10e-4,-0.04 0.0224,-0.0804 0.034,-0.11072 2.38209,-9.49203 3.71891,-18.85255 4.18397,-27.73502 0.46507,-8.88247 0.0575,-17.31688 -0.92713,-25.0392 -0.98166,-7.63236 -2.54118,-14.58263 -4.35968,-20.64728 -1.831,-6.06441 -3.9213,-11.25319 -5.9165,-15.42361 -1.99552,-4.1804 -3.89627,-7.35242 -5.38755,-9.44249 -1.49127,-2.09007 -2.57337,-3.10819 -3.06799,-2.94798 v 0 z"
       id="path1716"
       style="display:inline;stroke:#000000;stroke-width:0;stroke-linecap:round;stroke-linejoin:round;stroke-dasharray:none;stroke-opacity:1" /><path
       class="uuid-be687762-8438-4a37-af6a-eff9717bd28f"
       d="m -657.77715,596.66585 c -0.6102,0.0625 -0.91944,1.71945 -1.11118,4.70437 -0.17924,2.98466 -0.26499,7.32784 -0.6667,12.72787 -0.38892,5.40977 -1.09315,11.89636 -2.66148,19.10092 -1.58078,7.20483 -4.02596,15.11763 -7.9755,23.26139 -4.75822,9.81096 -11.72992,19.94743 -21.12996,29.16345 -3.96144,3.8726 -8.20782,7.43095 -12.63989,10.65301 -7.26534,5.26089 -15.00866,9.6413 -22.72063,13.05076 -7.71196,3.40945 -15.40472,5.85819 -22.64834,7.50745 -6.61197,1.47623 -12.86985,2.30498 -18.40581,2.65876 -5.52349,0.35352 -10.35001,0.23257 -14.29455,-0.0465 -3.94452,-0.27911 -7.03169,-0.70587 -9.1882,-0.94167 -2.15683,-0.2458 -3.39485,-0.28039 -3.57091,0.0733 -0.1764,0.34374 0.70849,1.0558 2.67453,1.97574 1.96571,0.90994 5.01255,2.02775 9.12805,2.96357 4.11582,0.94581 9.30025,1.70962 15.39072,1.89464 6.07831,0.19527 13.04981,-0.19798 20.44391,-1.44021 8.09071,-1.33654 16.73752,-3.64482 25.40992,-7.10402 8.6724,-3.45918 17.35824,-8.05902 25.42169,-13.75644 4.93598,-3.48248 9.62159,-7.36996 13.97105,-11.61065 5.1607,-5.04762 9.58794,-10.37026 13.30029,-15.77826 3.71236,-5.40799 6.69733,-10.90108 9.02345,-16.29061 3.83621,-8.95174 5.88504,-17.53663 6.83737,-25.24872 0.96483,-7.71234 0.84629,-14.53215 0.29205,-20.13261 -0.54176,-5.60072 -1.51953,-9.9921 -2.43903,-12.95419 -0.93198,-2.96183 -1.79315,-4.49468 -2.40339,-4.43211 v 0 z"
       id="path1717"
       style="display:inline;stroke:#000000;stroke-width:0;stroke-linecap:round;stroke-linejoin:round;stroke-dasharray:none;stroke-opacity:1" /><path
       class="uuid-be687762-8438-4a37-af6a-eff9717bd28f"
       d="m -987.82085,545.44504 c -0.3768,-0.0623 -0.8993,0.39859 -1.4932,1.3611 -0.6063,0.96277 -1.2844,2.41716 -1.947,4.3514 -0.6502,1.93399 -1.2851,4.34781 -1.7063,7.1874 -2.0084,13.20316 2.1483,24.25965 5.4393,30.55837 v 0 c 2.9528,5.59122 7.1561,11.21677 12.58355,16.44707 5.42784,5.24028 12.0927,10.09504 19.66966,14.17083 0.26701,0.14456 0.53369,0.27912 0.80068,0.42369 8.03189,4.23649 16.49212,7.41384 24.81019,9.66381 8.33056,2.2497 16.53145,3.57177 24.14806,4.2056 7.77957,0.6505 14.98639,0.58252 21.30477,0.0826 6.3181,-0.5099 11.72344,-1.43117 16.07582,-2.46086 4.35268,-1.0197 7.62745,-2.14731 9.78427,-3.07189 2.14401,-0.93433 3.17006,-1.66563 2.99494,-2.06216 -166.07989,3.04033 -129.00544,-52.54423 -132.46514,-80.867 -4e-4,-0.003 3e-4,0.007 4e-4,0.01 z"
       id="path1720"
       style="display:inline;stroke:#000000;stroke-width:0;stroke-linecap:round;stroke-linejoin:round;stroke-dasharray:none;stroke-opacity:1"
       sodipodi:nodetypes="ccccsscccccccccscc" /><path
       d="m -1037.9638,119.46328 c 15.2331,-10.3351 33.552,-18.61983 51.51845,-19.711415 -79.41505,16.466265 -113.24665,79.995245 -82.52565,129.188445 -14.6802,-20.72881 -22.8396,-68.43487 31.0072,-109.47703 z"
       style="display:inline;fill:#fefefe;stroke:#000000;stroke-width:16.8451;stroke-linecap:round;stroke-linejoin:round;stroke-dasharray:none;stroke-opacity:1"
       id="path1" /><path
       d="m -690.40677,357.26857 c -1.71049,18.32864 -6.96559,37.7349 -17.54806,52.29505 37.79205,-71.76122 10.27583,-138.26961 -47.22555,-145.84207 25.33304,1.85173 67.33974,25.8909 64.77361,93.54702 z"
       style="display:inline;fill:#fefefe;stroke:#000000;stroke-width:16.8451;stroke-linecap:round;stroke-linejoin:round;stroke-dasharray:none;stroke-opacity:1"
       id="path1-3" /><path
       d="m -1051.9949,446.77005 c -7.1836,-6.30534 -48.636,-75.19898 16.1621,-117.11348 -55.4658,37.28465 -32.953,95.10026 -16.1514,117.12003 v 0 z"
       style="display:inline;fill:#fefefe;stroke:#000000;stroke-width:16.8451;stroke-linecap:round;stroke-linejoin:round;stroke-dasharray:none;stroke-opacity:1"
       id="path1-2" /></g><g
     inkscape:groupmode="layer"
     id="layer2"
     inkscape:label="can"
     transform="translate(1218.6771,21.736828)" /><g
     inkscape:groupmode="layer"
     id="layer3"
     inkscape:label="can 1"
     transform="translate(18.789716,-5.3785751)"><path
       d="m 494.55844,248.57357 c 34.13082,4.82714 66.45451,18.46507 84.06421,42.72454 9.488,12.33656 17.23207,25.89092 21.32227,40.56444 v 0 l -0.039,0.002 c 10.7573,39.85748 3.1092,85.60066 -28.03497,122.25437 -4.25757,6.37997 -14.19234,14.56378 -16.62714,19.21322"
       style="display:inline;fill:#fefefe;stroke:#000000;stroke-width:16.8451;stroke-linecap:round;stroke-linejoin:round;stroke-dasharray:none;stroke-opacity:1"
       id="path1-9"
       sodipodi:nodetypes="ccscccc" /><path
       d="m 440.782,147.00033 c 9.73036,15.62648 17.29109,34.25593 17.67792,52.25125 -13.34225,-79.99931 -75.497,-116.293941 -125.85605,-87.52377 21.28807,-13.856847 69.27719,-20.140999 108.17813,35.27252 z"
       style="display:inline;fill:#fefefe;stroke:#000000;stroke-width:16.8451;stroke-linecap:round;stroke-linejoin:round;stroke-dasharray:none;stroke-opacity:1"
       id="path1-22" /><path
       d="m 439.43864,622.37357 c 9.38766,-1.79853 80.02279,-40.20816 45.37876,-109.16755 28.94219,60.24076 -19.75162,98.69058 -45.39126,109.1678 v 0 z"
       style="display:inline;fill:#fefefe;stroke:#000000;stroke-width:16.8451;stroke-linecap:round;stroke-linejoin:round;stroke-dasharray:none;stroke-opacity:1"
       id="path1-97" /></g></svg>
