<?xml version="1.0" encoding="UTF-8" standalone="no"?>
<!-- Created with Inkscape (http://www.inkscape.org/) -->

<svg
   version="1.1"
   id="svg1"
   width="533.33331"
   height="666.66669"
   viewBox="0 0 533.33331 666.66669"
   sodipodi:docname="D.svg"
   inkscape:version="1.4.3 (0d15f75042, 2025-12-25)"
   inkscape:export-filename="C.png"
   inkscape:export-xdpi="96"
   inkscape:export-ydpi="96"
   xml:space="preserve"
   xmlns:inkscape="http://www.inkscape.org/namespaces/inkscape"
   xmlns:sodipodi="http://sodipodi.sourceforge.net/DTD/sodipodi-0.dtd"
   xmlns="http://www.w3.org/2000/svg"
   xmlns:svg="http://www.w3.org/2000/svg"><defs
     id="defs1" /><sodipodi:namedview
     id="namedview1"
     pagecolor="#505050"
     bordercolor="#ffffff"
     borderopacity="1"
     inkscape:showpageshadow="0"
     inkscape:pageopacity="0"
     inkscape:pagecheckerboard="1"
     inkscape:deskcolor="#505050"
     inkscape:zoom="0.57599998"
     inkscape:cx="265.62501"
     inkscape:cy="332.46529"
     inkscape:window-width="1706"
     inkscape:window-height="1030"
     inkscape:window-x="0"
     inkscape:window-y="0"
     inkscape:window-maximized="0"
     inkscape:current-layer="g1" /><g
     inkscape:groupmode="layer"
     inkscape:label="Image"
     id="g1"><g
       id="g10"><path
         style="fill-opacity:1;fill:#014a5d"
         d="m 234.82917,633.12886 c -1.31791,-3.43444 -1.29967,-4.90918 0.40718,-32.90916 l 1.24235,-20.3803 -6.95992,3.7303 c -8.40463,4.50461 -20.34122,4.83291 -28.25263,0.77706 -7.65226,-3.923 -35.15864,-30.71879 -48.09708,-46.85456 -22.19991,-27.68591 -39.79691,-62.77526 -56.714753,-113.09221 -31.876598,-94.80717 -46.714116,-200.91732 -38.006143,-271.8 3.85823,-31.40589 6.90329,-40.97266 16.154443,-50.75295 12.528382,-13.244961 27.134053,-13.399846 46.617793,-0.49435 l 8.352,5.53213 12.26657,-9.898542 c 20.76876,-16.759417 44.37127,-26.923905 68.88802,-29.666827 28.83242,-3.225755 63.94923,3.867494 94.57854,19.103927 29.83526,14.841432 80.12656,59.436492 107.10824,94.976612 57.08983,75.19842 79.95514,161.96324 65.65891,249.14966 -11.09375,67.65595 -53.93614,120.32974 -110.15106,135.42836 -10.60295,2.84783 -19.27602,3.75535 -35.61609,3.72677 -24.39099,-0.0426 -41.6646,-3.71073 -62.3293,-13.2357 -23.09475,-10.64506 -25.8707,-5.88833 -25.8707,44.33091 0,34.11636 -0.01,34.20141 -4.05805,34.77625 -2.52562,0.35864 -4.49619,-0.56556 -5.21832,-2.44738 z"
         id="path14" /><path
         style="fill-opacity:1;fill:#15cffd"
         d="m 196.57893,543.59275 c 4.46542,-3.40769 8.85568,-13.1237 13.41022,-29.67801 2.29595,-8.34505 4.57885,-15.57721 5.07311,-16.07146 1.01532,-1.01533 18.96361,7.82555 29.88996,14.72305 20.95341,13.22731 60.82716,18.99354 88.6055,12.81345 54.78713,-12.18898 94.79048,-62.80203 103.99754,-131.57979 2.74324,-20.49229 2.78221,-60.23194 0.0784,-79.93166 C 427.20261,237.86945 380.48081,157.42526 323.3507,117.09943 306.47816,105.18979 293.56133,98.807197 270.51422,90.991352 c -18.11814,-6.144311 -20.53717,-6.517514 -42.60868,-6.573594 -21.95647,-0.05579 -24.31865,0.289726 -38.29167,5.600862 -18.78858,7.14153 -36.85994,19.09957 -49.50579,32.75861 l -9.84027,10.62866 -11.62502,-11.3427 c -17.48808,-17.06336 -27.83884,-17.26588 -36.08785,-0.70607 -9.522668,19.11666 -12.116324,91.24444 -5.168876,143.74287 15.598152,117.86754 54.992126,228.44431 96.549886,271.01036 9.96137,10.20305 16.32307,12.30528 22.64298,7.4824 z"
         id="path13" /><path
         style="fill-opacity:1;fill:#014a5d"
         d="m 308.03221,447.83213 c -1.68639,-2.03198 -2.26236,-8.63235 -2.02156,-23.16606 0.98501,-59.45087 -10.57499,-125.7399 -31.06676,-178.14757 -11.54062,-29.51511 -20.61228,-46.52442 -36.05236,-67.59799 -7.52729,-10.27372 -13.68599,-19.66568 -13.68599,-20.87102 0,-3.07355 5.98575,-8.1495 9.6102,-8.1495 5.13089,0 31.05098,36.71357 42.5723,60.3 20.7317,42.44189 32.05474,82.90822 42.5597,152.1 3.91592,25.79254 4.15069,74.26978 0.39772,82.12351 -2.82923,5.92063 -8.84612,7.58626 -12.31325,3.40863 z"
         id="path12" /></g></g></svg>
