<?xml version="1.0" encoding="UTF-8" standalone="no"?>
<!-- Created with Inkscape (http://www.inkscape.org/) -->

<svg
   version="1.1"
   id="svg1"
   width="533.33331"
   height="666.66669"
   viewBox="0 0 533.33331 666.66669"
   sodipodi:docname="E.svg"
   inkscape:version="1.4.3 (0d15f75042, 2025-12-25)"
   xmlns:inkscape="http://www.inkscape.org/namespaces/inkscape"
   xmlns:sodipodi="http://sodipodi.sourceforge.net/DTD/sodipodi-0.dtd"
   xmlns="http://www.w3.org/2000/svg"
   xmlns:svg="http://www.w3.org/2000/svg">
  <defs
     id="defs1" />
  <sodipodi:namedview
     id="namedview1"
     pagecolor="#ffffff"
     bordercolor="#000000"
     borderopacity="0.25"
     inkscape:showpageshadow="2"
     inkscape:pageopacity="0.0"
     inkscape:pagecheckerboard="0"
     inkscape:deskcolor="#d1d1d1"
     inkscape:zoom="0.38062501"
     inkscape:cx="267.98029"
     inkscape:cy="332.3481"
     inkscape:window-width="852"
     inkscape:window-height="1030"
     inkscape:window-x="0"
     inkscape:window-y="0"
     inkscape:window-maximized="0"
     inkscape:current-layer="g1" />
  <g
     inkscape:groupmode="layer"
     inkscape:label="Image"
     id="g1">
    <path
       style="fill-opacity:1;fill:#014a5d"
       d="m 231.85862,636.05393 c -1.20388,-4.01819 -1.21667,-7.09732 -0.0535,-12.88904 0.84053,-4.18529 1.52823,-10.11408 1.52823,-13.17507 v -5.56546 l -7.66666,-1.66745 C 191.46935,595.31918 156.9853,581.04032 132.16485,564.04046 110.96569,549.52088 76.542111,514.59423 66.29803,497.21107 52.910271,474.49341 52.147225,448.92595 64.14266,424.99081 c 11.45435,-22.85549 35.93247,-46.88155 58.8673,-57.78014 3.39501,-1.61331 4.80183,-3.05174 4.36429,-4.46236 -2.45798,-7.92452 -9.23417,-39.03483 -11.97202,-54.965 -5.84293,-33.99708 -6.73653,-45.41482 -6.71374,-85.7833 0.0191,-33.87604 0.38171,-40.649 2.92653,-54.66667 6.31061,-34.76082 18.38899,-59.46215 33.38633,-68.277929 5.41012,-3.180184 7.78786,-3.722075 16.33198,-3.722075 14.74719,0 19.69363,2.918513 42,24.780944 l 18.66666,18.29516 7.33333,-10.87138 c 20.82552,-30.873037 51.55726,-53.519712 87.33333,-64.357224 10.5782,-3.204412 14.29069,-3.647697 31.33334,-3.741308 22.12448,-0.121524 30.5268,1.606879 46.35498,9.535472 12.78643,6.404935 27.04481,17.970809 44.7373,36.28926 27.6112,28.5881 37.359,49.88144 39.09604,85.40241 2.11302,43.20926 -16.05432,87.16339 -49.90523,120.74088 -7.12237,7.06484 -17.44976,15.85502 -22.94976,19.53372 -5.5,3.6787 -9.99943,7.07184 -9.99873,7.54031 7.1e-4,0.46847 2.10071,5.04126 4.66667,10.16176 4.4554,8.89095 4.66401,9.94118 4.63481,23.33333 -0.0254,11.66285 -0.53543,15.12927 -3.0298,20.59354 -1.64957,3.61361 -2.53581,6.96652 -1.96942,7.45092 0.56639,0.4844 4.6298,3.61551 9.0298,6.95804 11.48345,8.72357 49.84987,48.16167 56.59051,58.17124 17.12391,25.42827 19.71271,48.14732 8.14915,71.51627 -15.58019,31.48623 -46.58917,52.16215 -97.98757,65.33537 -36.20401,9.27896 -79.84473,11.08714 -126.54398,5.24314 l -7.7919,-0.97509 0.94997,14.65725 c 1.06318,16.40379 0.012,20.406 -5.35956,20.406 -2.61101,0 -3.53717,-1.01557 -4.81465,-5.27942 z"
       id="path2" />
    <path
       style="fill-opacity:1;fill:#15cffd"
       d="m 308.8159,568.62869 c 29.65163,-3.11387 53.23855,-9.32065 76.28975,-20.07527 23.10066,-10.77771 41.307,-26.91435 49.76866,-44.11098 4.09644,-8.3252 4.45068,-10.03967 4.35656,-21.08556 -0.11774,-13.81926 -2.20825,-19.70755 -11.93848,-33.62676 -3.27749,-4.68849 -5.95907,-8.99735 -5.95907,-9.57524 0,-1.87817 -17.7717,-18.14555 -26.66667,-24.40941 -4.76666,-3.3567 -13.68134,-8.61184 -19.81039,-11.67809 l -11.14372,-5.57499 -14.79459,5.54504 c -20.7136,7.7635 -32.58674,9.78014 -52.25129,8.87482 -25.03257,-1.15245 -42.28711,-5.71018 -67.33334,-17.78588 -16.25908,-7.8391 -21.33333,-11.46925 -21.33333,-15.262 0,-2.62395 5.98233,-7.86436 8.97777,-7.86436 1.07332,0 12.2424,3.83995 24.82019,8.53322 29.69496,11.08036 43.5264,14.48576 58.86871,14.49389 18.77149,0.01 32.188,-4.33109 46.84084,-15.15578 9.93394,-7.33863 14.79748,-15.05486 17.04141,-27.03696 1.47181,-7.85912 -1.62055,-22.62161 -5.78308,-27.60766 l -3.48611,-4.1758 -13.9732,4.07956 c -20.37013,5.94717 -29.30436,7.33757 -41.6957,6.48889 -22.22798,-1.52237 -46.44274,-10.64114 -60.7197,-22.86574 -3.90988,-3.34783 -7.54226,-6.08695 -8.07194,-6.08695 -1.42225,0 -14.37943,-17.5397 -15.35866,-20.7905 -1.10365,-3.66385 3.74486,-9.87617 7.70802,-9.87617 3.26175,0 11.81173,7.99321 12.33045,11.5275 0.33637,2.2918 13.93938,16.8119 14.87424,15.87704 0.29122,-0.29122 3.32638,1.09569 6.74479,3.08203 19.95719,11.5965 36.03712,15.08537 57.20901,12.41267 25.59283,-3.23079 49.83664,-14.32746 69.83625,-31.96485 9.92414,-8.75196 22.62286,-22.98385 26.4122,-29.60106 1.04986,-1.83333 4.86582,-8.13333 8.4799,-14 7.08123,-11.49479 12.60176,-26.62916 16.29297,-44.66667 3.03277,-14.81994 2.11982,-40.16424 -1.96144,-54.45152 -2.82048,-9.87363 -7.66518,-20.62139 -12.1852,-27.03232 -1.35095,-1.91611 -2.15994,-3.78017 -1.79776,-4.14235 1.36164,-1.36163 -18.18941,-18.307695 -26.29546,-22.791856 -17.78032,-9.83584 -37.12495,-13.101616 -57.1434,-9.646998 -47.2052,8.146281 -84.97896,39.083944 -108.4206,88.799194 -2.61085,5.53712 -5.87269,11.08622 -7.24854,12.33134 -2.36563,2.14087 -2.65158,2.10098 -5.26346,-0.73415 -1.51906,-1.6489 -4.92601,-8.26277 -7.571,-14.69749 -2.64499,-6.43472 -6.75587,-15.01931 -9.13529,-19.07688 -2.37941,-4.05757 -5.14996,-8.9928 -6.15677,-10.96718 -4.47078,-8.76731 -17.40266,-19.00308 -26.36465,-20.86801 -16.06699,-3.34342 -31.7815,22.65615 -38.64918,63.94489 -1.91839,11.53341 -2.43812,21.93012 -2.43283,48.66667 0.009,45.30689 3.66448,75.08725 15.12118,123.18736 6.51189,27.33968 6.66569,26.7607 -9.49939,35.76191 -21.49821,11.97087 -36.682516,26.03395 -47.473954,43.96844 -7.353053,12.22018 -9.720613,19.1241 -10.527774,30.69949 -1.091075,15.64698 3.333141,28.54106 14.999877,43.71614 7.574098,9.85173 14.770661,16.01398 30.657291,26.25114 51.40047,33.12188 121.88493,48.28298 190.8159,41.0442 z"
       id="path1" />
  </g>
</svg>
