<?xml version="1.0" encoding="UTF-8" standalone="no"?>
<!-- Created with Inkscape (http://www.inkscape.org/) -->

<svg
   version="1.1"
   id="svg1"
   width="533.33331"
   height="666.66669"
   viewBox="0 0 533.33331 666.66669"
   sodipodi:docname="F.svg"
   inkscape:version="1.4.3 (0d15f75042, 2025-12-25)"
   inkscape:export-filename="D.png"
   inkscape:export-xdpi="96"
   inkscape:export-ydpi="96"
   xml:space="preserve"
   xmlns:inkscape="http://www.inkscape.org/namespaces/inkscape"
   xmlns:sodipodi="http://sodipodi.sourceforge.net/DTD/sodipodi-0.dtd"
   xmlns="http://www.w3.org/2000/svg"
   xmlns:svg="http://www.w3.org/2000/svg"><defs
     id="defs1" /><sodipodi:namedview
     id="namedview1"
     pagecolor="#505050"
     bordercolor="#ffffff"
     borderopacity="1"
     inkscape:showpageshadow="0"
     inkscape:pageopacity="0"
     inkscape:pagecheckerboard="1"
     inkscape:deskcolor="#505050"
     inkscape:zoom="0.57599998"
     inkscape:cx="265.62501"
     inkscape:cy="332.46529"
     inkscape:window-width="1706"
     inkscape:window-height="1030"
     inkscape:window-x="0"
     inkscape:window-y="0"
     inkscape:window-maximized="0"
     inkscape:current-layer="g1" /><g
     inkscape:groupmode="layer"
     inkscape:label="Image"
     id="g1"><g
       id="g14"><path
         style="fill-opacity:1;fill:#014a5d"
         d="m 229.6208,643.54553 c -1.2766,-3.32676 -1.28131,-2.91881 0.40581,-35.16641 l 1.18435,-22.63755 -10.5569,-5.12441 c -13.42264,-6.51548 -53.87309,-46.37669 -65.85001,-64.8908 -22.65296,-35.01729 -42.7728,-85.67262 -57.874582,-145.7097 -11.810263,-46.95165 -16.77033,-80.42764 -19.069208,-128.7 -3.144972,-66.03883 6.307448,-113.26717 27.22564,-136.03098 11.92964,-12.982182 22.1312,-15.960383 38.20243,-11.152655 5.53599,1.656097 12.70223,7.355075 28.3491,22.544715 13.30946,12.92054 21.2733,19.46047 21.85418,17.94671 1.65898,-4.32322 19.6285,-27.23649 28.99943,-36.977681 33.51733,-34.841706 90.59447,-50.266798 132.29164,-35.751802 18.83921,6.558024 30.57427,14.962135 54.21449,38.825923 23.32546,23.54607 31.84289,37.2037 37.8504,60.69284 4.83734,18.91383 4.80945,48.44252 -0.065,68.77513 -8.54706,35.65227 -32.79528,72.54654 -63.13852,96.06683 -15.97578,12.38347 -15.50468,10.89696 -9.01972,28.46097 6.57724,17.81391 4.57708,32.68487 -6.64068,49.37278 -12.17506,18.11201 -36.2153,31.62722 -56.25705,31.62722 -13.03004,0 -13.69049,1.60086 -13.95293,33.82028 -0.44859,55.07509 -8.47072,85.45037 -27.62654,104.6062 -8.28613,8.28613 -12.58548,10.52667 -24.05,12.5333 l -7.2,1.26022 v 28.74 c 0,28.45093 -0.0408,28.7458 -4.05805,29.31625 -2.52562,0.35864 -4.4962,-0.56555 -5.21832,-2.44738 z"
         id="path17" /><path
         style="fill-opacity:1;fill:#15cffd"
         d="m 224.10498,543.03835 c 12.18342,-5.21293 22.2968,-21.91682 27.55954,-45.51906 3.0211,-13.54897 5.59745,-75.19628 3.58983,-85.89784 -0.67911,-3.61997 -3.6248,-9.30387 -6.54597,-12.6309 -6.4786,-7.37872 -6.58689,-9.15504 -0.78973,-12.95348 4.299,-2.81681 5.39298,-2.67905 22.2331,2.79975 19.32439,6.28704 24.6268,6.0438 40.07731,-1.83846 20.6087,-10.51377 31.51943,-36.43869 22.52005,-53.50973 -4.82914,-9.16045 -9.23693,-10.303 -25.72025,-6.66697 -23.14439,5.10539 -37.16614,5.35765 -55.53292,0.99907 -40.5586,-9.62485 -69.61392,-34.50676 -62.80029,-53.77985 0.88084,-2.49152 2.59952,-4.8614 3.8193,-5.26639 1.21978,-0.40499 8.61486,5.35738 16.43352,12.80527 26.69397,25.42812 44.16117,32.83739 73.78436,31.29796 20.31047,-1.05548 35.41464,-6.09266 55.14227,-18.38976 23.83446,-14.85707 50.20139,-46.83965 61.13891,-74.1603 13.14534,-32.83557 13.10558,-70.91182 -0.1034,-99.00454 -7.06233,-15.02009 -25.81147,-33.331513 -41.5293,-40.559764 -27.35963,-12.58203 -70.10093,-7.238741 -101.69232,12.713031 -21.24974,13.420423 -40.87586,37.510683 -59.08012,72.518423 -5.69584,10.95341 -10.75575,19.21927 -11.24422,18.36857 -0.48848,-0.85069 -2.31257,-6.00172 -4.05353,-11.44672 -5.28086,-16.5163 -18.51899,-40.38404 -28.43745,-51.27141 -8.22581,-9.02937 -10.38071,-10.40424 -17.55937,-11.20324 -7.01263,-0.78052 -9.01268,-0.21253 -13.9853,3.97165 -37.73268,31.74996 -35.605884,170.62609 4.52084,295.203 23.15076,71.87358 51.11014,118.76126 78.39191,131.46272 11.03046,5.1354 12.17551,5.24833 19.86323,1.95897 z"
         id="path16" /></g></g></svg>
