<?xml version="1.0" encoding="UTF-8" standalone="no"?>
<!-- Created with Inkscape (http://www.inkscape.org/) -->

<svg
   version="1.1"
   id="svg1"
   width="533.33331"
   height="666.66669"
   viewBox="0 0 533.33331 666.66669"
   sodipodi:docname="G.svg"
   inkscape:version="1.4.3 (0d15f75042, 2025-12-25)"
   xmlns:inkscape="http://www.inkscape.org/namespaces/inkscape"
   xmlns:sodipodi="http://sodipodi.sourceforge.net/DTD/sodipodi-0.dtd"
   xmlns="http://www.w3.org/2000/svg"
   xmlns:svg="http://www.w3.org/2000/svg">
  <defs
     id="defs1" />
  <sodipodi:namedview
     id="namedview1"
     pagecolor="#ffffff"
     bordercolor="#000000"
     borderopacity="0.25"
     inkscape:showpageshadow="2"
     inkscape:pageopacity="0.0"
     inkscape:pagecheckerboard="0"
     inkscape:deskcolor="#d1d1d1"
     inkscape:zoom="0.034499999"
     inkscape:cx="260.86957"
     inkscape:cy="333.33334"
     inkscape:window-width="1706"
     inkscape:window-height="1066"
     inkscape:window-x="0"
     inkscape:window-y="0"
     inkscape:window-maximized="0"
     inkscape:current-layer="g1" />
  <g
     inkscape:groupmode="layer"
     inkscape:label="Image"
     id="g1">
    <path
       style="fill-opacity:1;fill:#014a5d"
       d="m 231.94387,636.49664 c -1.2398,-3.75664 -1.23919,-6.95737 0.003,-14.33333 0.87946,-5.22315 1.70124,-15.37424 1.82619,-22.55799 l 0.22717,-13.06136 -12,-5.08089 C 195.93825,570.42835 180.60365,558.97286 149.25601,527.12074 136.38016,514.03768 122.07285,498.23335 117.46199,492.00002 38.254004,384.92015 43.376693,217.57532 128.63504,127.00579 147.07725,107.41472 165.69787,94.552432 188.2723,85.811053 236.15833,67.2684 288.04082,75.079471 333.89285,107.73468 c 12.61746,8.98599 49.18488,44.97632 59.19958,58.26533 8.79322,11.66816 19.30729,33.06525 22.27386,45.32935 6.06389,25.06867 0.46778,48.31845 -15.80179,65.65067 -2.2269,2.37235 -3.78992,4.49446 -3.47338,4.71579 0.31654,0.22133 3.03575,2.0497 6.04269,4.06305 3.00694,2.01334 14.44241,12.79124 25.41217,23.95088 17.68634,17.9925 20.65496,21.6764 26.21418,32.53047 7.86157,15.34928 16.1286,39.90015 19.00052,56.42646 2.68592,15.456 1.94606,48.59126 -1.42903,64 -7.7499,35.38165 -22.90275,63.26501 -48.21099,88.71493 -39.95262,40.17629 -83.46399,51.70453 -158.02429,41.86817 -5.63032,-0.74278 -13.37269,-2.16391 -17.20526,-3.15806 l -6.96831,-1.80756 0.86765,23.95358 c 0.93313,25.76112 0.35239,29.09561 -5.0673,29.09561 -2.4768,0 -3.53718,-1.07312 -4.77928,-4.83671 z"
       id="path2" />
    <path
       style="fill-opacity:1;fill:#15cffd"
       d="m 325.98864,551.49357 c 24.80138,-6.52207 42.19526,-16.85995 62.01135,-36.8558 28.78776,-29.04891 43.38158,-62.45027 46.10616,-105.52469 2.13684,-33.78248 -14.94476,-88.16422 -32.70986,-104.13657 -27.01277,-24.28681 -85.22581,-30.43092 -128.31771,-13.54334 -21.43811,8.40154 -46.12355,29.52868 -54.58542,46.71717 -4.15042,8.43071 -4.49317,10.09745 -4.49317,21.84967 0,11.73294 0.3469,13.4274 4.45901,21.78027 4.09134,8.3107 19.70052,27.17131 21.22528,25.64656 0.35466,-0.35466 2.52612,0.79009 4.82547,2.54389 7.37923,5.62841 23.92461,12.65094 34.86142,14.79659 19.11977,3.75104 37.70601,0.74725 59.43164,-9.60494 7.04155,-3.35528 13.87796,-5.88943 15.19203,-5.63144 1.31406,0.25799 3.61994,2.11907 5.12418,4.13574 2.71542,3.64046 2.71643,3.69147 0.1413,7.13753 -4.68406,6.26825 -21.00543,15.01378 -34.94226,18.72321 -23.67485,6.30131 -48.19845,4.55393 -69.302,-4.938 -19.51407,-8.77701 -43.2492,-29.1331 -50.80189,-43.56951 -5.54853,-10.60559 -8.63653,-25.04348 -7.46895,-34.92095 2.21486,-18.73733 5.43175,-27.06407 15.69714,-40.63113 9.03987,-11.94737 13.48471,-29.07908 13.52634,-52.13449 0.036,-19.96385 -2.49154,-30.42151 -10.60227,-43.86608 -2.60996,-4.32635 -4.47532,-8.13614 -4.14525,-8.46622 0.80561,-0.8056 9.52635,2.07556 16.11214,5.32313 5.85143,2.88545 14.22821,10.2279 13.32887,11.68307 -2.34582,3.79561 26.59388,20.41582 42.98072,24.68405 13.26012,3.45382 36.60728,5.12391 48.12054,3.4422 28.44158,-4.1544 45.0805,-23.2798 44.77565,-51.46682 -0.18665,-17.25737 -8.92778,-39.04129 -21.85202,-54.45779 -2.55544,-3.04822 -3.45544,-4.67813 -2,-3.62203 1.45543,1.0561 -2.15376,-3.01648 -8.02043,-9.05017 -12.97824,-13.34772 -25.61737,-22.28203 -43.67633,-30.87375 -75.07968,-35.719911 -154.05225,-1.10613 -196.22059,86.00374 -28.076872,58.00022 -34.49035,130.79196 -17.45955,198.16257 10.060745,39.79841 26.26891,72.72436 50.13059,101.83744 8.3267,10.1592 22.02132,24.01074 26.16148,26.46126 1.42985,0.84631 7.94004,5.11504 14.46709,9.48607 29.8651,20.00005 61.52214,27.6731 110.59732,26.80662 20.78069,-0.3669 25.78698,-0.89367 37.32198,-3.92706 z"
       id="path1" />
  </g>
</svg>
