<?xml version="1.0" encoding="UTF-8" standalone="no"?>
<!-- Created with Inkscape (http://www.inkscape.org/) -->

<svg
   version="1.1"
   id="svg1"
   width="533.33331"
   height="666.66669"
   viewBox="0 0 533.33331 666.66669"
   sodipodi:docname="H.svg"
   inkscape:version="1.4.3 (0d15f75042, 2025-12-25)"
   inkscape:export-filename="F.png"
   inkscape:export-xdpi="96"
   inkscape:export-ydpi="96"
   xml:space="preserve"
   xmlns:inkscape="http://www.inkscape.org/namespaces/inkscape"
   xmlns:sodipodi="http://sodipodi.sourceforge.net/DTD/sodipodi-0.dtd"
   xmlns="http://www.w3.org/2000/svg"
   xmlns:svg="http://www.w3.org/2000/svg"><defs
     id="defs1" /><sodipodi:namedview
     id="namedview1"
     pagecolor="#505050"
     bordercolor="#ffffff"
     borderopacity="1"
     inkscape:showpageshadow="0"
     inkscape:pageopacity="0"
     inkscape:pagecheckerboard="1"
     inkscape:deskcolor="#505050"
     inkscape:zoom="0.57599998"
     inkscape:cx="265.62501"
     inkscape:cy="332.46529"
     inkscape:window-width="1706"
     inkscape:window-height="1030"
     inkscape:window-x="0"
     inkscape:window-y="0"
     inkscape:window-maximized="0"
     inkscape:current-layer="g1" /><g
     inkscape:groupmode="layer"
     inkscape:label="Image"
     id="g1"><g
       id="g17"><path
         style="fill-opacity:1;fill:#014a5d"
         d="m 229.6208,647.01775 c -1.55563,-4.05389 -1.50859,-10.20951 0.1859,-24.33018 l 1.41616,-11.80131 -7.86285,-2.32235 c -17.41765,-5.14444 -29.13245,-13.25437 -53.48398,-37.02596 -26.73829,-26.1015 -38.67754,-42.44492 -47.25455,-64.68584 -7.30003,-18.92962 -10.62431,-37.15705 -10.62431,-58.25445 V 431.32313 L 96.723796,415.715 C 79.818932,398.43963 73.445062,387.17131 66.729823,362.68889 c -3.284806,-11.97575 -3.973563,-19.40002 -4.091202,-44.1 -0.131462,-27.60215 0.161538,-30.37044 4.148078,-39.19155 4.748117,-10.50627 12.50179,-18.07672 20.06307,-19.58897 l 4.94996,-0.99 -7.971575,-15.56474 C 73.051944,222.21275 69.957105,206.54766 71.507205,180.88889 72.913366,157.61272 76.454459,138.63832 82.281199,123.1581 94.61681,90.385397 121.38535,64.280908 150.69717,56.439321 c 25.75452,-6.889927 47.43605,0.496833 74.20673,25.281761 l 11.12697,10.30161 14.03315,-14.190695 c 18.34654,-18.552515 33.28963,-26.329203 50.69514,-26.382791 16.14194,-0.0497 26.72226,5.651643 47.29899,25.487664 19.56749,18.863118 28.58294,31.98901 34.59609,50.3696 12.3765,37.83167 12.49031,78.25966 0.32024,113.76075 l -4.5862,13.37834 15.23319,15.56706 c 8.37825,8.56188 16.07525,17.78186 17.10444,20.48884 1.02919,2.70698 1.86711,9.93155 1.86204,16.0546 -0.007,8.5725 -1.00754,12.78217 -4.35011,18.30452 l -4.34088,7.1717 14.86691,15.42206 c 20.18777,20.94161 30.47251,37.90215 39.57203,65.25808 15.08742,45.3574 8.7744,115.97258 -13.77275,154.057 -8.01427,13.53693 -27.35725,32.97399 -38.26598,38.45211 -24.87618,12.49225 -47.95944,11.16104 -81,-4.67127 l -16.2,-7.76269 -8.1,5.97587 c -13.4643,9.93343 -25.58056,13.72436 -44.54745,13.93796 -15.3484,0.17286 -16.65549,0.4684 -16.7505,3.78749 -0.0567,1.98 -0.26032,10.08 -0.45255,18 -0.3264,13.44821 -0.61772,14.43808 -4.40755,14.97624 -2.52562,0.35864 -4.4962,-0.56555 -5.21832,-2.44738 z"
         id="path20" /><path
         style="fill-opacity:1;fill:#15cffd"
         d="m 363.99717,568.38673 c 14.71185,-4.55488 31.49383,-19.17544 40.89548,-35.62838 16.73146,-29.28015 24.30196,-78.92762 17.72971,-116.27181 -5.84267,-33.19869 -18.19096,-59.12401 -36.38919,-76.39933 -12.00361,-11.39486 -22.3188,-16.88959 -40.47297,-21.55928 -14.13187,-3.63506 -19.56303,-7.44351 -19.56303,-13.71802 0,-4.05771 0.5292,-4.22102 13.67797,-4.22102 21.67496,0 31.32203,-6.37553 31.32203,-20.7 0,-8.47701 -3.80693,-14.78342 -10.44846,-17.30853 -3.65193,-1.38846 -8.0151,-0.72097 -19.78476,3.02672 -17.08208,5.43928 -22.40762,4.59104 -25.71006,-4.09505 -2.34103,-6.15737 -0.77767,-9.76256 9.25733,-21.34782 15.81435,-18.25745 23.34876,-41.40868 24.5629,-75.47532 0.68515,-19.22397 0.16955,-26.41025 -2.88916,-40.26762 C 332.0619,60.437089 293.82953,50.082228 254.44698,99.574944 l -9.08985,11.423366 3.48221,16.94529 c 7.92417,38.56098 5.78091,83.80865 -6.21672,131.24529 -0.92602,3.66133 -0.11929,5.17093 4.32868,8.1 6.13118,4.03749 8.57568,9.29018 5.6739,12.19196 -2.40566,2.40567 -26.72203,6.48506 -39.41662,6.61266 -8.44599,0.0849 -9.71633,-0.40445 -11.56118,-4.45345 -2.61921,-5.74854 -1.2594,-7.12049 11.22045,-11.32063 l 9.82932,-3.30809 4.91907,-19.66123 c 7.00575,-28.00161 11.02753,-56.29059 11.112,-78.16122 C 238.87222,131.9097 223.98265,98.732611 199.64094,82.094139 174.01098,64.575107 146.48959,69.174708 120.99717,95.237727 100.27883,116.4198 90.972909,141.73043 89.173687,181.79251 c -1.513856,33.70801 1.242101,42.87066 23.058113,76.66068 10.63692,16.47513 12.97842,24.60265 8.40537,29.1757 -3.56264,3.56264 -7.71012,2.49645 -16.03669,-4.12253 -9.390014,-7.46435 -14.473193,-7.93053 -19.317763,-1.77166 -15.100359,19.197 -2.965613,102.35931 16.828363,115.32883 4.04793,2.6523 4.8966,2.67041 8.68908,0.18549 2.45289,-1.6072 5.86911,-7.32341 8.20431,-13.72792 7.55771,-20.72772 17.09729,-25.50156 22.95321,-11.48635 2.48445,5.94612 2.33412,7.02032 -2.68366,19.17655 -7.77159,18.8277 -10.06543,31.84953 -9.87826,56.07759 0.26746,34.62192 7.39928,58.45728 24.69196,82.5234 20.022,27.8645 43.76065,40.7766 74.96698,40.7766 19.85929,0 29.18798,-3.74148 42.28289,-16.9585 21.23352,-21.43152 30.00253,-46.29457 30.20509,-85.6415 0.14474,-28.11312 -2.29882,-39.88979 -12.88568,-62.10242 -8.8884,-18.64903 -24.45939,-36.56818 -46.59073,-53.61679 -20.87335,-16.07952 -31.91212,-27.08762 -30.59778,-30.51276 1.51653,-3.952 13.90927,-6.74823 35.34289,-7.97457 22.12761,-1.26605 25.38579,-0.16414 25.38579,8.58544 0,6.01875 -4.80069,9.75171 -14.91963,11.60132 l -6.81963,1.24655 14.35247,13.33372 c 18.19773,16.90605 28.97981,31.26435 38.93098,51.84365 12.14852,25.12349 16.06403,42.27934 16.04375,70.29586 -0.0208,28.74854 -3.26353,43.00363 -15.19347,66.79064 l -8.56607,17.07984 12.68759,6.38937 c 21.10142,10.6265 37.75045,12.86649 55.28401,7.43799 z"
         id="path19" /></g></g></svg>
