<?xml version="1.0" encoding="UTF-8" standalone="no"?>
<!-- Created with Inkscape (http://www.inkscape.org/) -->

<svg
   version="1.1"
   id="svg1"
   width="533.33331"
   height="666.66669"
   viewBox="0 0 533.33331 666.66669"
   sodipodi:docname="I.svg"
   inkscape:version="1.4.3 (0d15f75042, 2025-12-25)"
   inkscape:export-filename="H.png"
   inkscape:export-xdpi="96"
   inkscape:export-ydpi="96"
   xml:space="preserve"
   xmlns:inkscape="http://www.inkscape.org/namespaces/inkscape"
   xmlns:sodipodi="http://sodipodi.sourceforge.net/DTD/sodipodi-0.dtd"
   xmlns="http://www.w3.org/2000/svg"
   xmlns:svg="http://www.w3.org/2000/svg"><defs
     id="defs1" /><sodipodi:namedview
     id="namedview1"
     pagecolor="#505050"
     bordercolor="#ffffff"
     borderopacity="1"
     inkscape:showpageshadow="0"
     inkscape:pageopacity="0"
     inkscape:pagecheckerboard="1"
     inkscape:deskcolor="#505050"
     inkscape:zoom="0.57599998"
     inkscape:cx="265.62501"
     inkscape:cy="332.46529"
     inkscape:window-width="1706"
     inkscape:window-height="1030"
     inkscape:window-x="0"
     inkscape:window-y="0"
     inkscape:window-maximized="0"
     inkscape:current-layer="g1" /><g
     inkscape:groupmode="layer"
     inkscape:label="Image"
     id="g1"><g
       id="g20"><path
         style="fill-opacity:1;fill:#014a5d"
         d="m 250.71809,631.39275 c -1.44561,-3.76719 -1.38597,-8.89363 0.30336,-26.07781 l 1.33196,-13.54894 -10.05417,-3.1693 c -5.5298,-1.74312 -13.93556,-6.25776 -18.67948,-10.03255 -14.89689,-11.85361 -37.49978,-36.8567 -45.0477,-49.83129 -15.78072,-27.12647 -23.88161,-62.65619 -23.87185,-104.6996 0.0112,-48.35817 11.46203,-89.87411 34.50191,-125.08988 l 9.10748,-13.92051 -9.5041,-10.37949 c -25.49156,-27.8395 -35.65212,-55.95944 -33.58833,-92.95762 1.59038,-28.51138 9.51728,-49.34112 26.97226,-70.87587 35.63017,-43.958032 95.96894,-56.258002 145.80369,-29.721867 13.71907,7.305166 51.59996,41.999167 63.38247,58.050157 8.59738,11.71197 16.2132,27.57082 19.90846,41.45647 4.09692,15.39495 4.18268,45.44604 0.17456,61.16924 -7.56241,29.66609 -26.68818,56.33618 -53.01787,73.9312 -19.90466,13.30146 -20.4985,14.89504 -8.00141,21.47189 12.79737,6.73486 47.39507,41.01333 54.04365,53.54498 8.33884,15.71756 11.49862,28.90485 11.43993,47.74447 -0.0825,26.48313 -6.31943,50.40746 -19.92339,76.42438 -15.64907,29.92812 -41.25089,57.72864 -63.34835,68.78877 -17.96012,8.98933 -29.80285,11.35817 -53.01202,10.60374 -11.57565,-0.37627 -18.86579,0.0792 -19.05468,1.19057 -0.16826,0.99 -0.36985,9.9 -0.44797,19.8 -0.13618,17.25728 -0.30949,18.02377 -4.20009,18.57624 -2.52562,0.35864 -4.4962,-0.56555 -5.21832,-2.44738 z"
         id="path24" /><path
         style="fill-opacity:1;fill:#15cffd"
         d="m 301.00472,287.73678 c 33.06984,-11.35543 61.00967,-42.10766 68.93762,-75.8768 3.93459,-16.75943 2.65406,-45.98277 -2.67277,-60.99609 -10.45485,-29.46631 -36.26331,-53.783007 -66.65181,-62.799262 -14.25735,-4.230146 -41.60985,-3.868813 -56.55443,0.747098 -29.53963,9.123862 -55.78316,35.426674 -67.17218,67.323914 -7.10258,19.8922 -6.11239,52.93936 2.20691,73.65476 11.72178,29.1877 41.12893,54.40614 70.47716,60.43848 11.99573,2.46564 41.09818,1.05544 51.4295,-2.4921 z"
         id="path23" /><path
         style="fill-opacity:1;fill:#15cffd"
         d="m 282.61776,550.2922 c 23.12756,-6.79319 44.53027,-24.09482 62.40802,-50.44969 42.51815,-62.67905 37.54711,-137.1863 -10.00724,-149.99136 -9.46384,-2.54834 -20.69971,-0.66703 -41.62425,6.96948 -17.70889,6.46294 -19.89983,6.70422 -19.89983,2.19148 0,-2.46672 4.75632,-5.64681 18.01238,-12.04315 20.51695,-9.89988 19.77134,-7.50179 9.18932,-29.55522 l -6.5017,-13.54985 -22.5,-1.02543 c -17.86612,-0.81425 -25.38081,-2.01906 -36.4879,-5.85 -7.69334,-2.65352 -15.17655,-4.82457 -16.62935,-4.82457 -3.9185,0 -18.33229,20.43583 -26.15147,37.07749 -17.89507,38.08629 -24.62267,83.11041 -18.92664,126.66546 5.5718,42.6051 21.51583,77.40941 40.20899,87.77242 15.15525,8.40168 51.08201,11.84941 68.90967,6.61294 z"
         id="path22" /></g></g></svg>
