<?xml version="1.0" encoding="UTF-8" standalone="no"?>
<!-- Created with Inkscape (http://www.inkscape.org/) -->

<svg
   version="1.1"
   id="svg1"
   width="533.33331"
   height="666.66669"
   viewBox="0 0 533.33331 666.66669"
   sodipodi:docname="J.svg"
   inkscape:version="1.4.3 (0d15f75042, 2025-12-25)"
   inkscape:export-filename="I.png"
   inkscape:export-xdpi="96"
   inkscape:export-ydpi="96"
   xml:space="preserve"
   xmlns:inkscape="http://www.inkscape.org/namespaces/inkscape"
   xmlns:sodipodi="http://sodipodi.sourceforge.net/DTD/sodipodi-0.dtd"
   xmlns="http://www.w3.org/2000/svg"
   xmlns:svg="http://www.w3.org/2000/svg"><defs
     id="defs1" /><sodipodi:namedview
     id="namedview1"
     pagecolor="#505050"
     bordercolor="#ffffff"
     borderopacity="1"
     inkscape:showpageshadow="0"
     inkscape:pageopacity="0"
     inkscape:pagecheckerboard="1"
     inkscape:deskcolor="#505050"
     inkscape:zoom="0.57599998"
     inkscape:cx="265.62501"
     inkscape:cy="332.46529"
     inkscape:window-width="1706"
     inkscape:window-height="1030"
     inkscape:window-x="0"
     inkscape:window-y="0"
     inkscape:window-maximized="0"
     inkscape:current-layer="g1" /><g
     inkscape:groupmode="layer"
     inkscape:label="Image"
     id="g1"><g
       id="g24"><path
         style="fill-opacity:1;fill:#014a5d"
         d="m 246.03755,638.3372 c -1.38572,-3.61112 -1.33812,-7.34763 0.37169,-29.17887 1.12716,-14.39181 0.92606,-16.65 -1.4827,-16.65 -5.86946,0 -38.9957,-18.32159 -56.21262,-31.0903 -21.73068,-16.11628 -53.38913,-48.27935 -64.63796,-65.66828 -24.378436,-37.68519 -38.891937,-81.1391 -38.84068,-116.29026 0.04652,-31.90409 12.008478,-53.90306 35.07864,-64.51233 7.74885,-3.56347 11.87763,-4.1353 29.7,-4.1134 22.55784,0.0277 33.81076,2.79749 57.6,14.17761 9.00027,4.30549 13.64689,5.47143 20.13742,5.05293 l 8.43742,-0.54402 -9.82004,-19.23852 c -20.26434,-39.70001 -32.86652,-79.58771 -36.85808,-116.66104 -2.37296,-22.03988 -1.25814,-40.95438 3.79456,-64.38001 6.40664,-29.702893 15.90343,-44.21427 34.85458,-53.258817 39.34781,-18.77898 102.40635,-6.310861 161.22207,31.877297 18.8874,12.2633 60.092,52.27179 71.51809,69.44202 25.50344,38.32456 17.04112,74.80823 -23.09825,99.58366 -13.88352,8.5694 -14.60313,11.65623 -6.36989,27.32411 35.09924,66.79398 28.95129,152.27499 -15.96086,221.9195 -33.7171,52.28454 -96.03395,82.33312 -149.35561,72.01783 -4.94922,-0.95745 -9.40422,-1.33083 -9.9,-0.82973 -0.49578,0.50109 -0.90141,10.35672 -0.90141,21.90141 0,20.40969 -0.11226,21.00628 -4.05805,21.56658 -2.52562,0.35864 -4.4962,-0.56555 -5.21832,-2.44737 z"
         id="path27" /><path
         style="fill-opacity:1;fill:#15cffd"
         d="m 298.51392,552.2398 c 47.43088,-15.28115 84.83467,-56.97166 103.37858,-115.22644 9.23419,-29.00876 11.97015,-51.62807 9.49361,-78.48751 -1.14191,-12.38464 -3.73902,-28.59252 -5.77135,-36.01752 -5.23015,-19.10798 -21.57003,-50.84494 -34.02708,-66.09082 -5.82104,-7.12423 -12.29147,-15.71636 -14.37874,-19.09362 -4.39923,-7.11811 -5.03108,-17.05423 -1.17851,-18.5326 3.58249,-1.37473 7.66735,1.79705 20.3765,15.82175 l 10.87864,12.00472 13.42844,-7.86071 c 23.26229,-13.6172 35.80553,-33.07244 32.6889,-50.70221 -5.07441,-28.70437 -35.56379,-59.80286 -79.06354,-80.64307 -32.9499,-15.785908 -57.60317,-22.503442 -82.58735,-22.503442 -33.20304,0 -50.87014,11.38084 -58.75213,37.847102 -20.04192,67.29702 4.24822,156.62881 65.00978,239.08628 6.82234,9.25835 12.38623,18.16835 12.36422,19.8 -0.0421,3.1183 -4.19213,8.75826 -9.27126,12.59969 -2.5995,1.96604 -5.33362,0.32492 -19.99342,-12.00072 -45.61084,-38.34861 -78.10138,-54.33235 -110.44271,-54.33235 -28.67798,0 -42.83335,11.7823 -47.27261,39.34762 -6.803041,42.243 24.46766,120.21259 59.2347,147.69435 49.65606,39.25086 92.93449,51.12728 135.88533,37.2895 z"
         id="path26" /></g></g></svg>
