<?xml version="1.0" encoding="UTF-8" standalone="no"?>
<!-- Created with Inkscape (http://www.inkscape.org/) -->

<svg
   version="1.1"
   id="svg1"
   width="533.33331"
   height="666.66669"
   viewBox="0 0 533.33331 666.66669"
   sodipodi:docname="K.svg"
   inkscape:version="1.4.3 (0d15f75042, 2025-12-25)"
   inkscape:export-filename="J.png"
   inkscape:export-xdpi="96"
   inkscape:export-ydpi="96"
   xml:space="preserve"
   xmlns:inkscape="http://www.inkscape.org/namespaces/inkscape"
   xmlns:sodipodi="http://sodipodi.sourceforge.net/DTD/sodipodi-0.dtd"
   xmlns="http://www.w3.org/2000/svg"
   xmlns:svg="http://www.w3.org/2000/svg"><defs
     id="defs1" /><sodipodi:namedview
     id="namedview1"
     pagecolor="#505050"
     bordercolor="#ffffff"
     borderopacity="1"
     inkscape:showpageshadow="0"
     inkscape:pageopacity="0"
     inkscape:pagecheckerboard="1"
     inkscape:deskcolor="#505050"
     inkscape:zoom="0.57599998"
     inkscape:cx="265.62501"
     inkscape:cy="332.46529"
     inkscape:window-width="1706"
     inkscape:window-height="1030"
     inkscape:window-x="0"
     inkscape:window-y="0"
     inkscape:window-maximized="0"
     inkscape:current-layer="g1" /><g
     inkscape:groupmode="layer"
     inkscape:label="Image"
     id="g1"><g
       id="g27"><path
         style="fill-opacity:1;fill:#014a5d"
         d="m 236.56526,636.60108 c -1.51443,-3.94654 -1.40505,-8.10321 0.92175,-35.02887 1.06939,-12.375 1.96916,-31.47285 1.99948,-42.43966 0.0491,-17.77476 -0.4791,-21.1948 -4.86537,-31.5 -4.30411,-10.11219 -4.92419,-13.92791 -4.95,-30.46034 -0.0252,-16.12645 0.72256,-21.0911 5.09531,-33.83101 6.10981,-17.80083 5.54409,-24.30666 -2.03758,-23.43249 l -4.88722,0.5635 -1.17046,38.7 c -1.23519,40.84039 -3.60087,57.56371 -11.45559,80.98115 -6.45458,19.24318 -11.42077,27.09198 -21.36665,33.76885 -7.47948,5.02114 -10.27931,5.84905 -19.76073,5.84328 -8.07578,-0.005 -12.74086,-1.035 -17.34657,-3.83023 C 145.65527,589.2069 133.04254,577.70464 118.51278,561.07221 88.73355,526.98351 66.439121,469.26778 47.112188,376.23066 37.965634,332.20044 36.06041,313.12812 34.919192,254.17221 33.550663,183.47332 36.401319,159.56895 49.655928,130.59634 63.529296,100.27121 86.426952,86.445574 111.94863,92.983925 c 15.6432,4.007602 21.24939,7.855375 44.52388,30.558745 21.31451,20.79148 31.74895,34.25289 39.24869,50.63448 l 4.44587,9.71106 8.66063,-10.4068 c 14.88437,-17.88539 37.65308,-36.19289 56.81393,-45.68204 13.93126,-6.89928 25.63399,-9.52908 42.3,-9.50556 20.03794,0.0283 26.27532,3.33908 49.01872,26.01911 12.68902,12.65367 18.72798,20.20425 21.90503,27.38811 15.66682,35.42547 8.35925,87.60815 -18.4477,131.73329 -4.11183,6.7682 -7.47605,12.518 -7.47605,12.77732 0,0.25932 3.8475,1.91992 8.55,3.69023 6.08972,2.29254 13.66673,8.18989 26.33175,20.49454 19.80414,19.24065 24.592,27.37984 24.76788,42.10452 l 0.11472,9.60454 9.26913,1.94422 c 18.57837,3.89686 29.58441,10.81887 52.08053,32.75494 27.76933,27.078 32.71269,36.21802 31.55171,58.33755 -0.65941,12.56337 -1.85547,17.29236 -7.24278,28.6365 -22.5789,47.54475 -57.13426,76.51293 -107.20296,89.86954 -17.9918,4.7996 -48.19837,5.19288 -66.00368,0.85936 -22.55118,-5.4886 -34.06377,-12.53716 -57.07286,-34.94273 l -20.95656,-20.40688 -1.3221,13.15712 c -0.72716,7.23642 -1.01671,27.33212 -0.64344,44.65712 l 0.67866,31.5 -4.05805,0.57625 c -2.52562,0.35864 -4.4962,-0.56556 -5.21832,-2.44738 z"
         id="path30" /><path
         style="fill-opacity:1;fill:#15cffd"
         d="m 371.84163,559.39142 c 38.15608,-13.19603 65.9045,-37.58851 83.76662,-73.63577 13.3315,-26.90409 11.44173,-44.53185 -6.46364,-60.29279 -11.77636,-10.36597 -25.3191,-15.06361 -46.32975,-16.07066 -28.15303,-1.34939 -30.0509,-0.4248 -55.84481,27.20593 -33.6933,36.09266 -40.12173,42.57408 -42.22594,42.57408 -2.97411,0 -7.60315,-5.28804 -7.59703,-8.67857 0.003,-1.66178 8.18668,-11.93143 18.18596,-22.82143 54.61407,-59.47899 69.55617,-98.49041 42.43922,-110.80191 -14.08319,-6.39398 -46.98392,-4.2902 -82.96857,5.3053 -18.83544,5.02256 -29.0712,5.03768 -31.7422,0.0469 -2.693,-5.03191 1.18631,-9.23982 12.31826,-13.36172 35.60819,-13.18487 66.32596,-49.34952 82.19261,-96.76699 14.16924,-42.34479 7.54566,-84.99702 -14.63888,-94.26631 -14.47379,-6.04754 -41.30124,-0.3661 -61.59923,13.04529 -32.24151,21.30278 -55.65746,50.8117 -64.11607,80.79946 -5.18758,18.39117 -10.53074,23.35071 -15.99865,14.85 -1.43279,-2.2275 -4.32532,-13.77 -6.42784,-25.65 -9.71694,-54.90421 -30.76432,-95.03943 -56.43031,-107.60684 -16.68167,-8.16821 -29.209428,-5.92846 -41.206682,7.36705 -21.529707,23.8595 -27.370193,58.357 -24.741716,146.13979 1.582779,52.85982 3.84871,71.63063 14.449677,119.7 13.510844,61.26403 25.245893,97.25845 42.784161,131.23008 17.21463,33.34472 32.67034,45.64015 48.11371,38.27573 6.75017,-3.21893 10.0611,-8.72256 16.36357,-27.20048 8.1422,-23.87175 10.14457,-40.23627 10.33775,-84.48576 0.17072,-39.10551 0.36117,-41.29692 3.77978,-43.49248 5.55115,-3.56514 75.85848,-13.44809 95.33158,-13.40055 10.91844,0.0267 18.98252,2.64837 20.28321,6.59427 0.38449,1.16645 -5.32735,8.66542 -12.69299,16.66439 -17.0075,18.46988 -30.8451,38.46862 -37.92572,54.81199 -4.96486,11.4598 -5.54929,14.69391 -5.57139,30.83049 -0.0229,16.74786 0.39323,18.87734 5.86229,29.99601 9.01809,18.33393 23.51912,29.25544 47.39279,35.69408 19.90426,5.36811 51.20042,4.2214 70.92023,-2.59856 z"
         id="path29" /></g></g></svg>
