<?xml version="1.0" encoding="UTF-8" standalone="no"?>
<!-- Created with Inkscape (http://www.inkscape.org/) -->

<svg
   version="1.1"
   id="svg1"
   width="533.33331"
   height="666.66669"
   viewBox="0 0 533.33331 666.66669"
   sodipodi:docname="L.svg"
   inkscape:version="1.4.3 (0d15f75042, 2025-12-25)"
   inkscape:export-filename="K.png"
   inkscape:export-xdpi="96"
   inkscape:export-ydpi="96"
   xml:space="preserve"
   xmlns:inkscape="http://www.inkscape.org/namespaces/inkscape"
   xmlns:sodipodi="http://sodipodi.sourceforge.net/DTD/sodipodi-0.dtd"
   xmlns="http://www.w3.org/2000/svg"
   xmlns:svg="http://www.w3.org/2000/svg"><defs
     id="defs1" /><sodipodi:namedview
     id="namedview1"
     pagecolor="#505050"
     bordercolor="#ffffff"
     borderopacity="1"
     inkscape:showpageshadow="0"
     inkscape:pageopacity="0"
     inkscape:pagecheckerboard="1"
     inkscape:deskcolor="#505050"
     inkscape:zoom="0.57599998"
     inkscape:cx="265.62501"
     inkscape:cy="332.46529"
     inkscape:window-width="1706"
     inkscape:window-height="1030"
     inkscape:window-x="0"
     inkscape:window-y="0"
     inkscape:window-maximized="0"
     inkscape:current-layer="g1" /><g
     inkscape:groupmode="layer"
     inkscape:label="Image"
     id="g1"><g
       id="g30"><path
         style="fill-opacity:1;fill:#014a5d"
         d="m 249.35688,636.60108 c -1.55421,-4.0502 -1.50873,-10.21026 0.17913,-24.26409 l 1.40939,-11.73523 -16.85607,-3.18282 c -11.01545,-2.07996 -22.15752,-5.73318 -32.15608,-10.54319 -13.71504,-6.59791 -17.81728,-9.90062 -39.6,-31.88196 -19.92116,-20.10282 -25.65652,-27.11644 -31.82789,-38.92158 -7.86349,-15.04196 -13.72043,-34.59949 -16.63934,-55.56213 -1.69806,-12.19489 -1.90553,-12.55139 -15.336402,-26.35289 -15.771022,-16.20623 -21.302368,-26.88137 -24.510293,-47.3033 -2.682073,-17.0743 -1.298812,-45.83926 2.743741,-57.05617 5.371772,-14.9051 17.739979,-23.26999 30.787504,-20.82226 4.78653,0.89796 6.18268,0.55684 6.18268,-1.51058 0,-8.22849 8.10053,-64.4691 11.87791,-82.46628 4.68878,-22.33956 14.45301,-53.01466 23.88987,-75.05189 17.21156,-40.19296 40.17439,-61.795815 65.93222,-62.027384 15.19413,-0.136599 21.7149,3.904186 45.05791,27.921414 22.05273,22.68969 29.41021,35.04335 37.48983,62.94772 8.90796,30.76521 14.89854,89.05664 12.61652,122.76529 l -1.19701,17.68154 6.11637,-1.08372 c 15.12083,-2.67916 47.29945,-4.02392 62.57001,-2.61484 35.1515,3.24358 52.08241,12.36401 84.45777,45.49615 26.87224,27.50038 31.9472,37.46173 31.75976,62.33933 -0.15611,20.71926 -5.00852,36.09953 -18.03737,57.17154 -11.00623,17.80075 -42.65141,49.4976 -65.53379,65.64078 -41.777,29.47307 -93.70815,49.76415 -135.42084,52.91304 -15.44,1.16557 -15.78279,1.29202 -15.94802,5.88291 -0.0929,2.58045 -0.29537,11.17173 -0.45,19.09173 -0.26303,13.47238 -0.54255,14.43712 -4.33919,14.97625 -2.52562,0.35864 -4.49619,-0.56556 -5.21832,-2.44738 z"
         id="path33" /><path
         style="fill-opacity:1;fill:#15cffd"
         d="m 260.99691,555.63899 c 52.0749,-8.44556 109.09997,-38.05807 148.98589,-77.36678 34.11435,-33.62065 48.58016,-67.92666 40.60682,-96.3 -5.25724,-18.70801 -26.54453,-38.2458 -49.52366,-45.45354 -11.04389,-3.46408 -16.59639,-4.00112 -39.83271,-3.85266 -16.77167,0.10715 -33.47794,1.333 -44.1,3.23589 -16.68395,2.98886 -62.54527,13.92281 -68.87041,16.41963 -1.74373,0.68833 -0.40943,-1.50948 2.96511,-4.88401 12.79501,-12.79502 18.26019,-45.48528 16.79584,-100.46531 -1.07488,-40.3568 -4.83081,-67.29952 -13.05333,-93.6365 -15.47852,-49.57814 -38.79858,-61.717699 -65.6341,-34.16668 -11.2533,11.55333 -19.47477,26.24274 -29.54832,52.79434 -14.79755,39.00305 -20.31599,65.44091 -28.99479,138.90884 -4.91496,41.60613 -7.36228,50.212 -12.95925,45.57046 -3.87303,-3.21188 -7.70075,-12.78791 -7.70075,-19.26543 0,-7.93435 -1.73375,-11.00503 -6.2136,-11.00503 -8.975026,0 -13.985371,13.53617 -14.003518,37.83252 -0.01744,23.34481 4.500076,41.5933 12.203728,49.29695 4.54781,4.54781 5.76811,3.56138 10.01993,-8.09964 4.19259,-11.49857 8.34245,-14.91874 15.09346,-12.43948 3.43301,1.26074 3.60603,3.02417 3.7299,38.01586 0.11409,32.23088 0.61686,38.41785 4.13373,50.86887 16.76382,59.35014 59.89239,84.69689 125.90003,73.9917 z"
         id="path32" /></g></g></svg>
