<?xml version="1.0" encoding="UTF-8" standalone="no"?>
<!-- Created with Inkscape (http://www.inkscape.org/) -->

<svg
   version="1.1"
   id="svg1"
   width="533.33331"
   height="666.66669"
   viewBox="0 0 533.33331 666.66669"
   sodipodi:docname="M.svg"
   inkscape:version="1.4.3 (0d15f75042, 2025-12-25)"
   inkscape:export-filename="M.png"
   inkscape:export-xdpi="96"
   inkscape:export-ydpi="96"
   xmlns:inkscape="http://www.inkscape.org/namespaces/inkscape"
   xmlns:sodipodi="http://sodipodi.sourceforge.net/DTD/sodipodi-0.dtd"
   xmlns="http://www.w3.org/2000/svg"
   xmlns:svg="http://www.w3.org/2000/svg">
  <defs
     id="defs1" />
  <sodipodi:namedview
     id="namedview1"
     pagecolor="#505050"
     bordercolor="#ffffff"
     borderopacity="1"
     inkscape:showpageshadow="0"
     inkscape:pageopacity="0"
     inkscape:pagecheckerboard="1"
     inkscape:deskcolor="#505050"
     inkscape:zoom="0.55875002"
     inkscape:cx="266.66666"
     inkscape:cy="332.88589"
     inkscape:window-width="990"
     inkscape:window-height="1030"
     inkscape:window-x="0"
     inkscape:window-y="0"
     inkscape:window-maximized="0"
     inkscape:current-layer="g1" />
  <g
     inkscape:groupmode="layer"
     inkscape:label="Image"
     id="g1">
    <path
       style="fill-opacity:1;fill:#014a5d"
       d="m 231.85862,636.05393 c -1.22741,-4.09671 -1.21707,-7.009 0.0462,-13 0.89535,-4.24632 1.95554,-19.72058 2.35598,-34.38725 l 0.72808,-26.66666 -8.17653,10.89887 C 206.40963,600.09457 181.28374,609.89193 153.54343,601.4687 146.94605,599.46543 135.06645,592.49091 126,585.29793 112.20915,574.3568 81.094418,541.4531 72.989072,529.2391 50.784496,495.77888 34.637076,446.75975 27.122243,390.00001 23.899366,365.65753 23.886897,305.31158 27.099376,279.33334 33.818844,224.99527 47.521567,180.87512 68.21308,146.95508 c 13.517726,-22.15991 30.784871,-40.35746 45.2487,-47.686834 21.45479,-10.871967 48.36976,-8.961653 68.88535,4.889194 8.99354,6.07188 43.16581,39.98217 52.24309,51.84256 9.70963,12.68663 13.92287,19.39936 20.39646,32.49654 l 5.18815,10.49654 4.66593,-13.82987 c 5.79635,-17.18042 16.78756,-39.89499 25.88576,-53.49581 3.80156,-5.68294 11.86869,-15.02459 17.92694,-20.75923 14.12911,-13.37438 26.36711,-19.698425 42.19135,-21.802574 10.01681,-1.331937 12.30395,-1.191819 22.41238,1.373064 18.41728,4.673148 26.65205,10.48687 54.84253,38.71865 25.95646,25.9945 32.79248,34.81962 43.38294,56.00615 16.45541,32.91956 31.62452,87.1831 37.309,133.46322 3.02944,24.66416 3.06582,73.24481 0.0729,97.28602 -4.50495,36.18647 -14.40632,77.06079 -24.78653,102.32255 -16.41252,39.94226 -44.43524,71.15835 -71.16815,79.27822 -7.52391,2.28532 -11.49624,2.67462 -21.79463,2.13595 -11.48168,-0.60057 -13.61755,-1.16418 -24.18782,-6.38266 -10.44872,-5.15847 -13.57854,-7.71199 -31.6824,-25.84867 -21.40768,-21.44648 -29.77429,-32.63792 -39.96472,-53.45807 -7.86096,-16.06082 -15.67314,-40.4566 -19.21359,-60.00001 -3.50587,-19.3525 -4.30459,-22.30647 -6.20166,-22.93603 -0.97841,-0.3247 -1.77495,4.64187 -2.38739,14.8858 -1.83163,30.63667 -8.52836,62.12755 -18.15733,85.38357 -3.03632,7.33333 -6.102,16.03333 -6.81263,19.33333 -0.73996,3.43618 -1.08024,23.19604 -0.79634,46.24306 0.27264,22.13368 -0.0307,41.18368 -0.67407,42.33334 -0.64338,1.14965 -2.61588,2.09027 -4.38333,2.09027 -2.58848,0 -3.52124,-1.02692 -4.79531,-5.27942 z"
       id="path2" />
    <path
       style="fill-opacity:1;fill:#15cffd"
       d="m 164.47604,560.07065 c 19.01343,-9.12149 36.49685,-33.26402 47.91032,-66.15849 8.50887,-24.52318 13.90681,-54.60337 14.5991,-81.35382 l 0.34786,-13.44167 -4.81349,-5.89166 c -8.18641,-10.02008 -17.30186,-25.03111 -22.55504,-37.14293 -6.18525,-14.26081 -11.9648,-32.28055 -11.9648,-37.30442 0,-4.98371 4.6832,-10.77765 8.7115,-10.77765 4.13739,0 8.4431,4.68824 8.40441,9.15108 -0.0366,4.22463 11.80831,34.47642 18.44163,47.09964 6.89337,13.11812 18.48205,25.28064 26.26336,27.56386 9.45278,2.77368 14.69688,1.17489 22.83294,-6.96117 12.23129,-12.2313 16.74501,-21.64563 26.81296,-55.92426 2.62705,-8.94437 5.523,-17.04234 6.43545,-17.99549 3.24819,-3.39309 13.39926,-1.90156 14.68775,2.15811 0.42225,1.3304 -1.03489,9.70767 -3.23808,18.61616 -6.47632,26.18661 -12.16492,39.46082 -24.84562,57.97671 -8.38091,12.2375 -8.25248,11.03258 -4.39497,41.23307 5.59563,43.80832 17.36268,77.35587 35.92303,102.41563 8.7115,11.76207 12.29718,14.88463 23.96564,20.87025 9.42845,4.83656 10.68986,5.12975 22.07007,5.12975 11.12869,0 12.77922,-0.35996 21.16234,-4.61522 21.55179,-10.93965 46.35026,-44.59597 57.49545,-78.03246 9.44622,-28.3394 17.85932,-69.77063 20.71616,-102.01899 1.8993,-21.43947 0.93053,-62.00733 -1.99547,-83.56184 -7.27996,-53.62811 -25.87949,-111.67209 -45.0018,-140.43817 -3.16865,-4.76667 -6.06544,-9.34092 -6.4373,-10.16501 -1.20515,-2.67074 -9.89561,-11.66744 -18.04987,-18.68591 -38.62844,-33.248004 -81.17365,-14.02247 -109.58012,49.51759 -10.66679,23.85963 -16.8844,45.90567 -22.37656,79.34146 -2.9851,18.17305 -3.79992,21.01948 -6.77249,23.65854 -3.68122,3.26822 -6.10948,3.69373 -9.80186,1.71762 -3.43043,-1.8359 -4.57438,-5.37792 -12.0739,-37.38429 -7.82803,-33.40842 -12.86477,-49.38801 -20.80307,-66 -5.32078,-11.13445 -7.4905,-14.73898 -18.95617,-31.49169 -6.56061,-9.58583 -20.49312,-21.79839 -30.47852,-26.71597 C 158.77032,110.34851 157.07019,110 145.36466,110 c -11.5493,0 -13.52219,0.39036 -21.80877,4.31512 -26.656517,12.62528 -53.503275,54.455 -68.257553,106.35155 -15.228429,53.56433 -19.20274,122.2882 -10.525086,182.00001 6.45114,44.39094 21.669368,89.30328 39.708796,117.18938 5.863763,9.06445 25.548163,31.00483 27.318793,30.44973 0.4762,-0.14929 3.56582,1.55934 6.86582,3.79694 16.19784,10.98315 31.26397,12.94593 45.80938,5.96792 z"
       id="path1" />
  </g>
</svg>
