<?xml version="1.0" encoding="UTF-8" standalone="no"?>
<!-- Created with Inkscape (http://www.inkscape.org/) -->

<svg
   version="1.1"
   id="svg1"
   width="533.33331"
   height="666.66669"
   viewBox="0 0 533.33331 666.66669"
   sodipodi:docname="N.svg"
   inkscape:version="1.4.3 (0d15f75042, 2025-12-25)"
   inkscape:export-filename="L.png"
   inkscape:export-xdpi="96"
   inkscape:export-ydpi="96"
   xml:space="preserve"
   xmlns:inkscape="http://www.inkscape.org/namespaces/inkscape"
   xmlns:sodipodi="http://sodipodi.sourceforge.net/DTD/sodipodi-0.dtd"
   xmlns="http://www.w3.org/2000/svg"
   xmlns:svg="http://www.w3.org/2000/svg"><defs
     id="defs1" /><sodipodi:namedview
     id="namedview1"
     pagecolor="#505050"
     bordercolor="#ffffff"
     borderopacity="1"
     inkscape:showpageshadow="0"
     inkscape:pageopacity="0"
     inkscape:pagecheckerboard="1"
     inkscape:deskcolor="#505050"
     inkscape:zoom="0.57599998"
     inkscape:cx="265.62501"
     inkscape:cy="332.46529"
     inkscape:window-width="1706"
     inkscape:window-height="1030"
     inkscape:window-x="0"
     inkscape:window-y="0"
     inkscape:window-maximized="0"
     inkscape:current-layer="g1" /><g
     inkscape:groupmode="layer"
     inkscape:label="Image"
     id="g1"><g
       id="g33"><path
         style="fill-opacity:1;fill:#014a5d"
         d="m 234.14863,650.48998 c -1.40336,-3.65712 -1.35123,-7.91389 0.34279,-27.98638 l 1.30453,-15.4575 -9.68548,1.30842 c -24.81637,3.35246 -42.74959,-5.33766 -74.14092,-35.9274 C 114.90566,536.30967 98.809372,512.34057 76.309454,459.76111 47.255279,391.86517 32.588234,331.81081 28.003033,261.96999 23.381427,191.57466 34.49057,138.20982 58.834342,113.86605 70.915477,101.78492 82.485594,95.852232 102.47525,91.488778 c 48.23502,-10.529015 88.65767,-6.928033 114.4843,10.198632 10.2271,6.782 35.36985,30.8545 45.7037,43.75824 l 6.31428,7.88455 48.92529,-16.65955 c 41.26062,-14.04965 50.69599,-16.65954 60.22802,-16.65954 15.20639,0 20.15415,2.86245 42.01477,24.30703 21.43626,21.0283 25.41036,28.45502 27.61077,51.59853 0.81631,8.58578 0.69467,31.08519 -0.27392,50.66454 -1.13819,23.00785 -1.12757,39.03745 0.0306,46.22931 1.28373,7.97123 7.43927,22.83936 22.30677,53.8799 22.87239,47.75324 28.05082,61.2467 34.06782,88.77069 5.46589,25.00296 5.86959,70.43202 0.7758,87.3 -11.68477,38.69379 -41.00584,67.72795 -78.5385,77.76998 -17.09028,4.57258 -53.71361,4.05655 -72.63753,-1.02348 -16.87907,-4.5311 -43.31683,-16.75757 -58.4344,-27.02371 -10.42906,-7.08225 -16.92402,-8.93695 -21.1697,-6.04523 -1.0679,0.72734 -4.21034,5.53121 -6.98319,10.67526 -5.42885,10.07133 -14.07947,20.30612 -19.87518,23.51486 -3.33012,1.8437 -3.6,3.85748 -3.6,26.86271 0,24.43491 -0.0709,24.87968 -4.05805,25.44585 -2.52562,0.35864 -4.4962,-0.56555 -5.21832,-2.44737 z"
         id="path36" /><path
         style="fill-opacity:1;fill:#15cffd"
         d="m 207.6624,563.92781 c 20.76603,-9.85413 32.61847,-43.28292 34.3903,-96.99491 1.98508,-60.17648 -6.85918,-117.56455 -29.2098,-189.53465 -4.85473,-15.63248 -5.89023,-21.17293 -4.4575,-23.85 6.51756,-12.17817 18.10527,7.14681 28.65969,47.79619 17.2014,66.24957 29.73217,189.32928 21.49161,211.09483 -1.35199,3.57097 -0.20993,5.11416 9.18297,12.40841 21.50678,16.70152 45.41568,28.74095 67.50533,33.9926 14.57822,3.46586 49.39329,3.3893 62.93707,-0.13841 30.24109,-7.8768 55.24917,-33.46181 65.04032,-66.54076 2.35028,-7.94032 3.16992,-16.75767 3.09547,-33.3 -0.18749,-41.66272 -8.10856,-71.71325 -31.31471,-118.8 -8.05051,-16.335 -17.99449,-36.99 -22.09772,-45.9 l -7.46043,-16.2 v -59.4 c 0,-57.69494 -0.11328,-59.6117 -3.94631,-66.77504 -2.17047,-4.05628 -6.13005,-8.80589 -8.79906,-10.55469 -10.62109,-6.95921 -15.2107,-6.1448 -70.40266,12.49269 -28.51859,9.6303 -53.67447,18.65947 -55.90197,20.06483 -2.54114,1.60324 -4.05,4.33533 -4.05,7.33333 0,15.25253 32.13131,148.60769 42.63261,176.93888 8.92196,24.07035 23.86521,52.22662 37.51511,70.68647 13.1643,17.80313 14.43146,23.27952 6.99937,30.24976 l -4.65291,4.36377 -3.50782,-4.32441 c -6.15693,-7.59021 -22.62031,-35.12046 -31.10389,-52.01227 -21.98055,-43.76589 -37.37744,-92.56077 -50.38069,-159.66332 -21.7257,-112.1143 -35.05386,-134.56887 -85.04184,-143.2739 -23.97187,-4.17452 -73.69269,2.3627 -89.810035,11.80809 -26.748622,15.67574 -38.393876,46.61053 -40.00325,106.26581 -2.152247,79.77816 13.971684,156.51239 50.003715,237.96905 13.93872,31.51089 22.38534,46.45212 37.90081,67.04269 14.74558,19.56887 31.0581,33.01835 46.64882,38.46142 5.9358,2.07232 22.2606,1.08226 28.1374,-1.70646 z"
         id="path35" /></g></g></svg>
