<?xml version="1.0" encoding="UTF-8" standalone="no"?>
<!-- Created with Inkscape (http://www.inkscape.org/) -->

<svg
   version="1.1"
   id="svg1"
   width="533.33331"
   height="666.66669"
   viewBox="0 0 533.33331 666.66669"
   sodipodi:docname="O.svg"
   inkscape:version="1.4.3 (0d15f75042, 2025-12-25)"
   inkscape:export-filename="N.png"
   inkscape:export-xdpi="96"
   inkscape:export-ydpi="96"
   xml:space="preserve"
   xmlns:inkscape="http://www.inkscape.org/namespaces/inkscape"
   xmlns:sodipodi="http://sodipodi.sourceforge.net/DTD/sodipodi-0.dtd"
   xmlns="http://www.w3.org/2000/svg"
   xmlns:svg="http://www.w3.org/2000/svg"><defs
     id="defs1" /><sodipodi:namedview
     id="namedview1"
     pagecolor="#505050"
     bordercolor="#ffffff"
     borderopacity="1"
     inkscape:showpageshadow="0"
     inkscape:pageopacity="0"
     inkscape:pagecheckerboard="1"
     inkscape:deskcolor="#505050"
     inkscape:zoom="0.57599998"
     inkscape:cx="265.62501"
     inkscape:cy="332.46529"
     inkscape:window-width="1706"
     inkscape:window-height="1030"
     inkscape:window-x="0"
     inkscape:window-y="0"
     inkscape:window-maximized="0"
     inkscape:current-layer="g1" /><g
     inkscape:groupmode="layer"
     inkscape:label="Image"
     id="g1"><g
       id="g36"><path
         style="fill-opacity:1;fill:#014a5d"
         d="m 245.2458,641.28164 c -1.28876,-3.35845 -1.28524,-3.66069 0.39751,-34.17377 l 1.19368,-21.64491 -15.13015,-9.24577 C 209.95065,562.92237 191.11001,547.08082 165.17237,520.27379 130.08686,484.01228 113.35383,456.60882 99.823347,413.25257 91.749452,387.38108 88.470003,367.99342 86.225907,332.86635 83.13994,284.56136 89.968213,244.30069 109.72614,194.30493 c 15.28385,-38.67448 29.38879,-60.75733 52.43784,-82.09721 22.65617,-20.976139 51.67184,-31.89855 84.61278,-31.850907 22.12335,0.032 39.44696,4.552493 63.54541,16.581808 23.14892,11.555339 38.00834,22.759059 65.18428,49.147719 33.96369,32.97975 51.53932,57.01208 69.99287,95.70591 30.39088,63.72425 36.73718,137.60228 18.01035,209.66052 -8.07947,31.08869 -19.04199,57.93223 -31.01167,75.93719 -25.24013,37.96659 -60.39847,62.18298 -102.73405,70.76127 -16.9426,3.43301 -42.32674,1.56422 -61.60596,-4.53546 -9.16088,-2.89837 -11.86525,-3.18119 -13.01285,-1.36087 -0.79676,1.26383 -1.26288,13.23287 -1.03581,26.59787 0.40751,23.98626 0.36044,24.30744 -3.64521,24.87625 -2.52562,0.35864 -4.4962,-0.56556 -5.21832,-2.44738 z"
         id="path40" /><path
         style="fill-opacity:1;fill:#15cffd"
         d="m 310.10033,554.10951 c 37.68766,-9.63888 72.76084,-38.45322 90.99487,-74.75674 9.26901,-18.45439 20.3757,-52.35405 25.39117,-77.49851 4.95728,-24.85273 6.71558,-69.7735 3.64656,-93.16198 C 419.06742,224.36372 368.96156,144.89341 307.23118,113.76416 267.41185,93.684167 232.32362,92.183747 197.82217,109.08568 c -17.88072,8.7596 -40.42941,31.13275 -53.04093,52.62803 -17.73891,30.23447 -35.4402,81.71794 -40.40606,117.51931 -4.08074,29.42011 -1.47535,73.97727 6.38077,109.12339 14.14705,63.29005 48.02487,112.50395 100.90973,146.59039 32.58531,21.00255 65.89024,27.48617 98.43465,19.16271 z"
         id="path39" /><path
         style="fill-opacity:1;fill:#014a5d"
         d="m 280.78683,421.02904 c -10.46338,-11.20108 -16.20106,-28.90595 -21.88297,-67.52464 -4.14784,-28.19202 -4.32259,-36.95469 -0.90031,-45.14538 3.27529,-7.83887 9.71633,-9.77552 18.53141,-5.57191 3.4831,1.66098 6.62941,2.72345 6.99181,2.36106 0.36239,-0.36239 -2.54572,-11.31221 -6.46246,-24.33292 -11.83796,-39.35373 -13.10978,-55.46049 -4.77834,-60.51425 6.84395,-4.15147 19.0431,17.74182 28.96623,51.9845 13.22406,45.63344 15.82721,85.56727 5.57785,85.56727 -1.356,0 -6.93298,-5.05953 -12.39328,-11.2434 -5.46029,-6.18386 -10.51893,-10.65227 -11.2414,-9.9298 -0.72248,0.72248 1.36209,15.29951 4.63239,32.3934 3.27029,17.09389 6.02438,36.7498 6.12019,43.6798 0.16325,11.80648 -0.0843,12.63667 -3.93002,13.1823 -2.74301,0.38917 -5.80463,-1.23797 -9.2311,-4.90603 z"
         id="path38" /></g></g></svg>
