<?xml version="1.0" encoding="UTF-8" standalone="no"?>
<!-- Created with Inkscape (http://www.inkscape.org/) -->

<svg
   version="1.1"
   id="svg1"
   width="533.33331"
   height="666.66669"
   viewBox="0 0 533.33331 666.66669"
   sodipodi:docname="P.svg"
   inkscape:version="1.4.3 (0d15f75042, 2025-12-25)"
   xmlns:inkscape="http://www.inkscape.org/namespaces/inkscape"
   xmlns:sodipodi="http://sodipodi.sourceforge.net/DTD/sodipodi-0.dtd"
   xmlns="http://www.w3.org/2000/svg"
   xmlns:svg="http://www.w3.org/2000/svg">
  <defs
     id="defs1" />
  <sodipodi:namedview
     id="namedview1"
     pagecolor="#505050"
     bordercolor="#ffffff"
     borderopacity="1"
     inkscape:showpageshadow="0"
     inkscape:pageopacity="0"
     inkscape:pagecheckerboard="1"
     inkscape:deskcolor="#505050"
     inkscape:zoom="0.55875002"
     inkscape:cx="265.7718"
     inkscape:cy="333.78075"
     inkscape:window-width="1706"
     inkscape:window-height="1066"
     inkscape:window-x="0"
     inkscape:window-y="0"
     inkscape:window-maximized="0"
     inkscape:current-layer="g1" />
  <g
     inkscape:groupmode="layer"
     inkscape:label="Image"
     id="g1">
    <path
       style="fill-opacity:1;fill:#014a5d"
       d="m 231.85862,636.05393 c -1.23737,-4.12996 -1.2132,-6.96038 0.111,-13 2.3483,-10.7105 3.38305,-87.84438 1.11417,-83.05391 -0.86831,1.83333 -3.56501,7.62071 -5.99265,12.86085 -11.72545,25.30969 -28.59352,37.94445 -46.81277,35.06438 -10.47701,-1.6562 -14.30889,-4.36548 -34.97978,-24.73208 -22.28879,-21.96066 -28.67178,-31.29148 -38.97182,-56.97 C 77.873112,435.2868 69.914659,336.97553 84.02003,230.66667 c 5.834656,-43.97443 13.659766,-75.57866 23.97353,-96.82483 18.48951,-38.088082 45.22373,-45.906881 75.12788,-21.97221 4.51654,3.61495 10.54605,8.98461 13.39892,11.93259 l 5.18703,5.35996 9.84238,-6.64156 c 39.85787,-26.895822 80.42954,-33.449935 118.45774,-19.13616 11.72277,4.41244 26.24002,11.8052 35.99248,18.32881 12.4706,8.34182 52.1138,48.86431 61.08005,62.43479 35.99072,54.47225 41.04981,122.68662 13.51833,182.2749 -17.15648,37.13296 -51.38892,68.77237 -87.93172,81.27109 -24.07406,8.23405 -54.62492,8.53007 -79.93549,0.77454 -17.99577,-5.51418 -16.0808,-6.05813 -17.89671,5.08362 -0.87679,5.37963 -4.01529,20.58114 -6.97445,33.78114 l -5.3803,24 -0.46429,63.61779 c -0.25536,34.98979 -0.84871,64.23979 -1.31855,65 -0.46983,0.76022 -2.29475,1.38221 -4.05537,1.38221 -2.57399,0 -3.511,-1.03429 -4.78287,-5.27942 z"
       id="path3" />
    <path
       style="fill-opacity:1;fill:#15cffd"
       d="m 170.78084,544.78372 c 10.17624,-6.91493 21.26705,-28.58897 29.85876,-58.35099 5.2083,-18.04178 17.03505,-74.13508 15.98791,-75.82939 -0.36103,-0.58417 -7.52935,-5.39829 -15.92959,-10.69806 -20.09112,-12.6756 -25.67585,-20.77521 -19.95565,-28.94193 1.14158,-1.62983 3.4632,-2.96334 5.15916,-2.96334 3.29013,0 15.95641,9.33068 18.09774,13.33181 1.69017,3.15811 19.05758,14.93631 30.36692,20.59419 18.03103,9.02063 26.34609,10.74469 51.6339,10.70587 22.17948,-0.0341 22.9452,-0.13053 35.62559,-4.4881 48.30634,-16.60031 82.84123,-59.99204 93.17575,-117.07168 2.40173,-13.26523 2.72751,-18.77722 2.07292,-35.07209 -0.8189,-20.38513 -3.16161,-32.73222 -9.61338,-50.66667 -4.40974,-12.25808 -12.71827,-29.0204 -17.99517,-36.30494 -2.16281,-2.98567 -3.93238,-6.11791 -3.93238,-6.96053 0,-2.75197 -19.10137,-20.91098 -29.14224,-27.70451 -35.86181,-24.26367 -74.91105,-28.07357 -112.01779,-10.92921 -16.06477,7.42238 -34.41295,20.5351 -51.93812,37.11811 -8.97897,8.49626 -17.30786,15.44775 -18.50863,15.44775 -4.10994,0 -7.06014,-4.12881 -7.0549,-9.87332 0.006,-6.30239 2.30945,-10.43445 11.82171,-21.20427 3.76199,-4.25934 6.83998,-8.24472 6.83998,-8.85639 0,-2.00102 -15.51971,-15.53427 -20.55407,-17.92323 -23.86938,-11.32676 -42.22092,9.42704 -55.2867,62.52387 -5.61602,22.82244 -11.962594,67.03493 -14.92314,103.9599 -2.036477,25.39966 -0.902976,89.51462 2.004352,113.37344 5.502048,45.15225 14.661108,82.12662 27.743928,112.00001 8.70626,19.8799 20.15597,35.13038 27.14524,36.15619 1.16311,0.17071 2.45976,0.6554 2.88145,1.07709 2.04733,2.04733 12.00191,0.56377 16.43645,-2.44958 z"
       id="path2" />
    <path
       style="fill-opacity:1;fill:#014a5d"
       d="m 274.66666,322.66668 c -3.53058,-3.53058 -3.51561,-12.43512 0.0364,-21.65237 3.63667,-9.43694 7.96366,-28.99806 7.96338,-36.00019 -1.3e-4,-3.12443 -0.95137,-10.48078 -2.11388,-16.34745 -2.75811,-13.91904 -2.98244,-33.36386 -0.44608,-38.66666 2.51278,-5.25351 7.55813,-5.94815 11.6405,-1.60266 1.64583,1.7519 3.21582,4.32919 3.48886,5.7273 0.27304,1.39811 1.76092,6.28569 3.30639,10.86128 3.74448,11.08604 5.47105,29.0961 4.0909,42.67267 -2.17395,21.38528 -11.45181,49.14684 -18.26997,54.66812 -4.55547,3.68897 -6.28678,3.74967 -9.69649,0.33996 z"
       id="path1" />
  </g>
</svg>
