<?xml version="1.0" encoding="UTF-8" standalone="no"?>
<!-- Created with Inkscape (http://www.inkscape.org/) -->

<svg
   version="1.1"
   id="svg1"
   width="533.33331"
   height="666.66669"
   viewBox="0 0 533.33331 666.66669"
   sodipodi:docname="Q.svg"
   inkscape:version="1.4.3 (0d15f75042, 2025-12-25)"
   inkscape:export-filename="O.png"
   inkscape:export-xdpi="96"
   inkscape:export-ydpi="96"
   xml:space="preserve"
   xmlns:inkscape="http://www.inkscape.org/namespaces/inkscape"
   xmlns:sodipodi="http://sodipodi.sourceforge.net/DTD/sodipodi-0.dtd"
   xmlns="http://www.w3.org/2000/svg"
   xmlns:svg="http://www.w3.org/2000/svg"><defs
     id="defs1" /><sodipodi:namedview
     id="namedview1"
     pagecolor="#505050"
     bordercolor="#ffffff"
     borderopacity="1"
     inkscape:showpageshadow="0"
     inkscape:pageopacity="0"
     inkscape:pagecheckerboard="1"
     inkscape:deskcolor="#505050"
     inkscape:zoom="0.57599998"
     inkscape:cx="265.62501"
     inkscape:cy="332.46529"
     inkscape:window-width="1706"
     inkscape:window-height="1030"
     inkscape:window-x="0"
     inkscape:window-y="0"
     inkscape:window-maximized="0"
     inkscape:current-layer="g1" /><g
     inkscape:groupmode="layer"
     inkscape:label="Image"
     id="g1"><g
       id="g40"><path
         style="fill-opacity:1;fill:#014a5d"
         d="m 235.09309,639.54553 c -1.34722,-3.5108 -1.31397,-6.2616 0.3696,-30.58034 l 1.2497,-18.05147 -10.57147,-3.29413 C 193.91234,577.57697 166.63904,559.971 133.89432,528.07085 98.177568,493.27531 81.137544,470.17552 63.096843,432.09642 27.825994,357.64907 22.446773,279.99312 47.258214,203.44549 58.528922,168.67338 73.08631,144.61681 97.562085,120.31666 145.19933,73.021239 206.14486,59.225538 266.84652,81.997244 c 30.58993,11.475551 56.58603,29.773706 90.04544,63.381256 29.68182,29.81323 45.5106,50.99296 59.96642,80.23816 27.74998,56.14028 38.30479,109.01253 33.66738,168.65014 l -2.19673,28.25014 10.80108,12.54957 c 48.56597,56.42785 60.94845,116.66683 29.64545,144.22083 -23.10696,20.33956 -67.62657,17.8315 -116.21057,-6.54687 l -12.20447,-6.12392 -5.805,4.42768 c -20.72979,15.81139 -69.26225,27.24801 -98.01103,23.09619 l -11.22497,-1.62108 -1.02749,5.54866 c -0.56513,3.05177 -0.77889,14.05366 -0.47504,24.44866 0.53879,18.43217 0.45202,18.91427 -3.50558,19.47625 -2.52562,0.35864 -4.4962,-0.56555 -5.21832,-2.44738 z"
         id="path44" /><path
         style="fill-opacity:1;fill:#15cffd"
         d="m 275.51272,549.58919 c 21.38193,-5.04094 39.78684,-13.4722 45.83324,-20.99614 3.0393,-3.78201 6.77326,-6.87639 8.29768,-6.87639 1.52441,0 12.93135,4.80125 25.34874,10.66944 26.52608,12.53564 46.69507,18.13056 65.35838,18.13056 29.80422,0 43.29423,-12.06139 43.28384,-38.7 -0.006,-15.41144 -3.96972,-29.66115 -13.51861,-48.6 -9.79498,-19.42694 -19.79699,-33.14474 -39.17488,-53.72852 -9.62525,-10.22423 -16.27165,-18.79732 -16.27165,-20.98856 0,-2.32685 2.3472,-5.08921 6.31212,-7.42857 3.47167,-2.04834 6.80971,-5.70678 7.41787,-8.12988 2.44603,-9.74576 -0.72196,-69.59388 -4.65418,-87.92447 -7.94351,-37.02977 -24.15419,-76.61962 -43.28702,-105.7159 C 349.90343,163.24951 326.47774,137.84657 311.9647,126.7141 287.28495,107.78309 256.02297,93.782786 229.06068,89.586531 182.02827,82.266677 126.78958,107.14252 94.054743,150.38425 56.550332,199.92644 40.301685,282.707 54.325588,352.7889 c 9.460647,47.27787 31.766491,95.42514 61.023332,131.71917 23.17334,28.74727 64.65707,55.72893 98.42054,64.01427 17.69292,4.34173 45.79291,4.82727 61.74326,1.06685 z"
         id="path43" /><path
         style="fill-opacity:1;fill:#014a5d"
         d="m 262.31856,483.28696 c -26.54065,-29.30412 -42.64422,-56.31963 -49.42048,-82.90823 -6.96605,-27.33331 -3.54748,-46.03728 11.67354,-63.86916 l 8.09784,-9.48686 -0.006,-15.60302 c -0.008,-21.05658 -4.17168,-43.43814 -12.83188,-68.97292 -8.24718,-24.317 -8.44215,-30.33179 -1.06679,-32.91048 4.23716,-1.48147 5.64216,-1.07658 9.25441,2.66687 8.39024,8.69499 21.64151,53.10738 23.5882,79.05722 0.55933,7.45596 1.43176,16.96597 1.93874,21.13336 l 0.92178,7.57707 15.65064,0.004 c 24.90485,0.007 50.2105,6.09213 55.24968,13.28657 3.60969,5.15356 3.4445,6.08498 -1.67406,9.43879 -4.04415,2.64983 -5.71171,2.57153 -22.05,-1.03538 -9.72123,-2.1461 -22.93997,-4.0249 -29.37497,-4.17513 -51.94344,-1.21259 -57.83313,53.72035 -12.08881,112.75184 21.08216,27.20581 24.68881,32.5078 24.68881,36.29407 0,4.13078 -5.02677,9.98096 -8.57614,9.98096 -1.09597,0 -7.38461,-5.95336 -13.97476,-13.2297 z"
         id="path42" /></g></g></svg>
