<?xml version="1.0" encoding="UTF-8" standalone="no"?>
<!-- Created with Inkscape (http://www.inkscape.org/) -->

<svg
   version="1.1"
   id="svg1"
   width="533.33331"
   height="666.66669"
   viewBox="0 0 533.33331 666.66669"
   sodipodi:docname="R.svg"
   inkscape:version="1.4.3 (0d15f75042, 2025-12-25)"
   xmlns:inkscape="http://www.inkscape.org/namespaces/inkscape"
   xmlns:sodipodi="http://sodipodi.sourceforge.net/DTD/sodipodi-0.dtd"
   xmlns="http://www.w3.org/2000/svg"
   xmlns:svg="http://www.w3.org/2000/svg">
  <defs
     id="defs1" />
  <sodipodi:namedview
     id="namedview1"
     pagecolor="#ffffff"
     bordercolor="#000000"
     borderopacity="0.25"
     inkscape:showpageshadow="2"
     inkscape:pageopacity="0.0"
     inkscape:pagecheckerboard="0"
     inkscape:deskcolor="#d1d1d1"
     inkscape:zoom="0.034499999"
     inkscape:cx="260.86957"
     inkscape:cy="333.33334"
     inkscape:window-width="1706"
     inkscape:window-height="1066"
     inkscape:window-x="0"
     inkscape:window-y="0"
     inkscape:window-maximized="0"
     inkscape:current-layer="g1" />
  <g
     inkscape:groupmode="layer"
     inkscape:label="Image"
     id="g1">
    <path
       style="fill-opacity:1;fill:#014a5d"
       d="m 231.85862,636.05393 c -1.22943,-4.10346 -1.21626,-6.99912 0.0591,-13 0.9025,-4.24632 1.9736,-20.43808 2.38024,-35.98169 l 0.73933,-28.26111 -4.32434,-6.73889 c -2.37838,-3.70639 -4.71178,-6.73746 -5.18534,-6.73572 -0.47355,0.002 -2.58338,3.29949 -4.68851,7.32834 -11.10049,21.24436 -27.73291,29.75023 -46.99081,24.03125 -10.55735,-3.1352 -18.53029,-9.23036 -39.28006,-30.02886 -20.89773,-20.9468 -30.46122,-33.90239 -44.29096,-60.00057 -23.939807,-45.17695 -48.396256,-115.42687 -54.309045,-156 -0.801525,-5.5 -2.58117,-15.4 -3.954768,-22 -4.878076,-23.43867 -6.014213,-38.8713 -5.987688,-81.33334 0.02569,-41.1165 1.013305,-54.90791 5.490194,-76.66667 6.299434,-30.61677 18.20091,-49.76451 34.83244,-56.040315 16.267626,-6.138488 31.435092,-0.474489 52.262957,19.516595 l 13.05968,12.535 5.75018,-7.61606 c 18.31675,-24.260359 47.49714,-45.231687 76.64802,-55.085314 19.63486,-6.637002 31.42351,-8.537173 52.59737,-8.477984 31.81148,0.08892 60.29792,7.6247 85.69733,22.670288 15.1698,8.985978 59.68245,53.03665 70.91285,70.17686 33.21026,50.68666 35.64552,115.4751 6.21908,165.45447 -10.78454,18.31701 -26.18951,35.75969 -44.12116,49.95734 l -3.2919,2.60641 5.01807,5.55439 c 2.75993,3.05492 5.54498,6.9403 6.18898,8.63417 0.98295,2.58534 2.47224,3.22699 9.27676,3.99683 13.1068,1.48287 27.8833,5.90324 41.43331,12.39472 11.94004,5.72019 13.86165,7.26306 33.49768,26.89546 18.04797,18.04462 21.48912,22.17727 25.7569,30.93279 9.14962,18.77078 9.42525,37.30773 0.88188,59.30964 -6.62564,17.06315 -14.16243,28.07086 -30.0752,43.92571 -36.88427,36.75004 -80.31585,55.33335 -129.29444,55.32193 -30.44814,-0.007 -49.75955,-3.99551 -65.69727,-13.56853 -4.05434,-2.43525 -14.29724,-11.02547 -22.762,-19.08939 l -15.39047,-14.66167 0.73673,35.40747 c 0.44252,21.26758 0.23294,36.30768 -0.52479,37.66167 -0.69383,1.23981 -2.70762,2.2542 -4.47507,2.2542 -2.58848,0 -3.52124,-1.02692 -4.79531,-5.27942 z"
       id="path3" />
    <path
       style="fill-opacity:1;fill:#15cffd;stroke:#000000;stroke-opacity:1"
       d="m 353.18176,569.36424 c 31.70874,-6.46183 59.53283,-22.08134 85.53539,-48.0167 11.71727,-11.68699 15.07345,-16.00692 20.21061,-26.01419 3.38805,-6.6 7.18669,-15.54902 8.4414,-19.8867 3.04155,-10.51492 2.20071,-25.64301 -1.93311,-34.77997 -1.65891,-3.66667 -3.15288,-7.46458 -3.31994,-8.4398 -0.50941,-2.9737 -9.87188,-12.10375 -17.2551,-16.82674 -3.83855,-2.45549 -12.3526,-6.41144 -18.92011,-8.791 -11.08927,-4.0179 -13.43749,-4.37166 -32.92422,-4.96001 l -20.98331,-0.63354 -3.78549,4.05238 c -2.08201,2.22881 -9.99009,13.2503 -17.57349,24.49221 -18.70307,27.7261 -34.61753,48.87357 -41.37161,54.97547 -4.92024,4.44515 -5.84542,4.8265 -7.55699,3.11493 -1.07269,-1.07269 -2.24136,-4.28289 -2.59705,-7.13379 -0.88044,-7.05682 4.69329,-16.14014 27.13234,-44.21672 12.18139,-15.24181 19.5786,-25.91864 23.98246,-34.61536 6.01807,-11.88445 6.36183,-13.13724 6.25525,-22.79678 -0.15445,-13.99782 -1.11414,-17.63697 -5.75483,-21.82247 -6.13711,-5.53513 -12.48123,-6.70729 -24.17959,-4.4675 -9.25445,1.77187 -15.84266,3.62338 -41.25105,11.59293 -8.57105,2.68837 -12.76264,3.137 -29.33333,3.13952 -20.78872,0.003 -30.45702,-1.73941 -35.66667,-6.4284 -3.70291,-3.33283 -3.84945,-7.71995 -0.36325,-10.87492 2.91249,-2.63577 5.36856,-2.48954 22.69659,1.35129 14.78103,3.27628 42.95993,2.03611 59.85838,-2.63439 16.47665,-4.55393 31.09356,-10.98788 43.03833,-18.94427 20.98806,-13.98011 43.56812,-41.03659 52.74805,-63.20517 5.89276,-14.2304 11.0219,-38.516 11.0219,-52.1868 0,-20.70302 -6.32608,-48.45125 -14.98773,-65.74108 -7.38626,-14.74396 -20.57438,-33.37862 -29.20364,-41.26439 -24.18867,-22.104602 -53.83783,-33.667661 -89.80863,-35.025027 -20.89037,-0.788303 -32.77245,0.589332 -49.92985,5.788981 -36.61736,11.097105 -71.02605,39.246526 -87.29774,71.417446 l -4.51012,8.91701 -8.79781,-11.95068 C 119.95901,139.97714 116,134.14715 116,133.59449 c 0,-0.55267 -3.75,-4.69306 -8.33334,-9.20087 -32.575566,-32.038796 -55.301829,-12.9564 -63.842758,53.60639 -2.252155,17.55192 -2.278017,83.2964 -0.04039,102.66667 0.931852,8.06666 2.595063,18.86666 3.696025,24 1.100962,5.13333 2.873634,15.03333 3.939273,22 6.132172,40.0894 24.889578,96.2548 47.868637,143.33333 18.926673,38.77616 33.885413,58.4506 49.545943,65.16514 9.27746,3.97777 12.14018,4.24474 18.23026,1.70014 10.54297,-4.40514 19.69665,-21.16736 26.86222,-49.19013 3.77927,-14.77983 4.73739,-21.60652 5.84904,-41.67515 1.40549,-25.37337 2.43103,-30.27936 6.82059,-32.62858 3.52374,-1.88585 53.50508,1.53312 68.73782,4.702 11.33181,2.35736 14,3.68411 14,6.96142 0,1.12291 -8.65082,10.61987 -19.22405,21.10435 -10.57324,10.48448 -21.13432,21.83916 -23.46909,25.23263 -13.44656,19.5439 -16.18318,47.41783 -6.57374,66.95692 4.25633,8.65449 15.12181,21.60661 18.60022,22.17228 1.1,0.17888 5.05671,1.90216 8.79269,3.82952 6.11185,3.15305 19.9018,6.62314 32.54064,8.18851 10.3662,1.28389 40.03794,-0.47628 53.18177,-3.15482 z"
       id="path2" />
    <path
       style="fill-opacity:1;fill:#014a5d"
       d="m 278.63983,279.94988 c -1.11447,-2.0824 -0.78663,-5.38062 1.40401,-14.1249 6.19326,-24.72139 3.03797,-52.71459 -8.74566,-77.59009 -6.22301,-13.13691 -6.87752,-16.0382 -4.58461,-20.32254 3.18249,-5.94653 14.64473,-1.16801 17.14664,7.1483 0.70698,2.34998 2.78817,7.87269 4.62487,12.27269 7.82084,18.73559 11.49629,53.65511 7.57835,72 -2.31585,10.84351 -7.3446,20.45937 -11.53211,22.05146 -4.38978,1.66899 -4.20643,1.71364 -5.89149,-1.43492 z"
       id="path1" />
  </g>
</svg>
