<?xml version="1.0" encoding="UTF-8" standalone="no"?>
<!-- Created with Inkscape (http://www.inkscape.org/) -->

<svg
   version="1.1"
   id="svg1"
   width="533.33331"
   height="666.66669"
   viewBox="0 0 533.33331 666.66669"
   sodipodi:docname="S.svg"
   inkscape:version="1.4.3 (0d15f75042, 2025-12-25)"
   inkscape:export-filename="S.png"
   inkscape:export-xdpi="96"
   inkscape:export-ydpi="96"
   xmlns:inkscape="http://www.inkscape.org/namespaces/inkscape"
   xmlns:sodipodi="http://sodipodi.sourceforge.net/DTD/sodipodi-0.dtd"
   xmlns="http://www.w3.org/2000/svg"
   xmlns:svg="http://www.w3.org/2000/svg">
  <defs
     id="defs1" />
  <sodipodi:namedview
     id="namedview1"
     pagecolor="#505050"
     bordercolor="#ffffff"
     borderopacity="1"
     inkscape:showpageshadow="0"
     inkscape:pageopacity="0"
     inkscape:pagecheckerboard="1"
     inkscape:deskcolor="#505050"
     inkscape:zoom="0.55875002"
     inkscape:cx="267.56151"
     inkscape:cy="332.88589"
     inkscape:window-width="852"
     inkscape:window-height="1030"
     inkscape:window-x="0"
     inkscape:window-y="0"
     inkscape:window-maximized="0"
     inkscape:current-layer="g1" />
  <g
     inkscape:groupmode="layer"
     inkscape:label="Image"
     id="g1">
    <path
       style="fill-opacity:1;fill:#014a5d"
       d="m 231.92854,636.4502 c -1.21689,-3.68723 -1.25565,-7.0343 -0.15827,-13.66667 0.79932,-4.83093 1.83509,-13.09561 2.30171,-18.36596 l 0.84841,-9.58245 -5.12687,-0.93507 c -8.51509,-1.55305 -27.25326,-8.50542 -36.46019,-13.52774 -13.82859,-7.54339 -27.4112,-18.30482 -45.79834,-36.28576 -25.36274,-24.80243 -35.77197,-38.84843 -44.55344,-60.11949 -7.011172,-16.98294 -9.987565,-34.95513 -9.268759,-55.96705 0.882291,-25.79087 6.911599,-44.63141 20.218009,-63.17779 l 6.94925,-9.68581 -13.72101,-14.17697 C 91.008763,324.27248 81.293349,311.50945 72.908619,295.96506 54.832182,262.4533 49.715145,219.14698 59.521379,182.66667 75.702415,122.47137 119.13458,83.539875 175.33333,78.855759 c 10.51732,-0.876609 14.71824,-0.481634 34,3.196714 12.09999,2.308296 23.28353,4.61013 24.85229,5.115188 2.39649,0.771538 3.81149,-0.4203 8.85448,-7.45802 16.11868,-22.494345 40.06493,-39.612746 67.52415,-48.270856 16.4377,-5.182933 29.02999,-4.900327 40.76907,0.914973 6.1626,3.052827 38.02558,33.832043 42.91502,41.455346 7.17923,11.19339 8.90525,26.571016 5.06255,45.103736 -1.83849,8.86676 -11.69097,38.82469 -25.66434,78.03621 l -5.32722,14.94905 8.41051,3.93575 c 4.62578,2.16466 12.20393,6.50572 16.84033,9.64678 10.7443,7.27905 47.1817,42.9572 56.36042,55.18605 13.32574,17.75391 22.51659,38.15041 28.23817,62.66666 3.43204,14.70585 3.46896,48.60929 0.0704,64.66667 -10.64463,50.2937 -41.31542,103.95201 -76.70981,134.20325 -40.88861,34.94709 -101.94495,57.45288 -148.64165,54.79036 l -11.9353,-0.68052 0.92243,19.80907 c 1.00571,21.5976 0.2673,25.21118 -5.15171,25.21118 -2.48237,0 -3.53777,-1.07489 -4.79461,-4.88315 z"
       id="path2" />
    <path
       style="fill-opacity:1;fill:#15cffd"
       d="m 263.18673,553.9883 c 6.34482,-1.10645 19.47342,-4.62432 29.17465,-7.8175 56.30405,-18.53259 97.65059,-54.28485 124.267,-107.45344 23.30242,-46.54859 29.39768,-87.72907 18.65718,-126.05068 -3.68409,-13.14467 -11.55619,-30.70366 -17.89682,-39.91945 -2.23048,-3.2419 -4.05542,-6.41648 -4.05542,-7.05463 0,-0.63815 -3.00807,-4.53526 -6.6846,-8.66023 -11.53609,-12.94321 -27.59948,-23.62122 -45.64506,-30.34218 -31.08453,-11.57725 -78.37799,-7.88749 -121.67034,9.49253 -20.72907,8.32184 -31.79954,15.10588 -58.992,36.15062 -2.60579,2.01667 -5.80504,3.66667 -7.10945,3.66667 -3.49548,0 -7.89854,-6.37029 -7.89854,-11.4275 0,-3.84837 1.21422,-5.39334 9.66666,-12.29978 38.32357,-31.31394 75.52493,-45.58622 134.71017,-51.68144 5.22668,-0.53828 8.74151,-1.7277 10.91203,-3.69266 2.33473,-2.11362 7.52245,-15.21335 19.15555,-48.37053 18.25975,-52.044743 20.8063,-61.750299 19.82856,-75.571661 -0.86901,-12.284178 -1.17304,-13.480324 -4.60699,-18.124995 -3.58012,-4.84237 -15.41401,-10.831443 -21.40199,-10.831443 -11.90155,0 -36.39224,9.759112 -51.38869,20.477497 -11.08776,7.92473 -28.87531,27.106031 -28.87531,31.137844 0,1.567407 9.85408,8.384658 12.11971,8.384658 4.33161,0 31.87375,29.40223 31.84904,34 -0.004,0.73334 -2.94808,2.955 -6.54254,4.93704 l -6.53537,3.60369 -2.14282,-3.27036 C 280.90279,141.47167 280.38501,140 280.93073,140 c 2.04875,0 -16.56654,-17.77864 -23.85809,-22.78581 -15.75072,-10.81616 -24.42799,-14.15336 -48.45704,-18.63615 -21.05207,-3.927412 -23.21339,-4.098085 -34.14422,-2.696263 -27.53983,3.531842 -48.4785,14.013463 -67.33217,33.705593 -43.286056,45.21109 -48.289317,119.89663 -11.686707,174.45191 5.418547,8.0762 27.513627,32.81569 25.117837,28.12401 -0.51586,-1.01019 3.49479,1.47509 8.91253,5.52285 11.8481,8.85206 22.03151,14.07481 37.18379,19.07039 10.30853,3.39863 13.1418,3.74435 31.33333,3.82332 23.18982,0.10068 30.36354,-1.41331 49.26313,-10.39675 18.95485,-9.00971 35.60998,-24.01941 47.4433,-42.75616 5.643,-8.93506 8.54546,-10.90509 14.03616,-9.52702 4.14034,1.03916 5.1221,5.12568 3.23714,13.4744 -6.70712,29.70662 -2.77293,52.78551 13.02648,76.41646 6.81867,10.19858 8.32397,13.3736 7.63743,16.10898 -0.95736,3.81443 -2.8125,5.38295 -6.40234,5.41317 -1.33395,0.0112 -9.14993,-6.72958 -17.36885,-14.97958 -11.4317,-11.47494 -17.59852,-16.49431 -26.2413,-21.35864 -19.13553,-10.76986 -19.64138,-10.80871 -40.7625,-3.13042 -28.17345,10.24206 -54.93372,10.10676 -87.87187,-0.44427 -6.98243,-2.23667 -13.96731,-4.06668 -15.52195,-4.06668 -4.3948,0 -11.19099,8.31005 -17.7773,21.73721 -7.7463,15.79197 -10.14074,25.00641 -10.98233,42.2628 -1.60482,32.90612 10.29715,64.63509 33.34839,88.90205 5.05665,5.32333 9.58597,9.55346 10.06516,9.40029 0.47919,-0.15318 4.82451,2.54976 9.65626,6.00653 11.59133,8.29276 26.85345,15.42697 41.03646,19.18231 14.18666,3.75631 41.43539,4.29048 59.36527,1.16377 z"
       id="path1" />
  </g>
</svg>
