<?xml version="1.0" encoding="UTF-8" standalone="no"?>
<!-- Created with Inkscape (http://www.inkscape.org/) -->

<svg
   version="1.1"
   id="svg1"
   width="534.00208"
   height="378.2113"
   viewBox="0 0 534.00208 378.2113"
   sodipodi:docname="spamtagger-core.svg"
   xml:space="preserve"
   inkscape:version="1.4.3 (0d15f75042, 2025-12-25)"
   inkscape:export-filename="spamtagger-core.png"
   inkscape:export-xdpi="96"
   inkscape:export-ydpi="96"
   xmlns:inkscape="http://www.inkscape.org/namespaces/inkscape"
   xmlns:sodipodi="http://sodipodi.sourceforge.net/DTD/sodipodi-0.dtd"
   xmlns="http://www.w3.org/2000/svg"
   xmlns:svg="http://www.w3.org/2000/svg"><defs
     id="defs1" /><sodipodi:namedview
     id="namedview1"
     pagecolor="#505050"
     bordercolor="#ffffff"
     borderopacity="1"
     inkscape:showpageshadow="0"
     inkscape:pageopacity="0"
     inkscape:pagecheckerboard="1"
     inkscape:deskcolor="#505050"
     inkscape:zoom="1.3923611"
     inkscape:cx="268.24938"
     inkscape:cy="109.16708"
     inkscape:window-width="990"
     inkscape:window-height="1030"
     inkscape:window-x="0"
     inkscape:window-y="0"
     inkscape:window-maximized="0"
     inkscape:current-layer="g1" /><g
     inkscape:groupmode="layer"
     inkscape:label="Image"
     id="g1"
     transform="translate(-18.09224,-187.32334)"><g
       id="g29"
       style="fill:#ffffff;fill-opacity:1;stroke:#000000;stroke-width:22;stroke-dasharray:none;stroke-opacity:1;paint-order:markers stroke fill"
       transform="translate(0,77.895505)"><path
         id="path36"
         style="fill:#ffffff;fill-opacity:1;stroke:#000000;stroke-width:22;stroke-dasharray:none;stroke-opacity:1;paint-order:markers stroke fill"
         d="m 88.012287,448.66599 c 2.359847,0.32851 8.125936,0.9155 12.813533,1.30442 4.68759,0.38892 12.92361,1.13587 18.30226,1.65989 116.70944,11.37052 235.52604,13.77195 351.54882,7.10524 4.55813,-0.26191 12.20692,-0.54727 16.99731,-0.63414 13.40745,-0.24313 19.5569,-1.07073 24.82303,-3.34074 6.62188,-2.85441 11.12994,-8.46393 12.70203,-15.80553 0.30559,-1.42707 0.48458,-2.78721 0.39777,-3.02253 -0.21065,-0.57105 -12.06633,-11.42106 -22.4695,-20.56352 -20.45792,-17.97873 -38.29823,-32.81553 -70.96151,-59.01478 l -24.05251,-19.29253 0.11249,-1.50319 c 0.0619,-0.82675 0.15536,-3.33547 0.20775,-5.57491 0.0524,-2.23945 0.1023,-4.10703 0.11093,-4.15019 0.0596,-0.29798 1.31585,0.50326 5.71415,3.64442 31.09417,22.20663 66.29074,51.39744 106.63426,88.43873 2.98978,2.74506 4.62001,4.04335 4.87265,3.88049 0.25264,-0.16287 0.35735,-1.04427 0.31297,-2.63446 -0.0367,-1.31434 -0.16551,-8.30398 -0.2863,-15.53253 -1.18715,-71.04249 -4.60929,-136.18429 -11.0205,-209.77915 -1.70119,-19.52819 -1.97845,-22.19625 -2.66237,-25.62015 -0.76712,-3.84046 -2.63499,-8.91773 -3.33634,-9.06889 -0.35371,-0.0762 -1.96913,1.61953 -5.10807,5.36215 -12.01959,14.33118 -35.87231,40.98776 -37.3776,41.7713 -0.40707,0.21188 -0.87574,-0.12942 -2.24633,-1.63587 -0.95257,-1.04698 -1.69285,-2.08459 -1.64505,-2.3058 0.0478,-0.2212 2.15193,-2.73693 4.67586,-5.5905 15.06511,-17.0327 36.89416,-43.20411 36.63806,-43.9263 -0.1999,-0.56372 -1.77325,-1.57486 -4.36259,-2.80372 -1.8633,-0.88428 -3.5753,-1.37142 -8.58585,-2.44305 -6.50432,-1.39111 -7.55791,-1.51277 -19.75899,-2.28163 -4.0609,-0.2559 -12.58978,-1.01112 -18.95306,-1.67827 -91.18926,-9.5606 -181.53067,-11.92635 -269.59471,-7.05982 -3.64475,0.20142 -15.10668,0.74787 -25.47097,1.21434 -27.19126,1.2238 -37.53823,1.99384 -50.38033,3.74939 -20.848135,2.85 -37.941779,7.68667 -51.969302,14.7048 -4.69354,2.34823 -9.003742,5.00729 -9.006068,5.55603 -0.001,0.24761 4.85083,3.90068 10.781953,8.11795 19.987307,14.21177 64.435537,47.06996 65.521277,48.43636 0.33757,0.42483 -2.78544,7.87855 -3.2582,7.7764 -1.02497,-0.22146 -43.424514,-32.95957 -63.417164,-48.96651 -8.096344,-6.48227 -14.924458,-11.82999 -15.173587,-11.88382 -0.951669,-0.20562 -0.963704,0.60811 -0.07859,5.31341 6.212777,33.02722 9.73094,67.97992 11.932004,118.54362 1.492204,34.27949 2.089448,58.91803 2.277623,93.96036 0.141368,26.32588 0.182138,28.27527 0.700933,33.5144 0.397297,4.01217 1.752185,9.97331 2.337751,10.28547 0.189397,0.10097 3.50783,-2.56665 7.374297,-5.92805 13.138285,-11.42206 27.586937,-23.31535 44.831523,-36.90272 12.87975,-10.14822 20.90527,-16.27198 21.23263,-16.20124 0.16222,0.0351 0.58636,1.18758 0.94255,2.56118 0.35619,1.3736 1.09577,3.75491 1.6435,5.2918 0.54774,1.53689 0.95917,2.96429 0.91429,3.17201 -0.0871,0.40305 -6.70294,5.58977 -19.54314,15.3215 -15.69967,11.89896 -30.876825,22.79463 -45.774388,32.8614 -7.858382,5.31017 -8.924876,6.13014 -8.753311,6.72993 0.323136,1.12968 3.274231,4.56835 5.494692,6.4025 3.38568,2.79665 7.288839,4.76614 12.988814,6.55399 2.361777,0.74079 5.323335,1.34234 9.408616,1.91106 z M 74.34608,459.64153 c -7.62647,-2.59272 -12.421652,-5.08688 -17.05321,-8.87004 -9.345496,-7.6336 -14.842988,-19.54864 -16.139135,-34.97932 -0.430097,-5.12032 -3.56327,-69.31558 -8.478185,-173.70863 -3.790045,-80.50074 -3.7862,-80.40921 -3.443984,-81.99306 0.344359,-1.59376 1.728915,-2.97575 3.396184,-3.38988 0.816007,-0.20269 2.276532,-1.19204 4.213622,-2.85428 3.503777,-3.00664 10.838745,-7.967 15.370496,-10.39449 11.940428,-6.39604 26.959302,-10.84283 45.892358,-13.58781 22.546174,-3.26883 52.037264,-5.56596 97.990224,-7.6327 86.08346,-3.87161 168.87509,-1.5308 254.56369,7.19741 7.13847,0.72712 16.59967,1.59932 21.02489,1.93823 12.43672,0.95245 14.92361,1.26933 21.9788,2.80052 7.61186,1.652 10.83787,2.82252 15.70986,5.70016 4.52379,2.67198 7.37246,5.43268 10.35941,10.03951 6.18453,9.53852 8.93298,21.73219 9.85141,43.70637 0.43781,10.47494 0.68615,15.42532 1.9343,38.55821 1.79741,33.31299 6.63434,128.25445 7.79148,152.93505 0.3113,6.6395 0.79337,15.73036 1.07129,20.20192 1.26173,20.3009 0.88763,30.51088 -1.44008,39.30235 -3.38564,12.78718 -9.79193,19.93098 -21.49138,23.96554 -6.49084,2.23836 -14.22324,3.21699 -28.78781,3.64345 -5.58664,0.16358 -16.64101,0.6442 -24.56526,1.06805 -105.60601,5.64862 -208.02729,4.16262 -310.20639,-4.50068 -14.40826,-1.22161 -16.09461,-1.34313 -29.65757,-2.13721 -21.39709,-1.25276 -26.318088,-1.78328 -37.751985,-4.06993 -5.971334,-1.1942 -9.553871,-2.06193 -12.133025,-2.93874 z" /></g><g
       id="g16"
       transform="matrix(1.0836067,0,0,1.0836067,-21.70184,69.278725)"
       style="fill:#15cffd;fill-opacity:1;stroke:#000000;stroke-width:20.3026;stroke-linejoin:miter;stroke-dasharray:none;stroke-opacity:1;paint-order:markers stroke fill"><path
         style="fill:#15cffd;fill-opacity:1;stroke:#000000;stroke-width:20.3026;stroke-linejoin:miter;stroke-dasharray:none;stroke-opacity:1;paint-order:markers stroke fill"
         d="m 358.80888,384.32266 c -3.04604,0 7.49914,-1.04538 10.32923,-2.52786 5.10336,-2.67328 10.29686,-8.58538 14.38474,-16.37506 3.75538,-7.1561 6.40344,-14.96293 8.45095,-24.91457 3.37103,-16.38434 4.22306,-32.53173 2.93655,-55.65276 -0.12317,-2.21375 -0.0974,-4.22249 0.0574,-4.46387 0.15474,-0.24138 0.92033,-0.47035 1.70131,-0.50881 5.93407,-0.29226 14.87477,-2.567 23.03811,-5.86147 10.90868,-4.40242 20.40708,-11.73464 26.30096,-20.30285 7.05553,-10.25694 7.62773,-11.25667 10.07433,-17.60147 2.74715,-7.12424 3.57798,-9.87053 4.92377,-16.27545 2.09363,-9.96398 1.82706,-14.22731 -1.36474,-21.8267 -1.48749,-3.5416 -1.83787,-4.09036 -3.96577,-6.21114 -4.2541,-4.23987 -15.0432,-11.73809 -21.13094,-14.68561 -8.74988,-4.23646 -21.45832,-8.44837 -34.63507,-11.47895 -19.70122,-4.53118 -36.40535,-5.65586 -58.30199,-3.92545 -8.48956,0.67089 -15.71681,1.719 -26.1052,3.7858 -11.40526,2.26912 -21.74682,6.46319 -29.42133,11.93197 -5.56689,3.96692 -8.48968,7.08222 -10.78067,11.49076 -1.26727,2.43861 -3.03057,11.08987 -3.20379,15.71874 -0.55273,14.76982 2.91637,29.72695 10.10648,43.57446 3.70906,7.14331 10.4743,15.70227 14.1774,17.93636 0.64084,0.38662 1.94211,1.31992 2.89172,2.07401 3.40033,2.70023 6.35875,4.02705 11.88551,5.33054 4.88109,1.1512 5.11781,1.17552 11.33229,1.16439 4.47707,-0.008 6.44244,0.10793 6.6708,0.39356 0.23257,0.29091 0.0524,1.70141 -0.63994,5.0088 -1.70552,8.14791 -2.94606,23.14109 -2.90707,35.13489 0.0793,24.38706 4.24143,42.44316 12.83951,55.70006 4.01468,6.19002 6.20951,8.33962 10.77489,10.55287 5.13479,2.48928 13.09345,2.81481 9.58057,2.81481 z"
         id="path26"
         sodipodi:nodetypes="sssssssssssssssssssssssssscsssss" /><path
         style="fill:#15cffd;fill-opacity:1;stroke:#000000;stroke-width:20.3026;stroke-linejoin:miter;stroke-dasharray:none;stroke-opacity:1;paint-order:markers stroke fill"
         d="m 195.13228,405.41913 c 6.52938,0.4074 9.08418,0.35278 14.60499,-0.31223 7.76409,-0.93523 17.78813,-3.60646 26.45239,-7.04911 12.88502,-5.11971 25.13914,-13.37488 34.73575,-23.40025 10.51961,-10.98962 19.89148,-27.02416 25.28164,-43.25492 1.55398,-4.67931 3.50032,-14.45543 3.83158,-19.24535 0.68475,-9.90146 -1.08914,-20.81472 -4.95362,-30.47547 l -1.33386,-3.33449 -6.56827,-6.95895 c -6.53569,-6.92442 -9.15097,-10.08524 -12.35482,-14.93193 -0.92409,-1.39795 -1.89993,-2.72466 -2.16852,-2.94824 -0.86401,-0.71921 -6.83331,-3.77599 -9.35321,-4.78963 -3.67927,-1.47999 -10.69391,-3.15496 -14.73012,-3.51729 -9.53684,-0.85611 -19.51799,0.006 -30.32372,2.61849 -1.95819,0.47347 -3.61494,0.84958 -3.68165,0.8358 -0.33858,-0.0699 -7.77284,2.38529 -11.18949,3.69541 -8.55414,3.28008 -17.37624,8.31646 -24.3238,13.88604 -3.878,3.10884 -5.87376,4.12355 -7.02128,3.56985 -1.73363,-0.8365 -3.28241,-4.04773 -2.8836,-5.97881 0.25124,-1.21655 2.11081,-2.99861 6.82947,-6.54482 9.53099,-7.16282 20.16886,-12.59052 32.11857,-16.3877 2.15472,-0.68469 4.80552,-1.41651 5.89066,-1.62627 1.08514,-0.20975 3.73935,-0.74657 5.89825,-1.19292 4.44021,-0.91801 11.66929,-1.75014 17.65974,-2.03278 4.49106,-0.21189 6.77791,-0.87235 7.9256,-2.28897 0.88319,-1.09013 14.57945,-36.44751 16.9191,-43.67724 1.89025,-5.84105 3.2839,-12.33125 3.19128,-14.86169 -0.0365,-0.99596 -0.41108,-3.2092 -0.8325,-4.91832 -0.83638,-3.39202 -1.69785,-4.64591 -4.71058,-6.85637 -3.26012,-2.39198 -7.00994,-3.03979 -11.85828,-2.04862 -9.86555,2.01686 -19.31973,6.86341 -26.79863,13.73793 -2.52772,2.32345 -7.5443,8.37875 -7.74448,9.34803 -0.0943,0.45638 0.42103,1.01607 2.03065,2.2057 1.18632,0.87678 2.65537,1.77322 3.26456,1.99209 1.36369,0.48995 4.39212,2.88505 6.97146,5.5135 2.9273,2.98306 8.35692,10.6722 8.17117,11.5716 -0.0893,0.43258 -5.40462,3.32911 -5.91549,3.2236 -0.13935,-0.0288 -0.77119,-0.97139 -1.40408,-2.0947 -3.19408,-5.66906 -10.55689,-12.22037 -18.68509,-16.62567 -4.69833,-2.5464 -6.49805,-3.10812 -16.72619,-5.22045 l -9.60448,-1.98353 -3.97722,0.2845 c -5.26164,0.37637 -7.40062,0.70512 -11.13367,1.71117 -5.76834,1.55455 -9.87031,3.42796 -15.15814,6.92286 -9.91182,6.55105 -16.60988,14.72475 -21.65808,26.42956 -1.53732,3.56443 -2.13263,5.41912 -3.29504,10.26572 -3.08456,12.86086 -3.0525,23.07289 0.10981,34.97434 2.01388,7.57933 4.78416,13.53016 9.60941,20.64198 4.49938,6.63153 6.99225,9.24581 13.37327,14.02456 8.10296,6.06832 13.4038,8.83792 21.78565,11.38264 10.61463,3.22258 22.52524,2.53249 33.77626,-1.95696 10.77298,-4.29869 18.50476,-10.65785 25.80499,-21.22385 2.21833,-3.21069 2.74771,-3.75821 3.96359,-4.09942 1.649,-0.46276 3.14159,0.0396 4.00127,1.34684 l 0.75639,1.15013 -1.17724,4.88957 c -3.59861,14.94651 -1.58596,26.30482 6.81556,38.46334 l 2.29077,3.31517 -0.35463,1.7172 c -0.30604,1.48185 -0.4862,1.78285 -1.31451,2.19619 -1.37771,0.68749 -3.33326,0.21521 -4.62813,-1.11774 -0.56087,-0.57737 -2.16987,-2.45343 -3.57555,-4.16902 -4.99478,-6.09599 -11.49329,-11.44575 -17.71063,-14.5799 -5.52985,-2.78758 -6.5802,-2.84638 -12.52185,-0.70095 -7.22987,2.61058 -14.09843,3.9839 -20.28837,4.05653 -8.8609,0.10397 -14.99433,-1.00917 -24.45802,-4.43881 -8.62751,-3.12662 -9.40331,-3.03212 -12.89434,1.57073 -4.98267,6.56952 -8.03546,13.7808 -9.4602,22.3468 -2.90346,17.45663 3.65867,37.24311 16.46065,49.633 1.6747,1.62079 9.79812,7.49613 12.93515,9.35546 7.93151,4.70105 16.57607,7.42198 25.31175,7.96704 z"
         id="path25" /></g></g></svg>
