<?xml version="1.0" encoding="UTF-8" standalone="no"?>
<!-- Created with Inkscape (http://www.inkscape.org/) -->

<svg
   version="1.1"
   id="svg1"
   width="3377.1326"
   height="613.57361"
   viewBox="0 0 3377.1326 613.57361"
   sodipodi:docname="spamtagger.svg"
   inkscape:version="1.4.3 (0d15f75042, 2025-12-25)"
   xmlns:inkscape="http://www.inkscape.org/namespaces/inkscape"
   xmlns:sodipodi="http://sodipodi.sourceforge.net/DTD/sodipodi-0.dtd"
   xmlns="http://www.w3.org/2000/svg"
   xmlns:svg="http://www.w3.org/2000/svg">
  <defs
     id="defs1" />
  <sodipodi:namedview
     id="namedview1"
     pagecolor="#ffffff"
     bordercolor="#000000"
     borderopacity="0.25"
     inkscape:showpageshadow="2"
     inkscape:pageopacity="0.0"
     inkscape:pagecheckerboard="0"
     inkscape:deskcolor="#d1d1d1"
     inkscape:zoom="0.25942285"
     inkscape:cx="1686.4359"
     inkscape:cy="456.7832"
     inkscape:window-width="1706"
     inkscape:window-height="1066"
     inkscape:window-x="0"
     inkscape:window-y="0"
     inkscape:window-maximized="0"
     inkscape:current-layer="g1" />
  <g
     inkscape:groupmode="layer"
     inkscape:label="Image"
     id="g1"
     transform="translate(-10.537734,-27.759706)">
    <path
       style="fill:#014a5d;fill-opacity:1"
       d="m 1591.8586,636.0539 c -1.2306,-4.10758 -1.2157,-6.9931 0.067,-13 0.9069,-4.24632 1.9775,-21.09572 2.3792,-37.44312 l 0.7303,-29.72254 -19.3335,-19.61079 c -25.6445,-26.01229 -35.4534,-41.41861 -44.3201,-69.61079 -8.7706,-27.88705 -11.939,-52.40545 -11.9998,-92.86096 l -0.049,-32.19429 -6.9054,-2.17738 c -11.7888,-3.71714 -22.8846,-12.37124 -47.876,-37.34055 -25.797,-25.77417 -33.5025,-35.87485 -43.8089,-57.42682 -12.4688,-26.07387 -17.88,-47.35023 -18.9943,-74.68471 -1.7169,-42.1184 5.7149,-60.28249 32.9666,-80.573314 11.7391,-8.740557 27.2013,-16.989369 41.2847,-22.02457 20.7417,-7.415731 57.1272,-14.446566 93.8446,-18.133741 22.5244,-2.26191 68.3931,-0.926107 92.1554,2.683779 34.9742,5.313167 79.2881,17.990849 101.0632,28.91304 14.1057,7.075259 37.6524,22.999956 47.8052,32.330866 l 8.8685,8.15045 6.4649,-7.01391 c 29.1542,-31.630081 64.2307,-37.476008 99.7651,-16.627069 14.7288,8.641779 25.0626,17.188659 47.8531,39.578219 32.0425,31.47888 44.8501,48.13271 62.5428,81.32455 7.8383,14.70485 8.1746,15.11495 9.2933,11.33333 5.4748,-18.50615 10.5771,-31.84746 17.9069,-46.82247 32.8314,-67.07509 88.2231,-107.008662 148.5354,-107.083595 33.865,-0.04207 65.1567,10.389615 95.1413,31.717165 12.575,8.94434 50.8274,46.70162 59.3947,58.6259 3.2823,4.56835 6.4201,8.30608 6.9729,8.30608 0.5528,0 2.2928,-2.55 3.8666,-5.66666 9.3251,-18.46694 34.5578,-48.10009 52.3768,-61.51102 48.9209,-36.818949 108.3142,-41.694538 162.0943,-13.306317 17.5885,9.284217 30.9236,19.594267 51.4999,39.817337 l 18.9928,18.66666 2.9333,-9.65016 c 6.4179,-21.11354 16.7629,-37.57295 27.6304,-43.961094 5.4101,-3.180184 7.7878,-3.722075 16.3319,-3.722075 14.7472,0 19.6937,2.918513 42,24.780939 l 18.6667,18.29517 7.3333,-10.87139 c 20.8256,-30.873032 51.5573,-53.519706 87.3334,-64.357217 10.5782,-3.204413 14.2907,-3.647697 31.3333,-3.741308 22.0694,-0.121221 30.6908,1.637121 46,9.381764 13.7753,6.968649 21.6799,13.366186 45.4682,36.799221 l 21.4682,21.14759 5.7842,-7.66114 c 18.3521,-24.307147 47.5085,-45.269103 76.682,-55.130387 19.6349,-6.637002 31.4235,-8.537173 52.5974,-8.477984 31.8115,0.08892 60.2979,7.624699 85.6973,22.670287 15.1698,8.985977 59.6825,53.036644 70.9129,70.176864 33.2103,50.68665 35.6455,115.47509 6.2191,165.45446 -10.7846,18.317 -26.1895,35.75968 -44.1212,49.95733 l -3.2919,2.60641 5.0181,5.5544 c 2.7599,3.05491 5.545,6.94029 6.189,8.63416 0.9829,2.58534 2.4722,3.22699 9.2767,3.99683 13.1068,1.48287 27.8833,5.90324 41.4333,12.39472 11.9401,5.72019 13.8617,7.26306 33.4977,26.89545 18.048,18.04462 21.4891,22.17728 25.7569,30.93279 9.1496,18.77078 9.4253,37.30774 0.8819,59.30964 -6.6256,17.06315 -14.1624,28.07086 -30.0752,43.92572 -36.8843,36.75003 -80.3159,55.33334 -129.2945,55.32191 -30.4481,-0.007 -49.7595,-3.9955 -65.6972,-13.56852 -4.0544,-2.43525 -14.2973,-11.02547 -22.762,-19.08939 l -15.3905,-14.66167 0.7367,35.40746 c 0.4425,21.26758 0.233,36.30768 -0.5248,37.66168 -0.6938,1.23981 -2.7076,2.2542 -4.475,2.2542 -4.8507,0 -6.9221,-7.99456 -4.7362,-18.27942 0.9025,-4.24632 1.9736,-20.43808 2.3802,-35.98169 l 0.7394,-28.26111 -4.3244,-6.73889 c -2.3783,-3.70639 -4.7117,-6.73746 -5.1853,-6.73572 -0.4735,0.002 -2.5834,3.2995 -4.6885,7.32834 -11.1005,21.24436 -27.7329,29.75023 -46.9908,24.03125 -8.3211,-2.47109 -15.9478,-7.51719 -27.7984,-18.39225 l -9.2834,-8.51919 -5.6573,6.94499 c -10.6411,13.06301 -30.4791,26.0998 -53.7567,35.32694 -44.2965,17.5589 -97.7552,22.70406 -157.8111,15.18858 l -7.7919,-0.97508 0.9499,14.65725 c 1.0632,16.40379 0.012,20.406 -5.3595,20.406 -4.7961,0 -6.9229,-7.93745 -4.8682,-18.16846 0.8405,-4.18529 1.5282,-10.08998 1.5282,-13.12152 v -5.5119 l -13,-3.06096 c -25.6025,-6.02835 -53.0477,-16.54397 -73.6524,-28.21994 l -9.265,-5.25014 -9.5933,6.20584 c -32.1978,20.82864 -72.5913,26.71295 -130.7262,19.04351 -5.6303,-0.74278 -13.3727,-2.16391 -17.2053,-3.15806 l -6.9683,-1.80756 0.8677,23.95358 c 0.9331,25.76112 0.3523,29.09561 -5.0673,29.09561 -5.0147,0 -6.7987,-7.16021 -4.7766,-19.17005 0.8795,-5.22314 1.7013,-15.37423 1.8262,-22.55798 l 0.2272,-13.06137 -12,-5.07689 c -23.4667,-9.92814 -38.0696,-20.17266 -61.5719,-43.19509 -9.7255,-9.52693 -18.2125,-16.81722 -19.0065,-16.32651 -0.789,0.48763 -3.8394,4.42786 -6.7786,8.75605 -7.891,11.62002 -30.2377,33.30568 -43.2276,41.94884 -33.5082,22.29558 -73.3493,28.46696 -132.9857,20.59943 -5.6303,-0.74278 -13.3727,-2.16391 -17.2052,-3.15806 l -6.9684,-1.80756 0.8677,23.95358 c 0.9331,25.76112 0.3524,29.09561 -5.0673,29.09561 -5.0146,0 -6.7987,-7.16021 -4.7765,-19.17005 0.8794,-5.22314 1.7012,-15.37423 1.8262,-22.55798 l 0.2271,-13.06137 -12,-5.08088 c -20.8516,-8.82872 -41.8035,-22.89905 -56.6211,-38.02405 -4.0083,-4.09145 -7.7279,-7.439 -8.2658,-7.439 -0.5379,0 -3.4,4.65535 -6.3602,10.34522 -16.945,32.57038 -44.904,52.32144 -74.0647,52.32144 -16.0307,0 -35.2046,-6.14189 -52.1548,-16.70648 l -9.7222,-6.05956 -6.4056,4.55173 c -15.1439,10.76105 -29.4832,15.53944 -49.5891,16.52492 l -15.1836,0.74422 0.9277,19.08215 c 1.0142,20.86084 0.2408,24.52969 -5.1707,24.52969 -4.8721,0 -6.8167,-7.26646 -4.9641,-18.54982 0.7932,-4.83093 1.8089,-12.73332 2.2572,-17.56087 l 0.8149,-8.77735 -11.3527,-3.69298 c -14.9846,-4.87442 -27.3952,-13.21281 -46.0706,-30.95369 -22.0905,-20.98517 -34.5293,-36.5625 -43.3623,-54.30363 -12.1939,-24.49152 -18.9562,-55.06264 -17.7318,-80.16166 l 0.5854,-12 -17.4664,-18.09323 -17.4663,-18.09324 -4.8639,-14.57343 c -2.6752,-8.01539 -5.2773,-16.57782 -5.7824,-19.02762 -0.7787,-3.77627 -1.3549,-4.32614 -3.786,-3.61278 -1.5772,0.46277 -7.8837,2.16716 -14.0147,3.78753 l -11.1471,2.94611 0.8528,9.48316 c 1.3678,15.21095 0.992,67.98869 -0.5876,82.51684 -5.534,50.89907 -22.28,93.12692 -45.1011,113.72978 -6.7482,6.09229 -18.5499,11.92518 -29.0599,14.3626 -10.7696,2.49765 -23.812,0.94914 -34.9711,-4.15209 -3.9386,-1.8005 -7.4767,-3.27363 -7.8624,-3.27363 -0.3857,0 -0.3874,17.00709 0,37.79353 0.4088,22.14205 0.1863,38.70729 -0.5371,40 -0.6791,1.21356 -2.6809,2.20647 -4.4484,2.20647 -2.5884,0 -3.5212,-1.02692 -4.7953,-5.27942 z"
       id="path16" />
    <path
       style="fill:#15cffd;fill-opacity:1"
       d="m 1625.6677,525.6241 c 8.559,-3.79474 19.8767,-14.78983 26.9794,-26.21035 23.8311,-38.31864 32.4115,-103.897 24.3456,-186.06824 -0.3049,-3.10637 0.1841,-3.38531 7.5626,-4.31312 26.1037,-3.28241 56.4978,-16.41785 75.7718,-32.74638 18.561,-15.72445 35.0624,-41.28808 43.5672,-67.49338 11.2344,-34.61548 12.1815,-55.81181 3.2672,-73.112 -1.0352,-2.00898 -1.72,-3.93007 -1.5218,-4.26908 0.7802,-1.3347 -10.8299,-11.9987 -20.3064,-18.65147 -22.797,-16.004285 -40.1411,-23.913107 -72.9274,-33.254528 C 1676.7921,69.358507 1644.5932,64.854562 1608,64.9014 c -35.1103,0.04494 -63.7723,3.187473 -97.3333,10.671708 -28.7589,6.413338 -47.9703,14.655647 -66.9587,28.727432 -12.4042,9.1924 -18.5412,17.24365 -22.6381,29.69946 -2.6753,8.13353 -3.0676,11.99004 -3.0523,30 0.02,22.93299 1.9521,34.90401 8.9328,55.33333 9.1714,26.84061 22.7982,48.49093 41.1211,65.33333 3.1912,2.93333 4.9306,4.16688 3.8653,2.74121 -1.0652,-1.42567 1.2119,-0.11925 5.0604,2.90316 12.8842,10.11866 30.6957,14.53293 52.2042,12.93788 l 12.5347,-0.92957 -0.9471,4.507 c -4.6905,22.32104 -6.6965,59.76949 -4.8188,89.96005 3.0134,48.45123 11.741,79.87798 29.4272,105.96294 5.3218,7.84903 17.2607,20.37031 18.3675,19.26349 0.361,-0.361 1.4272,-0.0166 2.3694,0.76527 0.9421,0.78189 4.5973,2.58546 8.1226,4.00792 8.3122,3.35391 22.4008,2.83277 31.4108,-1.16191 z"
       id="path15" />
    <path
       style="fill:#15cffd;fill-opacity:1"
       d="m 2605.9887,551.49355 c 24.8013,-6.52208 42.1952,-16.85995 62.0113,-36.8558 28.7878,-29.04892 43.3816,-62.45027 46.1062,-105.52469 2.1368,-33.78248 -14.9448,-88.16422 -32.7099,-104.13657 -27.0128,-24.2868 -85.2258,-30.43092 -128.3177,-13.54333 -21.4381,8.40153 -46.1236,29.52867 -54.5854,46.71717 -4.1505,8.4307 -4.4932,10.09744 -4.4932,21.84966 0,11.73294 0.3469,13.4274 4.459,21.78027 4.0913,8.3107 19.7005,27.17131 21.2253,25.64656 0.3546,-0.35466 2.5261,0.79009 4.8255,2.54389 7.3792,5.62841 23.9246,12.65094 34.8614,14.79659 19.1197,3.75103 37.706,0.74725 59.4316,-9.60495 7.0416,-3.35527 13.878,-5.88942 15.1921,-5.63143 1.314,0.25799 3.6199,2.11907 5.1241,4.13574 2.7155,3.64046 2.7165,3.69147 0.1413,7.13753 -4.684,6.26825 -21.0054,15.01378 -34.9422,18.72321 -23.6749,6.30131 -48.1985,4.55392 -69.302,-4.938 -19.5141,-8.77701 -43.2492,-29.13311 -50.8019,-43.56951 -5.5486,-10.60559 -8.6366,-25.04348 -7.469,-34.92095 2.2149,-18.73733 5.4318,-27.06407 15.6972,-40.63112 9.0398,-11.94738 13.4847,-29.07909 13.5263,-52.13449 0.036,-19.96385 -2.4915,-30.42151 -10.6023,-43.86608 -2.6099,-4.32635 -4.4753,-8.13615 -4.1452,-8.46622 0.8056,-0.80561 9.5263,2.07556 16.1121,5.32313 5.8515,2.88545 14.2282,10.2279 13.3289,11.68307 -2.3458,3.79561 26.5939,20.41582 42.9807,24.68405 13.2601,3.45382 36.6073,5.12391 48.1206,3.44219 28.4415,-4.15439 45.0805,-23.27979 44.7756,-51.46681 -0.1866,-17.25737 -8.9278,-39.04129 -21.852,-54.45779 -2.5554,-3.04821 -3.4554,-4.67813 -2,-3.62203 1.4554,1.0561 -2.1538,-3.01648 -8.0204,-9.05016 -39.3369,-40.456759 -97.9708,-55.247399 -146.5411,-36.96558 -35.9255,13.52231 -64.2632,39.71203 -87.8434,81.18473 l -6.7259,11.82954 2.8388,8.87398 c 1.5613,4.88069 3.5592,13.28524 4.4397,18.67679 3.0763,18.83653 -2.8579,39.18615 -15.5407,53.29253 l -6.0423,6.72047 5.7074,3.94525 c 3.1391,2.16989 15.0384,13.46133 26.4428,25.0921 19.2009,19.58196 21.1909,22.08418 26.8912,33.8135 13.6414,28.0694 20.0328,54.40532 19.9277,82.11319 -0.098,25.7209 -3.9884,46.09129 -13.177,68.98721 l -4.7223,11.76707 5.1725,5.3114 c 2.8449,2.92127 6.4197,6.02609 7.9439,6.8996 1.5242,0.87351 8.11,5.16449 14.635,9.53552 29.8528,19.998 61.5174,27.67312 110.5937,26.80663 20.7807,-0.36691 25.7869,-0.89368 37.322,-3.92706 z"
       id="path14" />
    <path
       style="fill:#15cffd;fill-opacity:1"
       d="m 2299.322,551.49355 c 24.8014,-6.52208 42.1952,-16.85995 62.0113,-36.8558 28.7878,-29.04892 43.3816,-62.45027 46.1062,-105.52469 2.1368,-33.78248 -14.9448,-88.16422 -32.7099,-104.13657 -27.0127,-24.2868 -85.2258,-30.43092 -128.3177,-13.54333 -21.4381,8.40153 -46.1235,29.52867 -54.5854,46.71717 -4.1504,8.4307 -4.4932,10.09744 -4.4932,21.84966 0,11.73294 0.3469,13.4274 4.459,21.78027 4.0914,8.3107 19.7006,27.17131 21.2253,25.64656 0.3547,-0.35466 2.5261,0.79009 4.8255,2.54389 7.3792,5.62841 23.9246,12.65094 34.8614,14.79659 19.1198,3.75103 37.706,0.74725 59.4317,-9.60495 7.0415,-3.35527 13.8779,-5.88942 15.192,-5.63143 1.314,0.25799 3.6199,2.11907 5.1242,4.13574 2.7154,3.64046 2.7164,3.69147 0.1413,7.13753 -4.6841,6.26825 -21.0055,15.01378 -34.9423,18.72321 -23.6748,6.30131 -48.1984,4.55392 -69.302,-4.938 -19.5141,-8.77701 -43.2492,-29.13311 -50.8019,-43.56951 -5.5485,-10.60559 -8.6365,-25.04348 -7.4689,-34.92095 2.2148,-18.73733 5.4317,-27.06407 15.6971,-40.63112 9.0399,-11.94738 13.4847,-29.07909 13.5263,-52.13449 0.036,-19.96385 -2.4915,-30.42151 -10.6022,-43.86608 -2.61,-4.32635 -4.4754,-8.13615 -4.1453,-8.46622 0.8056,-0.80561 9.5264,2.07556 16.1122,5.32313 5.8514,2.88545 14.2282,10.2279 13.3288,11.68307 -2.3458,3.79561 26.5939,20.41582 42.9808,24.68405 13.2601,3.45382 36.6072,5.12391 48.1205,3.44219 28.4416,-4.15439 45.0805,-23.27979 44.7756,-51.46681 -0.1866,-17.25737 -8.9277,-39.04129 -21.852,-54.45779 -2.5554,-3.04821 -3.4554,-4.67813 -2,-3.62203 1.4555,1.0561 -2.1537,-3.01648 -8.0204,-9.05016 -35.7531,-36.771 -88.5972,-52.81357 -134.5452,-40.845643 -56.4723,14.709163 -103.1131,69.157793 -122.7588,143.308953 -3.9249,14.81421 -4.0248,16 -1.3481,16 6.0832,0 15.7374,6.92032 32.347,23.18688 18.7656,18.37798 23.3606,25.17402 25.0287,37.01761 1.1221,7.96689 -1.988,18.91327 -7.1129,25.03484 l -3.8281,4.57266 9.326,13.42734 c 23.3444,33.61051 30.4953,56.45905 30.4573,97.31666 -0.018,18.95247 -2.4026,38.58118 -6.4562,53.13678 -2.6168,9.396 -2.3699,9.76212 13.4393,19.92968 29.901,19.23068 61.3661,26.64716 109.451,25.79817 20.7807,-0.36691 25.787,-0.89368 37.322,-3.92706 z"
       id="path13" />
    <path
       style="fill:#15cffd;fill-opacity:1"
       d="m 2038.0532,556.59732 c 29.606,-7.70937 54.487,-42.49742 63.2935,-88.49589 8.5968,-44.90246 2.2685,-84.13497 -18.7399,-116.17872 C 2078.9731,346.3802 2076,341.2479 2076,340.5176 c 0,-2.30899 -8.4678,-9.63284 -13.6238,-11.78337 -2.7265,-1.13716 -7.9336,-2.06757 -11.5715,-2.06757 -7.3919,0 -10.8047,-2.3163 -10.8047,-7.33333 0,-5.50724 3.0538,-7.16626 11.741,-6.37853 15.952,1.44648 25.4892,-7.0377 23.8137,-21.18448 -0.9269,-7.82611 -3.0664,-11.10619 -10.5371,-16.15446 -5.1632,-3.48907 -6.5398,-3.7988 -15.0176,-3.37909 -6.3612,0.31492 -11.1509,1.41226 -15.0411,3.44597 -3.1392,1.64116 -5.9414,2.98392 -6.227,2.98392 -0.2856,0 -2.9626,-7.41237 -5.9489,-16.47193 -11.4909,-34.85984 -27.8573,-68.57667 -45.4497,-93.63178 -5.5,-7.83313 -10.74,-15.57511 -11.6444,-17.20438 -2.2827,-4.11202 -20.8676,-21.67927 -30.4303,-28.76401 -22.0473,-16.33423 -40.0886,-22.843539 -56.0041,-20.20626 -13.5281,2.24168 -25.1015,8.6003 -37.0942,20.38013 l -10.5064,10.31989 6.2775,7.70629 c 12.7324,15.63036 17.427,30.32881 16.3547,51.20539 -2.1392,41.64634 -24.0416,89.67354 -53.2244,116.70927 -8.4694,7.84624 -25.5654,19.70287 -34.6528,24.03285 -5.4826,2.6123 -5.5007,2.8285 -1.5042,17.92454 4.0446,15.27742 7.3556,21.86236 14.9171,29.66667 4.0854,4.21666 7.8508,7.66666 8.3675,7.66666 3.2375,0 9.0051,-7.39932 11.1354,-14.28566 5.0493,-16.32233 10.3057,-22.69452 17.2773,-20.94475 1.9531,0.4902 4.4096,2.20145 5.4588,3.80278 1.7125,2.61354 1.3727,4.84737 -3.32,21.8261 -9.7357,35.22496 -11.8566,51.19704 -9.4577,71.22332 3.8968,32.53036 16.1284,61.44913 34.1504,80.74058 8.1433,8.71692 25.2186,19.55966 36.1182,22.9349 40.2674,12.46945 80.8599,-7.75006 96.3861,-48.01082 7.8006,-20.22782 9.6509,-40.24509 5.9954,-64.86331 -3.7757,-25.42828 -10.8633,-45.11425 -22.418,-62.26636 -3.4,-5.04711 -6.1819,-9.59571 -6.1819,-10.108 0,-1.06294 -17.3819,-17.468 -24.5603,-23.1801 -11.0092,-8.76034 -1.486,-18.98041 10.6799,-11.46144 2.4389,1.50732 7.2405,5.85732 10.6702,9.66667 3.4297,3.80935 5.4051,5.72609 4.3897,4.25943 -1.7041,-2.46157 -1.6642,-2.52387 0.5194,-0.81 1.3011,1.02116 2.0578,2.1644 1.6817,2.54051 -0.3761,0.37612 1.9046,3.74062 5.0683,7.47667 16.6025,19.60624 26.0345,38.62512 33.1406,66.82548 2.5732,10.21144 3.0177,15.48871 3.0296,35.96733 0.012,21.14525 -0.3599,25.34808 -3.1292,35.33334 -3.3763,12.17454 -12.3075,32.43925 -17.9681,40.76963 l -3.4821,5.12431 5.9762,3.71969 c 3.287,2.04584 6.5055,3.7197 7.1524,3.7197 0.6469,0 4.5238,1.53262 8.6154,3.40582 8.3397,3.818 21.4847,6.99509 29.6029,7.15485 2.9626,0.0583 8.9626,-0.82521 13.3333,-1.96334 z"
       id="path12" />
    <path
       style="fill:#014a5d;fill-opacity:1"
       d="m 1915.0382,263.32851 c -3.9178,-2.76838 -5.2984,-8.53333 -7.0235,-29.32851 -2.247,-27.08452 -6.6371,-41.89006 -14.0354,-47.33334 -2.4918,-1.83333 -5.2652,-5.06984 -6.163,-7.19225 -1.4656,-3.46459 -1.3202,-4.11177 1.4234,-6.33333 4.6015,-3.72609 11.9807,-3.20934 17.2739,1.20965 4.3405,3.62355 5.3784,5.68847 11.5524,22.9826 7.1971,20.16031 11.9966,57.09663 8.3161,64 -2.1386,4.01118 -7.2248,4.90575 -11.3439,1.99518 z"
       id="path11" />
    <path
       style="fill:#15cffd;fill-opacity:1"
       d="m 2856.8159,568.62866 c 29.6516,-3.11387 53.2386,-9.32065 76.2898,-20.07527 23.1006,-10.7777 41.307,-26.91435 49.7686,-44.11098 4.0965,-8.32519 4.4507,-10.03967 4.3566,-21.08556 -0.1178,-13.81925 -2.2083,-19.70754 -11.9385,-33.62675 -3.2775,-4.68849 -5.9591,-8.99735 -5.9591,-9.57524 0,-1.87817 -17.7717,-18.14555 -26.6666,-24.40941 -4.7667,-3.35671 -13.6814,-8.61185 -19.8104,-11.67809 l -11.1437,-5.57499 -14.7946,5.54504 c -20.7136,7.7635 -32.5868,9.78014 -52.2513,8.87482 -25.0326,-1.15245 -42.2871,-5.71018 -67.3334,-17.78588 -16.2591,-7.8391 -21.3333,-11.46925 -21.3333,-15.262 0,-2.62395 5.9823,-7.86436 8.9778,-7.86436 1.0733,0 12.2424,3.83995 24.8202,8.53322 29.6949,11.08036 43.5264,14.48576 58.8687,14.49389 18.7715,0.01 32.188,-4.33109 46.8408,-15.15578 9.934,-7.33863 14.7975,-15.05486 17.0414,-27.03696 1.4718,-7.85912 -1.6205,-22.62161 -5.7831,-27.60765 l -3.4861,-4.1758 -13.9732,4.07955 c -20.3701,5.94718 -29.3043,7.33757 -41.6957,6.4889 -22.2279,-1.52238 -46.4427,-10.64114 -60.7197,-22.86575 -3.9099,-3.34782 -7.5422,-6.08695 -8.0719,-6.08695 -1.4223,0 -14.3794,-17.5397 -15.3587,-20.7905 -1.1036,-3.66384 3.7449,-9.87617 7.7081,-9.87617 3.2617,0 11.8117,7.99321 12.3304,11.52751 0.3364,2.2918 13.9394,16.8119 14.8742,15.87703 0.2913,-0.29122 3.3264,1.09569 6.7448,3.08203 19.9572,11.59651 36.0371,15.08538 57.209,12.41267 25.5929,-3.23079 49.8367,-14.32746 69.8363,-31.96484 9.9241,-8.75196 22.6229,-22.98385 26.4122,-29.60106 1.0499,-1.83334 4.8658,-8.13334 8.4799,-14 7.0812,-11.4948 12.6018,-26.62916 16.293,-44.66667 3.0327,-14.81994 2.1198,-40.16424 -1.9615,-54.45152 -2.8204,-9.87362 -7.6652,-20.62139 -12.1852,-27.03231 -1.3509,-1.91611 -2.1599,-3.78017 -1.7977,-4.14236 1.3616,-1.36163 -18.1894,-18.307689 -26.2955,-22.791851 -17.7803,-9.835839 -37.1249,-13.101615 -57.1434,-9.646997 -47.2052,8.146281 -84.979,39.083938 -108.4206,88.799188 -2.6109,5.53712 -5.8727,11.08622 -7.2485,12.33134 -2.3657,2.14087 -2.6516,2.10099 -5.2635,-0.73415 -1.5191,-1.6489 -4.926,-8.26277 -7.571,-14.69749 -2.645,-6.43472 -6.7559,-15.01931 -9.1353,-19.07688 -2.3794,-4.05756 -5.15,-8.9928 -6.1568,-10.96718 -4.4707,-8.76731 -17.4026,-19.00308 -26.3646,-20.868 -14.0238,-2.91824 -29.2384,18.6056 -36.4125,51.51216 -1.3187,6.04906 -1.1836,6.51854 4.5573,15.83005 7.3833,11.97523 13.3488,28.25226 15.4966,42.28274 3.0009,19.60311 -2.6688,39.16009 -15.4854,53.41527 l -6.0423,6.72047 5.7074,3.94525 c 3.1391,2.16989 15.0383,13.46133 26.4428,25.0921 19.2009,19.58196 21.1909,22.08418 26.8912,33.8135 13.6284,28.04272 20.038,54.42858 19.9191,82 -0.1979,45.8966 -13.6265,81.82757 -44.1798,118.21234 l -4.0971,4.87901 14.3656,4.75928 c 44.0661,14.59896 89.9858,19.59427 135.8482,14.77804 z"
       id="path10" />
    <path
       style="fill:#15cffd;fill-opacity:1"
       d="m 3230.5151,569.36421 c 31.7088,-6.46183 59.5328,-22.08134 85.5354,-48.0167 11.7173,-11.68699 15.0735,-16.00691 20.2106,-26.01419 3.3881,-6.6 7.1867,-15.54901 8.4414,-19.8867 3.0416,-10.51492 2.2007,-25.643 -1.9331,-34.77996 -1.6589,-3.66667 -3.1529,-7.46458 -3.3199,-8.4398 -0.5094,-2.9737 -9.8719,-12.10375 -17.2551,-16.82674 -3.8386,-2.45549 -12.3526,-6.41144 -18.9201,-8.791 -11.0893,-4.0179 -13.4375,-4.37166 -32.9243,-4.96001 l -20.9833,-0.63354 -3.7855,4.05238 c -2.082,2.22881 -9.9901,13.2503 -17.5735,24.49221 -18.703,27.72609 -34.6175,48.87356 -41.3716,54.97547 -4.9202,4.44514 -5.8454,4.82649 -7.557,3.11492 -1.0727,-1.07268 -2.2413,-4.28289 -2.597,-7.13378 -0.8805,-7.05682 4.6933,-16.14015 27.1323,-44.21672 12.1814,-15.24181 19.5786,-25.91865 23.9825,-34.61536 6.0181,-11.88445 6.3618,-13.13724 6.2552,-22.79678 -0.1544,-13.99782 -1.1141,-17.63697 -5.7548,-21.82246 -6.1371,-5.53514 -12.4812,-6.7073 -24.1796,-4.46751 -9.2544,1.77188 -15.8426,3.62338 -41.251,11.59293 -8.5711,2.68838 -12.7627,3.137 -29.3334,3.13952 -20.7887,0.003 -30.457,-1.73941 -35.6666,-6.42839 -3.7029,-3.33284 -3.8495,-7.71996 -0.3633,-10.87493 2.9125,-2.63576 5.3686,-2.48954 22.6966,1.35129 14.781,3.27628 42.9599,2.03611 59.8584,-2.63439 16.4766,-4.55393 31.0935,-10.98788 43.0383,-18.94427 20.9881,-13.98011 43.5681,-41.03659 52.7481,-63.20517 5.8927,-14.23039 11.0219,-38.51599 11.0219,-52.18679 0,-20.70302 -6.3261,-48.45124 -14.9878,-65.74108 -7.3862,-14.74396 -20.5743,-33.37861 -29.2036,-41.26439 -15.8614,-14.494795 -35.8349,-25.157317 -57.8086,-30.860205 -16.1089,-4.18076 -44.8835,-5.759824 -60.6667,-3.329208 -41.2763,6.356554 -78.264,30.106343 -102.5243,65.830883 l -4.3307,6.37708 2.8746,8.63821 c 17.4854,52.54359 0.5764,113.57943 -43.6526,157.57174 -10.3303,10.27499 -27.9367,24.38267 -32.3944,25.95707 -0.6418,0.22668 1.0518,4.87182 3.7636,10.32252 4.3555,8.75476 4.985,11.28675 5.3982,21.71411 0.3809,9.61159 -0.105,13.55092 -2.6164,21.21152 -2.7968,8.53095 -2.8829,9.52044 -0.9241,10.61665 8.877,4.96784 36.984,31.29402 51.9656,48.67329 22.7885,26.43536 30.7902,48.145 26,70.54073 -1.0979,5.13333 -2.3874,10.31866 -2.8654,11.52296 -1.2555,3.1631 9.4747,7.11734 15.9946,5.89421 12.1102,-2.2719 22.7167,-19.69623 30.4876,-50.0853 3.8706,-15.13637 4.8139,-21.81508 5.932,-41.99854 1.4054,-25.37337 2.431,-30.27936 6.8205,-32.62858 3.5238,-1.88585 53.5051,1.53311 68.7379,4.702 11.3318,2.35736 14,3.68411 14,6.96142 0,1.12291 -8.6509,10.61987 -19.2241,21.10435 -10.5732,10.48448 -21.1343,21.83916 -23.4691,25.23262 -13.4465,19.54391 -16.1832,47.41783 -6.5737,66.95692 4.2563,8.65449 15.1218,21.60662 18.6002,22.17228 1.1,0.17888 5.0567,1.90217 8.7927,3.82952 6.1118,3.15305 19.9018,6.62315 32.5406,8.18851 10.3662,1.28389 40.038,-0.47628 53.1818,-3.15482 z"
       id="path9" />
    <path
       style="fill:#014a5d;fill-opacity:1"
       d="m 3155.9732,279.94987 c -1.1145,-2.08241 -0.7867,-5.38063 1.404,-14.1249 6.1932,-24.72139 3.038,-52.71459 -8.7457,-77.59009 -6.223,-13.13691 -6.8775,-16.0382 -4.5846,-20.32254 3.1825,-5.94653 14.6447,-1.16801 17.1467,7.1483 0.7069,2.34998 2.7881,7.87269 4.6248,12.27269 7.8209,18.73559 11.4963,53.65511 7.5784,72 -2.3159,10.84351 -7.3446,20.45936 -11.5321,22.05145 -4.3898,1.66899 -4.2065,1.71365 -5.8915,-1.43491 z"
       id="path8" />
    <path
       style="fill:#014a5d;fill-opacity:1"
       d="m 187.92855,636.45017 c -1.21689,-3.68723 -1.25566,-7.0343 -0.15827,-13.66667 0.79932,-4.83093 1.83509,-13.09562 2.30171,-18.36596 l 0.84841,-9.58245 -5.12687,-0.93507 C 169.36442,590.90356 147.58777,580.76801 130.66667,568.2422 118.88653,559.52199 89.18197,530.81524 79.888889,519.17011 59.587368,493.73033 49.251336,464.41875 49.230785,432.22789 c -0.01047,-16.40174 2.337211,-29.06959 8.209263,-44.29632 3.763042,-9.7579 15.439302,-29.33624 18.696177,-31.3491 0.726087,-0.44875 -4.99578,-7.3533 -12.71526,-15.34344 C 55.701486,333.24888 46.149483,322.33567 42.194293,316.98746 0.19540778,260.19652 -0.03373082,183.81624 41.62822,128.29476 64.798514,97.416492 99.957331,79.143628 137.33333,78.554564 c 8.7519,-0.137934 46.34036,6.023985 53.49509,8.769511 1.5746,0.604234 3.79726,-1.453662 8.1876,-7.58068 16.1431,-22.528798 40.0732,-39.641516 67.54824,-48.304611 16.4377,-5.182933 29.02999,-4.900327 40.76907,0.914972 6.16261,3.052827 38.02558,33.832041 42.91503,41.455345 7.17922,11.193388 8.90525,26.571009 5.06255,45.103729 -1.8385,8.86677 -11.69098,38.82469 -25.66434,78.03621 l -5.32722,14.94904 8.4105,3.93576 c 10.29635,4.81824 21.67907,12.45428 30.81034,20.66896 l 6.87353,6.18356 0.86643,-7.00985 c 2.23031,-18.04437 7.94383,-49.84106 11.51381,-64.07627 12.27992,-48.96589 30.98792,-73.100242 56.66443,-73.100242 13.57178,0 28.91133,8.613132 45.06198,25.302212 l 5.18703,5.35997 9.84238,-6.64157 c 39.85787,-26.895817 80.42954,-33.44993 118.45775,-19.13615 22.20066,8.35631 37.77609,18.13156 54.98781,34.51074 l 11.7767,11.20706 5.88379,-12.04775 c 11.79189,-24.14528 33.42485,-42.726381 57.96659,-49.788981 11.45272,-3.295855 29.20612,-2.085756 41.48835,2.827908 20.89392,8.358885 34.55028,18.511803 64.34355,47.836693 32.23988,31.73304 46.58731,50.74369 64.21235,85.08278 4.03333,7.85819 7.63878,14.295 8.01211,14.30402 0.37334,0.009 1.72525,-4.63942 3.00425,-10.32986 12.7677,-56.805 46.09248,-112 77.11207,-127.718829 21.4548,-10.871967 48.3698,-8.961653 68.8854,4.889199 8.9935,6.07188 43.1658,39.98216 52.2431,51.84256 9.7096,12.68662 13.9228,19.39935 20.3964,32.49653 l 5.1882,10.49654 4.6659,-13.82987 c 5.7964,-17.18042 16.7876,-39.89499 25.8858,-53.49581 3.8015,-5.68293 11.8687,-15.02459 17.9269,-20.75923 14.1291,-13.374375 26.3671,-19.69842 42.1914,-21.802569 10.0168,-1.331937 12.3039,-1.191819 22.4123,1.373065 18.4173,4.673147 26.6521,10.486874 54.8426,38.718654 31.9931,32.03996 41.3602,46.26599 55.1455,83.75079 19.0156,51.70661 27.7199,100.03508 27.8058,154.38523 0.054,34.07732 -1.8751,53.96628 -8.3364,85.95268 -11.7592,58.21369 -28.0634,93.86421 -56.0106,122.47204 -19.6267,20.09056 -42.9772,28.21682 -65.964,22.95632 -14.4046,-3.29646 -24.1341,-9.99526 -45.4951,-31.32348 -21.4251,-21.39236 -29.7398,-32.50032 -39.9647,-53.3909 -7.861,-16.06081 -15.6731,-40.4566 -19.2136,-60 -3.5058,-19.3525 -4.3046,-22.30647 -6.2016,-22.93604 -0.9784,-0.32469 -1.775,4.64188 -2.3874,14.88581 -1.8317,30.63667 -8.5284,62.12754 -18.1574,85.38356 -3.0363,7.33334 -6.102,16.03334 -6.8126,19.33334 -0.7399,3.43617 -1.0802,23.19603 -0.7963,46.24305 0.2726,22.13368 -0.031,41.18368 -0.6741,42.33333 -0.6434,1.14966 -2.6159,2.09028 -4.3833,2.09028 -4.8438,0 -6.9192,-7.98797 -4.7492,-18.27942 0.8954,-4.24632 1.9555,-19.72058 2.356,-34.38725 l 0.7281,-26.66666 -8.1766,10.89887 c -26.9844,35.9688 -63.2827,41.56188 -97.5579,15.03234 -3.9899,-3.08827 -11.9047,-10.17245 -17.5885,-15.74263 l -10.33411,-10.12759 -4.33254,5.29045 c -29.10257,35.53696 -70.30171,40.88851 -112.46589,14.60874 l -9.72216,-6.05956 -6.40558,4.55173 c -15.14388,10.76105 -29.48322,15.53944 -49.58916,16.52492 l -15.18356,0.74422 0.9277,19.08215 c 1.01419,20.86084 0.24081,24.52969 -5.17074,24.52969 -4.8721,0 -6.81664,-7.26646 -4.96403,-18.54982 0.79319,-4.83093 1.8089,-12.73332 2.25713,-17.56087 l 0.81497,-8.77735 -11.3527,-3.69298 c -14.9846,-4.87442 -27.39522,-13.21281 -46.07061,-30.95369 -38.86631,-36.92148 -54.12309,-65.11822 -59.77086,-110.46529 -1.18734,-9.53333 -2.22451,-17.46643 -2.30483,-17.62912 -0.0803,-0.16268 -4.76517,2.12465 -10.41078,5.08295 -31.44126,16.47526 -66.85139,19.89695 -100.19028,9.68141 -5.90214,-1.8085 -11.95203,-3.59903 -13.44419,-3.97896 -2.51025,-0.63913 -2.94191,0.56161 -5.77564,16.06599 -1.68445,9.21622 -4.83511,24.11148 -7.00146,33.10058 l -3.93882,16.34382 -0.51238,64.28836 c -0.28181,35.35859 -0.8957,64.90859 -1.36422,65.66666 -0.46851,0.75807 -2.29234,1.37831 -4.05296,1.37831 -4.86507,0 -6.9183,-8.03358 -4.67187,-18.27942 2.3483,-10.7105 3.38305,-87.84437 1.11417,-83.05391 -0.86831,1.83333 -3.54383,7.57608 -5.94559,12.76166 -8.53541,18.42863 -20.40169,30.80526 -33.2392,34.66878 -6.81376,2.05064 -17.68122,0.79076 -24.79838,-2.87492 -2.43868,-1.25604 -13.03212,-10.74487 -23.54099,-21.08628 -20.26754,-19.94461 -27.56501,-29.84115 -35.55229,-48.21467 -2.40738,-5.53779 -4.66919,-10.36086 -5.02626,-10.71792 -0.35707,-0.35707 -3.81209,3.42611 -7.67782,8.40707 -10.41712,13.42233 -29.73168,31.86216 -44.02338,42.02962 -37.47668,26.66179 -92.95147,44.26906 -132.39216,42.02026 l -11.93529,-0.68052 0.92243,19.80907 c 1.00571,21.5976 0.2673,25.21118 -5.15171,25.21118 -2.48237,0 -3.53777,-1.07489 -4.79461,-4.88315 z"
       id="path7" />
    <path
       style="fill:#15cffd;fill-opacity:1"
       d="m 458.78084,544.7837 c 10.17624,-6.91494 21.26706,-28.58897 29.85876,-58.351 5.20831,-18.04177 17.03506,-74.13508 15.98792,-75.82938 -0.36103,-0.58417 -7.52935,-5.39829 -15.92959,-10.69806 -20.09112,-12.6756 -25.67585,-20.77521 -19.95566,-28.94193 1.14158,-1.62983 3.46321,-2.96334 5.15916,-2.96334 3.29014,0 15.95641,9.33068 18.09775,13.33181 1.69017,3.15811 19.05758,14.93631 30.36692,20.59419 18.03103,9.02063 26.34609,10.74469 51.6339,10.70586 22.17948,-0.034 22.9452,-0.13052 35.62559,-4.48809 48.30635,-16.60031 82.84123,-59.99204 93.17576,-117.07167 2.40173,-13.26523 2.72751,-18.77722 2.07292,-35.0721 -0.8189,-20.38512 -3.16161,-32.73221 -9.61338,-50.66666 -4.40974,-12.25808 -12.71828,-29.0204 -17.99517,-36.30494 -2.16281,-2.98567 -3.93239,-6.11791 -3.93239,-6.96053 0,-2.75197 -19.10137,-20.91098 -29.14224,-27.7045 -35.86181,-24.26367 -74.91105,-28.07358 -112.01779,-10.92921 -16.06477,7.42238 -34.41296,20.5351 -51.93812,37.1181 C 471.25621,169.04851 462.92732,176 461.72654,176 c -4.10993,0 -7.06013,-4.12881 -7.05489,-9.87332 0.006,-6.30238 2.30944,-10.43445 11.8217,-21.20427 3.76199,-4.25934 6.83998,-8.24471 6.83998,-8.85638 0,-2.00102 -15.51971,-15.53428 -20.55406,-17.92323 -16.33498,-7.75146 -29.51379,-0.85228 -41.11533,21.52409 -10.48176,20.21661 -18.36668,52.74539 -24.42605,100.76821 l -2.15785,17.10178 9.20717,9.56489 c 22.59122,23.46895 36.94595,53.08084 41.78952,86.20619 2.00453,13.70906 0.91498,43.45163 -2.10119,57.3587 -3.70476,17.08196 -11.27988,37.97418 -20.92559,57.71283 -10.63523,21.76357 -10.58627,19.28224 -0.81856,41.48085 8.83004,20.0676 20.23513,35.26899 27.23155,36.29584 1.16311,0.17071 2.45977,0.6554 2.88146,1.07709 2.04733,2.04733 12.00191,0.56377 16.43644,-2.44957 z"
       id="path6" />
    <path
       style="fill:#014a5d;fill-opacity:1"
       d="m 562.66667,322.66666 c -3.53058,-3.53057 -3.51561,-12.43511 0.0364,-21.65236 3.63667,-9.43695 7.96366,-28.99806 7.96338,-36.00019 -1.3e-4,-3.12443 -0.95137,-10.48078 -2.11387,-16.34745 -2.75812,-13.91904 -2.98245,-33.36386 -0.44609,-38.66666 2.51278,-5.25351 7.55813,-5.94815 11.6405,-1.60266 1.64583,1.7519 3.21582,4.32919 3.48886,5.7273 0.27304,1.39811 1.76092,6.28569 3.30639,10.86128 3.74448,11.08603 5.47105,29.0961 4.0909,42.67267 -2.17395,21.38528 -11.45181,49.14684 -18.26997,54.66811 -4.55547,3.68897 -6.28678,3.74967 -9.69649,0.33996 z"
       id="path5" />
    <path
       style="fill:#15cffd;fill-opacity:1"
       d="m 219.18674,553.98827 c 6.34482,-1.10644 19.47342,-4.62432 29.17465,-7.8175 56.30406,-18.53258 97.65059,-54.28485 124.26701,-107.45343 23.30242,-46.54859 29.39768,-87.72907 18.65718,-126.05068 -3.68409,-13.14467 -11.5562,-30.70366 -17.89682,-39.91944 -2.23049,-3.2419 -4.05543,-6.41648 -4.05543,-7.05464 0,-0.63815 -3.00806,-4.53525 -6.68459,-8.66022 -11.5361,-12.94321 -27.59949,-23.62122 -45.64507,-30.34219 -31.08453,-11.57725 -78.37799,-7.88748 -121.67034,9.49254 -20.72908,8.32184 -31.79955,15.10588 -58.992,36.15062 -2.60579,2.01666 -5.80504,3.66666 -7.10946,3.66666 -3.49548,0 -7.89854,-6.37028 -7.89854,-11.42749 0,-3.84838 1.21423,-5.39335 9.66667,-12.29978 38.32357,-31.31395 75.52493,-45.58622 134.71017,-51.68144 5.22669,-0.53828 8.74151,-1.7277 10.91203,-3.69266 2.33473,-2.11362 7.52245,-15.21335 19.15555,-48.37053 18.25976,-52.044738 20.80631,-61.750294 19.82856,-75.571655 -0.869,-12.284177 -1.17304,-13.480323 -4.60699,-18.124994 -3.58012,-4.842369 -15.41401,-10.831442 -21.40199,-10.831442 -11.90155,0 -36.39224,9.759111 -51.38869,20.477496 -11.08776,7.924729 -28.87531,27.106029 -28.87531,31.137842 0,1.567407 9.85408,8.384663 12.11971,8.384663 4.33161,0 31.87375,29.40223 31.84904,34 -0.004,0.73333 -2.94808,2.95499 -6.54254,4.93703 l -6.53536,3.6037 -2.14283,-3.27037 C 236.9028,141.47166 236.38502,140 236.93074,140 c 2.04875,0 -16.56654,-17.77865 -23.85809,-22.78582 -15.75072,-10.81616 -24.428,-14.15336 -48.45705,-18.636145 -21.05207,-3.927412 -23.21339,-4.098085 -34.14421,-2.696263 -27.53983,3.531842 -48.478504,14.013458 -67.332171,33.705588 -43.286063,45.21109 -48.289324,119.89663 -11.686712,174.4519 5.418543,8.0762 27.51363,32.8157 25.117835,28.12402 -0.515854,-1.0102 3.494789,1.47508 8.912538,5.52284 11.848094,8.85207 22.0315,14.07481 37.18379,19.07039 10.30853,3.39863 13.1418,3.74435 31.33333,3.82332 23.18982,0.10068 30.36354,-1.4133 49.26313,-10.39675 18.95485,-9.00971 35.60998,-24.0194 47.44331,-42.75615 5.643,-8.93506 8.54545,-10.9051 14.03615,-9.52702 4.14034,1.03916 5.1221,5.12567 3.23714,13.47439 -6.70712,29.70662 -2.77293,52.78551 13.02648,76.41646 6.81867,10.19858 8.32397,13.37359 7.63744,16.10898 -0.95736,3.81443 -2.8125,5.38295 -6.40235,5.41317 -1.33395,0.0112 -9.14993,-6.72959 -17.36885,-14.97958 -11.4317,-11.47494 -17.59852,-16.49431 -26.2413,-21.35864 -19.13553,-10.76986 -19.64138,-10.80871 -40.7625,-3.13042 -28.17345,10.24206 -54.93372,10.10676 -87.87188,-0.44427 -6.98243,-2.23667 -13.967303,-4.06667 -15.521944,-4.06667 -4.394801,0 -11.19099,8.31004 -17.777298,21.7372 -7.746299,15.79197 -10.140747,25.0064 -10.982336,42.26279 -1.604821,32.90613 10.297155,64.6351 33.348395,88.90206 5.056643,5.32333 9.585963,9.55345 10.065153,9.40028 0.47919,-0.15318 4.82451,2.54976 9.65627,6.00653 11.59132,8.29276 26.85344,15.42697 41.03646,19.18231 14.18665,3.75631 41.43539,4.29048 59.36527,1.16377 z"
       id="path4" />
    <path
       style="fill:#15cffd;fill-opacity:1"
       d="m 918.0532,556.59732 c 29.60605,-7.70937 54.48697,-42.49742 63.29355,-88.49589 8.59674,-44.90246 2.26844,-84.13497 -18.73993,-116.17872 C 958.97307,346.3802 956,341.2479 956,340.5176 c 0,-2.30899 -8.46779,-9.63284 -13.62384,-11.78337 -2.72645,-1.13716 -7.93359,-2.06757 -11.57143,-2.06757 -7.39196,0 -10.80473,-2.3163 -10.80473,-7.33333 0,-5.50724 3.05378,-7.16626 11.74103,-6.37853 15.952,1.44648 25.48912,-7.0377 23.81364,-21.18448 -0.92688,-7.82611 -3.06637,-11.10619 -10.53703,-16.15446 -5.16327,-3.48907 -6.53982,-3.7988 -15.01764,-3.37909 -6.36121,0.31492 -11.15091,1.41226 -15.04106,3.44597 -3.13925,1.64116 -5.9414,2.98392 -6.227,2.98392 -0.2856,0 -2.96262,-7.41237 -5.94894,-16.47193 -11.4909,-34.85984 -27.85734,-68.57667 -45.44967,-93.63178 -5.5,-7.83313 -10.74,-15.57511 -11.64446,-17.20438 -2.28269,-4.11202 -20.8676,-21.67927 -30.4303,-28.76401 -22.04725,-16.33423 -40.08859,-22.843539 -56.00406,-20.20626 -24.87655,4.12218 -50.48685,28.03746 -59.196,55.27811 -1.56034,4.88044 -1.45885,5.16677 4.2532,12 18.83799,22.53554 32.62304,51.75357 39.15948,83.00025 3.39406,16.22488 3.43862,52.19017 0.0856,69.05651 -6.69738,33.68877 -22.17478,64.44856 -43.76657,86.98167 -9.96507,10.39951 -10.28398,10.93753 -11.18061,18.86271 -1.90115,16.8039 4.30744,49.70505 13.0393,69.09911 9.81413,21.79788 22.24431,36.90009 39.01779,47.40519 29.60313,18.54022 62.30152,17.20379 90.08565,-3.68191 15.32582,-11.52062 26.99139,-32.86304 31.22153,-57.12044 2.56829,-14.72768 2.55822,-25.34396 -0.0406,-42.84637 -3.77573,-25.42828 -10.86335,-45.11425 -22.41801,-62.26636 -3.40003,-5.04711 -6.18187,-9.59571 -6.18187,-10.108 0,-1.06294 -17.38189,-17.468 -24.56035,-23.1801 -11.00923,-8.76034 -1.48601,-18.98041 10.67994,-11.46144 2.43889,1.50732 7.24047,5.85732 10.67019,9.66667 3.42972,3.80935 5.40509,5.72609 4.38971,4.25943 -1.70416,-2.46157 -1.66422,-2.52387 0.5194,-0.81 1.30106,1.02116 2.05782,2.1644 1.68171,2.54051 -0.37612,0.37612 1.9046,3.74062 5.06827,7.47667 16.60249,19.60624 26.03447,38.62512 33.14061,66.82548 2.57315,10.21144 3.01766,15.48871 3.02956,35.96733 0.0123,21.14525 -0.35991,25.34808 -3.12913,35.33334 -3.37637,12.17454 -12.30752,32.43925 -17.96815,40.76963 l -3.48206,5.12431 5.97622,3.71969 c 3.28692,2.04584 6.50548,3.7197 7.15236,3.7197 0.64688,0 4.52382,1.53262 8.61544,3.40582 8.3396,3.818 21.48467,6.99509 29.60282,7.15485 2.96259,0.0583 8.96259,-0.82521 13.33333,-1.96334 z"
       id="path3" />
    <path
       style="fill:#014a5d;fill-opacity:1"
       d="m 795.03825,263.32851 c -3.91782,-2.76838 -5.2984,-8.53333 -7.02357,-29.32851 -2.24694,-27.08452 -6.63711,-41.89006 -14.03541,-47.33334 -2.49179,-1.83333 -5.26513,-5.06984 -6.16296,-7.19225 -1.46562,-3.46459 -1.32018,-4.11177 1.42334,-6.33333 4.60152,-3.72609 11.98076,-3.20934 17.27399,1.20965 4.34043,3.62355 5.37838,5.68847 11.55233,22.9826 7.19716,20.16031 11.99662,57.09663 8.31608,64 -2.13857,4.01118 -7.22474,4.90575 -11.3438,1.99518 z"
       id="path2" />
    <path
       style="fill:#15cffd;fill-opacity:1"
       d="m 1057.8094,560.07062 c 19.0134,-9.12149 36.4968,-33.26401 47.9103,-66.15848 8.5089,-24.52319 13.9068,-54.60337 14.5991,-81.35382 l 0.3479,-13.44167 -4.8135,-5.89166 c -8.1864,-10.02008 -17.3019,-25.0311 -22.5551,-37.14293 -6.1852,-14.26081 -11.9648,-32.28055 -11.9648,-37.30442 0,-4.98371 4.6832,-10.77765 8.7115,-10.77765 4.1374,0 8.4431,4.68824 8.4044,9.15109 -0.037,4.22462 11.8084,34.47641 18.4417,47.09964 6.8933,13.11811 18.482,25.28063 26.2633,27.56385 9.4528,2.77368 14.6969,1.17489 22.833,-6.96117 12.2313,-12.2313 16.745,-21.64562 26.8129,-55.92426 2.6271,-8.94436 5.523,-17.04233 6.4355,-17.99549 3.2482,-3.39308 13.3992,-1.90156 14.6877,2.15811 0.4223,1.3304 -1.0349,9.70767 -3.238,18.61616 -6.4764,26.18662 -12.165,39.46082 -24.8457,57.97671 -8.3809,12.2375 -8.2524,11.03258 -4.3949,41.23306 5.5956,43.80832 17.3626,77.35587 35.923,102.41563 8.7115,11.76208 12.2972,14.88463 23.9656,20.87025 9.4285,4.83656 10.6899,5.12975 22.0701,5.12975 11.1287,0 12.7792,-0.35996 21.1623,-4.61521 21.5518,-10.93966 46.3503,-44.59598 57.4955,-78.03246 9.4462,-28.3394 17.8593,-69.77064 20.7162,-102.01899 1.8993,-21.43947 0.9305,-62.00733 -1.9955,-83.56184 -7.28,-53.6281 -25.8795,-111.67208 -45.0018,-140.43816 -3.1687,-4.76666 -6.0654,-9.34092 -6.4373,-10.16501 -1.2052,-2.67074 -9.8956,-11.66743 -18.0499,-18.68591 -38.6284,-33.247999 -81.1736,-14.02247 -109.5801,49.51759 -10.6668,23.85963 -16.8844,45.90567 -22.3766,79.34146 -2.9851,18.17304 -3.7999,21.01948 -6.7725,23.65854 -3.6812,3.26821 -6.1094,3.69373 -9.8018,1.71762 -3.4304,-1.83591 -4.5744,-5.37792 -12.0739,-37.38429 -7.828,-33.40842 -12.8648,-49.38801 -20.8031,-66 -5.3208,-11.13445 -7.4905,-14.73898 -18.9562,-31.49169 -6.5606,-9.58583 -20.4931,-21.79839 -30.4785,-26.71597 -8.3465,-4.11049 -10.0467,-4.459 -21.7522,-4.459 -11.5493,0 -13.5222,0.39036 -21.8088,4.31512 -31.13944,14.74852 -60.08545,65.50441 -74.05676,129.85616 l -2.49775,11.50462 6.83265,3.06366 c 9.45816,4.2409 40.91841,35.05479 45.45243,44.5186 6.46125,13.48652 5.30771,28.04702 -3.00903,37.98116 l -3.82817,4.57266 9.32603,13.42734 c 23.4014,33.69267 30.3452,55.81502 30.3712,96.76067 0.02,31.64911 -5.1962,57.13173 -16.8645,82.38636 -4.6878,10.14621 -5.4085,12.53109 -3.6153,11.96414 0.55,-0.17389 3.7,1.51461 7,3.75222 16.1978,10.98314 31.264,12.94592 45.8094,5.96791 z"
       id="path1" />
  </g>
</svg>
