<?xml version="1.0" encoding="UTF-8" standalone="no"?>
<!-- Created with Inkscape (http://www.inkscape.org/) -->

<svg
   version="1.1"
   id="svg1"
   width="533.33331"
   height="666.66669"
   viewBox="0 0 533.33331 666.66669"
   sodipodi:docname="T.svg"
   inkscape:version="1.4.3 (0d15f75042, 2025-12-25)"
   xmlns:inkscape="http://www.inkscape.org/namespaces/inkscape"
   xmlns:sodipodi="http://sodipodi.sourceforge.net/DTD/sodipodi-0.dtd"
   xmlns="http://www.w3.org/2000/svg"
   xmlns:svg="http://www.w3.org/2000/svg">
  <defs
     id="defs1" />
  <sodipodi:namedview
     id="namedview1"
     pagecolor="#ffffff"
     bordercolor="#000000"
     borderopacity="0.25"
     inkscape:showpageshadow="2"
     inkscape:pageopacity="0.0"
     inkscape:pagecheckerboard="0"
     inkscape:deskcolor="#d1d1d1"
     inkscape:zoom="0.034499999"
     inkscape:cx="275.36233"
     inkscape:cy="333.33334"
     inkscape:window-width="1706"
     inkscape:window-height="1066"
     inkscape:window-x="0"
     inkscape:window-y="0"
     inkscape:window-maximized="0"
     inkscape:current-layer="g1" />
  <g
     inkscape:groupmode="layer"
     inkscape:label="Image"
     id="g1">
    <path
       style="fill-opacity:1;fill:#104a5d"
       d="m 231.85862,636.05393 c -1.23067,-4.10758 -1.21577,-6.9931 0.0671,-13 0.90688,-4.24632 1.9775,-21.09572 2.37916,-37.44312 l 0.73028,-29.72255 -19.3335,-19.61079 C 190.0572,510.26519 180.24825,494.85886 171.38164,466.66668 162.611,438.77963 159.44263,414.26123 159.38177,373.80572 l -0.0484,-32.19429 -6.90547,-2.17738 C 140.63906,335.7169 129.54325,327.06281 104.55185,302.0935 78.754865,276.31932 71.049418,266.21864 60.74301,244.66667 48.274171,218.5928 42.863038,197.31644 41.748742,169.98196 40.031776,127.86356 47.463616,109.69946 74.715317,89.40864 86.45437,80.668083 101.91663,72.419271 116,67.38407 c 20.74167,-7.415732 57.1272,-14.446567 93.84459,-18.133743 22.5244,-2.26191 68.39311,-0.926106 92.1554,2.68378 34.97423,5.313167 79.28806,17.990849 101.06324,28.913041 18.48757,9.273169 39.38709,24.260472 55.222,39.600382 18.96438,18.37155 27.26925,29.32021 32.02441,42.21914 13.25402,35.95303 -8.98349,105.28253 -45.47377,141.77282 -4.05528,4.05527 -11.45233,10.47502 -16.43789,14.2661 -14.92462,11.34886 -46.23287,25.18286 -64.93083,28.69062 l -5.13572,0.96347 0.87509,9.65701 c 1.65587,18.27315 0.92695,69.94969 -1.23032,87.22257 -6.27725,50.26093 -22.01156,88.90906 -44.43974,109.15721 -6.74822,6.09229 -18.54991,11.92518 -29.05985,14.3626 -10.76967,2.49765 -23.81202,0.94914 -34.97108,-4.15209 -3.93861,-1.8005 -7.47671,-3.27363 -7.86244,-3.27363 -0.38573,0 -0.38737,17.00709 -0.004,37.79353 0.40874,22.14205 0.18629,38.70729 -0.53714,40 -0.67914,1.21356 -2.68091,2.20647 -4.44836,2.20647 -2.58848,0 -3.52124,-1.02692 -4.79531,-5.27942 z"
       id="path2" />
    <path
       style="fill-opacity:1;fill:#15cffd"
       d="m 265.66767,525.62413 c 8.55907,-3.79475 19.87676,-14.78983 26.97941,-26.21036 23.83111,-38.31863 32.41152,-103.897 24.34558,-186.06825 -0.30492,-3.10637 0.18417,-3.38531 7.56267,-4.31311 26.1037,-3.28241 56.49777,-16.41785 75.77178,-32.74638 18.56095,-15.72445 35.06236,-41.28809 43.5672,-67.49339 11.23433,-34.61548 12.18152,-55.81181 3.26713,-73.112 -1.03519,-2.00898 -1.72,-3.93007 -1.52181,-4.26908 0.78029,-1.33471 -10.82986,-11.9987 -20.30631,-18.65148 C 402.53626,96.7558 385.19216,88.846977 352.40591,79.505556 316.7921,69.358511 284.59314,64.854565 247.99999,64.901403 212.88972,64.946342 184.22765,68.088876 150.66666,75.573112 121.90781,81.98645 102.69641,90.22876 83.70797,104.30055 71.303764,113.49295 65.166782,121.5442 61.069875,134 c -2.675243,8.13353 -3.067612,11.99004 -3.052254,30.00001 0.01956,22.93299 1.952105,34.90401 8.932771,55.33333 9.171395,26.84061 22.798209,48.49093 41.121118,65.33334 3.19118,2.93333 4.93058,4.16687 3.86532,2.7412 -1.06526,-1.42567 1.21191,-0.11924 5.06039,2.90316 12.88422,10.11867 30.69572,14.53293 52.20417,12.93788 l 12.53473,-0.92956 -0.9471,4.50699 c -4.69057,22.32105 -6.69656,59.7695 -4.81885,89.96006 3.01343,48.45124 11.74103,79.87799 29.4272,105.96295 5.32181,7.84903 17.26075,20.37031 18.36757,19.26349 0.361,-0.361 1.42719,-0.0166 2.36932,0.76526 0.94212,0.7819 4.59733,2.58546 8.12268,4.00792 8.31215,3.35392 22.40073,2.83277 31.41073,-1.1619 z"
       id="path1" />
  </g>
</svg>
