<?xml version="1.0" encoding="UTF-8" standalone="no"?>
<!-- Created with Inkscape (http://www.inkscape.org/) -->

<svg
   version="1.1"
   id="svg1"
   width="533.33331"
   height="666.66669"
   viewBox="0 0 533.33331 666.66669"
   sodipodi:docname="U.svg"
   inkscape:version="1.4.3 (0d15f75042, 2025-12-25)"
   inkscape:export-filename="Q.png"
   inkscape:export-xdpi="96"
   inkscape:export-ydpi="96"
   xml:space="preserve"
   xmlns:inkscape="http://www.inkscape.org/namespaces/inkscape"
   xmlns:sodipodi="http://sodipodi.sourceforge.net/DTD/sodipodi-0.dtd"
   xmlns="http://www.w3.org/2000/svg"
   xmlns:svg="http://www.w3.org/2000/svg"><defs
     id="defs1" /><sodipodi:namedview
     id="namedview1"
     pagecolor="#505050"
     bordercolor="#ffffff"
     borderopacity="1"
     inkscape:showpageshadow="0"
     inkscape:pageopacity="0"
     inkscape:pagecheckerboard="1"
     inkscape:deskcolor="#505050"
     inkscape:zoom="0.57599998"
     inkscape:cx="265.62501"
     inkscape:cy="332.46529"
     inkscape:window-width="1706"
     inkscape:window-height="1030"
     inkscape:window-x="0"
     inkscape:window-y="0"
     inkscape:window-maximized="0"
     inkscape:current-layer="g1" /><g
     inkscape:groupmode="layer"
     inkscape:label="Image"
     id="g1"><g
       id="g44"><path
         style="fill-opacity:1;fill:#014a5d"
         d="m 233.88472,639.80942 c -1.50916,-3.9328 -1.41154,-7.25511 1.17685,-40.05341 2.94883,-37.36556 2.71255,-38.28205 -11.98908,-46.50367 C 202.81754,541.92512 184.71315,527.05659 158.45167,500.18141 131.78457,472.89114 121.8299,460.16208 106.92831,434.29838 75.899118,380.44305 60.325134,319.59289 60.265902,251.98055 60.208882,186.89242 74.92888,132.78689 102.77018,95.749764 124.28523,67.128431 151.64291,59.291795 181.3328,73.245421 c 17.86534,8.396337 53.91313,42.273989 75.55418,71.005689 l 6.3048,8.37057 2.19481,-15.18007 c 3.86882,-26.7581 13.19981,-47.92452 27.93139,-63.359599 9.98995,-10.467013 19.20054,-14.981403 30.77841,-15.085439 20.39312,-0.183248 35.11563,8.707022 65.77234,39.716979 50.36019,50.940469 74.35522,103.442599 83.67019,183.073889 7.82255,66.87292 -2.30424,131.60037 -28.88943,184.6528 -12.18547,24.31688 -21.69259,38.24622 -37.68873,55.21957 -23.66883,25.11476 -48.811,40.42194 -77.7005,47.30599 -20.752,4.94497 -54.58326,4.16988 -72.52192,-1.66152 -6.3925,-2.07804 -12.0625,-3.33499 -12.6,-2.79322 -0.53749,0.54177 -0.97726,18.12654 -0.97726,39.07726 v 38.09223 l -4.05804,0.57625 c -2.52562,0.35864 -4.4962,-0.56556 -5.21832,-2.44738 z"
         id="path47" /><path
         style="fill-opacity:1;fill:#15cffd"
         d="m 295.88697,528.22998 c 27.28957,-5.41021 58.77819,-24.9951 79.77361,-49.61656 26.05774,-30.55807 46.7536,-79.00148 54.91147,-128.53287 4.325,-26.25972 4.27835,-72.9273 -0.10256,-102.6 C 422.39913,192.81857 406.19892,150.6163 379.63582,115.05659 356.62184,84.248028 332.27935,69.893759 316.705,77.947566 c -18.06925,9.343972 -30.54731,34.291964 -34.80422,69.585764 -2.62656,21.77662 -2.30759,40.43943 1.76387,103.20193 3.67889,56.71118 4.84698,110.64883 2.64987,122.36047 -0.67651,3.6061 -2.45313,7.57165 -3.94804,8.81231 -2.24602,1.86403 -3.30734,1.52796 -6.1117,-1.93528 -1.86653,-2.30507 -3.43232,-6.7338 -3.47952,-9.84162 -0.58031,-38.20513 -3.92075,-99.5932 -6.22167,-114.33702 -5.45614,-34.9619 -16.32007,-70.92448 -29.05213,-96.17051 -8.58849,-17.02988 -25.54738,-39.93364 -39.93721,-53.93704 C 172.81976,81.606561 152.60284,77.208612 131.8329,91.387495 110.60515,105.87891 90.380879,147.99958 81.823892,195.5402 c -4.700778,26.11643 -5.646231,80.45483 -1.843293,105.94035 3.251223,21.78818 11.516719,56.36354 17.427284,72.9 7.012057,19.6182 23.318517,52.02993 34.896667,69.36282 42.78507,64.05067 104.88446,96.1236 163.58242,84.48661 z"
         id="path46" /></g></g></svg>
