<?xml version="1.0" encoding="UTF-8" standalone="no"?>
<!-- Created with Inkscape (http://www.inkscape.org/) -->

<svg
   version="1.1"
   id="svg1"
   width="533.33331"
   height="666.66669"
   viewBox="0 0 533.33331 666.66669"
   sodipodi:docname="V.svg"
   inkscape:version="1.4.3 (0d15f75042, 2025-12-25)"
   inkscape:export-filename="U.png"
   inkscape:export-xdpi="96"
   inkscape:export-ydpi="96"
   xml:space="preserve"
   xmlns:inkscape="http://www.inkscape.org/namespaces/inkscape"
   xmlns:sodipodi="http://sodipodi.sourceforge.net/DTD/sodipodi-0.dtd"
   xmlns="http://www.w3.org/2000/svg"
   xmlns:svg="http://www.w3.org/2000/svg"><defs
     id="defs1" /><sodipodi:namedview
     id="namedview1"
     pagecolor="#505050"
     bordercolor="#ffffff"
     borderopacity="1"
     inkscape:showpageshadow="0"
     inkscape:pageopacity="0"
     inkscape:pagecheckerboard="1"
     inkscape:deskcolor="#505050"
     inkscape:zoom="0.57599998"
     inkscape:cx="265.62501"
     inkscape:cy="332.46529"
     inkscape:window-width="1706"
     inkscape:window-height="1030"
     inkscape:window-x="0"
     inkscape:window-y="0"
     inkscape:window-maximized="0"
     inkscape:current-layer="g1" /><g
     inkscape:groupmode="layer"
     inkscape:label="Image"
     id="g1"><g
       id="g47"><path
         style="fill-opacity:1;fill:#014a5d"
         d="m 231.88472,640.60108 c -1.45542,-3.79276 -1.40074,-5.6404 1.30298,-44.02887 1.22021,-17.325 1.63133,-36.16777 0.9136,-41.87282 -1.29084,-10.26054 -1.42531,-10.45378 -12.42259,-17.85213 -14.51207,-9.76289 -66.40863,-61.59059 -78.97985,-78.87505 -35.54053,-48.8655 -60.521388,-109.94493 -70.6734,-172.8 -16.664057,-103.17366 6.076597,-181.08009 55.13942,-188.900264 13.55392,-2.160371 28.88477,0.744979 44.50594,8.434324 10.66347,5.24897 17.49164,10.68849 34.34313,27.35875 21.1495,20.92205 36.15992,38.71429 46.02443,54.55398 2.92749,4.70072 5.76081,8.54822 6.29628,8.55 0.53547,0.002 2.42218,-5.46429 4.1927,-12.14679 4.72424,-17.83078 16.4274,-46.87938 23.23973,-57.68373 21.49993,-34.098831 50.61894,-45.348032 80.00823,-30.908625 15.8315,7.778255 49.80658,41.239565 62.08117,61.142355 25.93957,42.0601 38.85135,101.01122 36.86192,168.3 -2.21815,75.02482 -21.52272,127.15602 -66.87598,180.59578 -7.28364,8.58232 -16.96412,19.21537 -21.51217,23.629 -4.54804,4.41362 -8.26918,8.88657 -8.26918,9.93988 0,1.05331 2.30568,4.73216 5.12372,8.17522 7.6677,9.36834 9.27628,13.28366 9.27628,22.57863 0,7.55571 -0.8138,9.26326 -7.65,16.05133 -8.38127,8.32228 -21.16343,13.93224 -41.85,18.36753 -15.66172,3.35794 -43.73794,2.37615 -53.77001,-1.88028 -3.83351,-1.62649 -13.67081,-9.49773 -21.86066,-17.49164 -9.90513,-9.66816 -15.33591,-13.81394 -16.22056,-12.38255 -0.73145,1.18352 -1.01916,17.64653 -0.63934,36.58448 l 0.69057,34.43262 -4.05804,0.57625 c -2.52562,0.35864 -4.4962,-0.56556 -5.21832,-2.44738 z"
         id="path50" /><path
         style="fill-opacity:1;fill:#15cffd"
         d="m 305.5549,561.23715 c 23.08476,-5.25051 35.50618,-12.09508 35.50618,-19.56494 0,-4.87232 -3.84088,-8.38777 -14.67669,-13.43316 -4.60718,-2.1452 -9.77644,-5.44707 -11.48724,-7.33748 -2.88906,-3.19238 -2.90175,-3.75578 -0.17817,-7.91248 1.6128,-2.46145 9.45774,-9.93756 17.4332,-16.61358 15.29861,-12.80601 34.1246,-34.10374 47.79126,-54.06595 30.3266,-44.29653 45.59979,-102.88062 43.31292,-166.13735 -3.269,-90.42326 -35.28956,-162.60108 -75.48037,-170.14092 -31.18955,-5.85119 -58.33849,32.44495 -73.14399,103.17652 -3.91476,18.70233 -3.24362,29.43441 4.43451,70.91111 5.90439,31.89515 6.41233,54.04526 1.45826,63.59153 -4.32678,8.33751 -6.56912,9.35633 -10.95015,4.9753 -2.29041,-2.29041 -4.0369,-8.56895 -5.66419,-20.3625 -6.91932,-50.14671 -20.97007,-100.95008 -36.43094,-131.7235 -18.10977,-36.04582 -43.95578,-67.43274 -63.41845,-77.01418 -36.76324,-18.09848 -62.2637,-0.7141 -75.337148,51.35944 -3.487234,13.89019 -4.050633,20.87111 -4.061682,50.3272 -0.01464,39.03344 2.820061,61.3619 12.668581,99.7882 15.501379,60.48223 45.615449,117.0155 81.576729,153.14429 19.83901,19.93141 33.8235,29.92663 55.73967,39.83912 34.0392,15.39564 34.25012,15.62906 24.67755,27.31112 -9.1765,11.19871 -8.41412,15.54456 3.43634,19.58849 11.47441,3.91559 26.41869,4.01817 42.79382,0.29372 z"
         id="path49" /></g></g></svg>
