<?xml version="1.0" encoding="UTF-8" standalone="no"?>
<!-- Created with Inkscape (http://www.inkscape.org/) -->

<svg
   version="1.1"
   id="svg1"
   width="585.97614"
   height="666.66699"
   viewBox="0 0 585.97613 666.667"
   sodipodi:docname="W.svg"
   inkscape:version="1.4.3 (0d15f75042, 2025-12-25)"
   inkscape:export-filename="V.png"
   inkscape:export-xdpi="96"
   inkscape:export-ydpi="96"
   xml:space="preserve"
   xmlns:inkscape="http://www.inkscape.org/namespaces/inkscape"
   xmlns:sodipodi="http://sodipodi.sourceforge.net/DTD/sodipodi-0.dtd"
   xmlns="http://www.w3.org/2000/svg"
   xmlns:svg="http://www.w3.org/2000/svg"><defs
     id="defs1" /><sodipodi:namedview
     id="namedview1"
     pagecolor="#505050"
     bordercolor="#ffffff"
     borderopacity="1"
     inkscape:showpageshadow="0"
     inkscape:pageopacity="0"
     inkscape:pagecheckerboard="1"
     inkscape:deskcolor="#505050"
     inkscape:zoom="0.57599998"
     inkscape:cx="286.45834"
     inkscape:cy="264.75695"
     inkscape:window-width="1706"
     inkscape:window-height="1030"
     inkscape:window-x="0"
     inkscape:window-y="0"
     inkscape:window-maximized="0"
     inkscape:current-layer="g1" /><g
     inkscape:groupmode="layer"
     inkscape:label="Image"
     id="g1"
     transform="translate(21.693572,-68.4615)"><g
       id="g50"
       transform="translate(0,76)"><path
         style="fill:#014a5d;fill-opacity:1"
         d="m 237.6208,639.28164 c -1.43249,-3.733 -1.40222,-4.74324 1.38563,-46.24184 1.24564,-18.54213 1.70921,-34.26855 1.03016,-34.94761 -0.67906,-0.67906 -6.70322,4.04463 -13.38704,10.49708 -19.01136,18.35327 -37.93914,25.76904 -58.61186,22.96369 -19.24768,-2.61197 -31.5613,-10.14414 -56.42442,-34.5145 C 99.220535,544.89133 85.13384,529.63144 80.309508,523.12759 62.657951,499.33091 45.750326,459.25414 37.302209,421.18581 28.064198,379.55811 23.371665,324.82156 25.993153,289.27013 L 27.650977,266.78748 12.174072,250.07226 C -7.6700381,228.64041 -15.783744,215.3168 -19.714425,197.7078 c -4.261139,-19.08943 -1.721197,-36.43958 8.393739,-57.337 13.2417356,-27.35739 45.50096,-55.383858 75.062734,-65.213703 33.221642,-11.046819 81.453412,-8.132582 109.039262,6.588319 12.03981,6.424922 51.15032,44.479094 60.56483,58.929034 14.15376,21.72403 26.14821,55.2687 32.04808,89.62832 1.65743,9.6525 3.52467,17.55 4.14943,17.55 0.62476,0 1.68472,-6.58054 2.35547,-14.62343 5.28793,-63.40687 31.31554,-124.49569 62.21354,-146.019986 33.52633,-23.35526 87.86249,-20.059119 130.47384,7.914806 16.80246,11.03065 57.72236,51.01044 70.01892,68.41027 15.89864,22.49685 26.32541,49.74992 29.19875,76.31848 3.52799,32.62186 -12.77078,68.69246 -38.49936,85.20245 l -8.74841,5.61384 -1.13674,31.04178 c -1.73205,47.29829 -8.42131,84.70493 -22.25397,124.44512 -17.48391,50.23 -42.94012,85.01279 -72.45259,98.99757 -10.64902,5.04615 -13.50854,5.5991 -28.95505,5.5991 -15.88861,0 -18.05542,-0.45114 -29.69778,-6.18323 -10.14637,-4.99555 -17.0691,-10.70038 -36.04052,-29.7 -25.23856,-25.27609 -31.84363,-33.75441 -43.21127,-55.46632 l -7.30351,-13.94956 -6.02567,14.84956 c -3.31412,8.16725 -9.70539,21.32955 -14.20282,29.24955 l -8.17716,14.4 -0.21338,48.6 c -0.21324,48.56898 -0.21589,48.60037 -4.15912,49.17625 -2.42233,0.35376 -4.39372,-0.59115 -5.10602,-2.44738 z"
         id="path53" /><path
         style="fill:#15cffd;fill-opacity:1"
         d="m 171.76932,545.06276 c 17.73519,-9.06966 35.37556,-31.19861 50.97249,-63.94238 10.27916,-21.57979 16.6567,-42.74911 21.74147,-72.16761 2.05337,-11.88 4.87268,-23.4225 6.26514,-25.65 2.93584,-4.69643 11.58016,-5.5294 14.97183,-1.44268 1.19013,1.43402 6.0769,19.86152 10.85948,40.95 9.41297,41.50582 17.10604,63.09636 29.71252,83.38789 9.59826,15.44945 28.41159,33.8889 39.64661,38.85868 36.05439,15.94857 72.24398,-9.88202 98.63842,-70.40389 17.55363,-40.25009 27.11214,-87.87185 29.60637,-147.50292 l 1.31352,-31.40293 13.34186,-9.03791 c 23.93258,-16.21217 33.59698,-36.84226 32.11596,-68.55624 -1.60418,-34.35147 -14.53228,-61.38974 -42.60235,-89.1 -18.92535,-18.68276 -30.6695,-26.50592 -50.85318,-33.87498 -11.68147,-4.264901 -15.79414,-4.820432 -35.70229,-4.822585 -25.37388,-0.0027 -34.93287,2.482996 -49.10854,12.770285 -27.36358,19.85776 -52.08311,85.46159 -53.71157,142.54654 -0.28988,10.16156 0.259,12.09461 5.36655,18.9 15.61986,20.8122 31.97539,59.22195 27.95318,65.64599 -2.36602,3.77887 -10.75371,5.0946 -14.20705,2.22859 -1.36935,-1.13646 -4.16217,-7.09199 -6.20627,-13.23451 -6.93679,-20.84507 -25.67021,-48.87296 -36.36108,-54.40142 -8.0693,-4.1728 -15.20568,-1.73659 -25.31463,8.64188 -10.13028,10.40037 -15.15771,19.725 -22.10556,41.00021 -7.29081,22.32546 -9.02725,25.2 -15.22268,25.2 -6.6208,0 -10.83452,-4.11081 -9.65411,-9.41834 4.91137,-22.08329 17.4432,-50.71117 28.593,-65.31819 6.1687,-8.08145 6.67067,-9.63118 6.37056,-19.66808 -0.71932,-24.05739 -9.54028,-67.22643 -18.26888,-89.40636 -11.12894,-28.27933 -25.43407,-47.80667 -41.87184,-57.157482 -17.08328,-9.71802 -27.91865,-11.899862 -58.85108,-11.850423 -25.892359,0.04138 -28.767369,0.387851 -39.953709,4.814825 -27.903104,11.0426 -53.785996,34.06462 -65.6000558,58.3492 -6.4931,13.34699 -6.8878287,15.1308 -6.9161751,31.25485 -0.02606,14.82348 0.6121695,18.47024 4.7940388,27.39252 6.0364102,12.87905 18.7413271,26.60716 32.1781241,34.76958 5.679281,3.44998 10.817551,7.55374 11.418376,9.11947 0.600826,1.56573 0.121377,16.20664 -1.065442,32.53537 -3.455253,47.53874 1.750902,102.99304 13.911705,148.18306 16.508106,61.34477 48.482928,106.94872 80.933138,115.43055 8.16874,2.13514 25.3087,0.24733 32.87215,-3.62056 z"
         id="path52" /></g></g></svg>
