<?xml version="1.0" encoding="UTF-8" standalone="no"?>
<!-- Created with Inkscape (http://www.inkscape.org/) -->

<svg
   version="1.1"
   id="svg1"
   width="533.33331"
   height="666.66669"
   viewBox="0 0 533.33331 666.66669"
   sodipodi:docname="X.svg"
   inkscape:version="1.4.3 (0d15f75042, 2025-12-25)"
   inkscape:export-filename="V.png"
   inkscape:export-xdpi="96"
   inkscape:export-ydpi="96"
   xml:space="preserve"
   xmlns:inkscape="http://www.inkscape.org/namespaces/inkscape"
   xmlns:sodipodi="http://sodipodi.sourceforge.net/DTD/sodipodi-0.dtd"
   xmlns="http://www.w3.org/2000/svg"
   xmlns:svg="http://www.w3.org/2000/svg"><defs
     id="defs1" /><sodipodi:namedview
     id="namedview1"
     pagecolor="#505050"
     bordercolor="#ffffff"
     borderopacity="1"
     inkscape:showpageshadow="0"
     inkscape:pageopacity="0"
     inkscape:pagecheckerboard="1"
     inkscape:deskcolor="#505050"
     inkscape:zoom="0.57599998"
     inkscape:cx="286.45834"
     inkscape:cy="264.75695"
     inkscape:window-width="1706"
     inkscape:window-height="1030"
     inkscape:window-x="0"
     inkscape:window-y="0"
     inkscape:window-maximized="0"
     inkscape:current-layer="g1" /><g
     inkscape:groupmode="layer"
     inkscape:label="Image"
     id="g1"><g
       id="g53"><path
         style="fill-opacity:1;fill:#014a5d"
         d="m 239.6208,639.30942 c -1.53588,-4.00243 -1.4141,-8.51196 0.92164,-34.12887 2.55707,-28.04443 2.69657,-83.7 0.20979,-83.7 -1.01471,0 -7.47772,2.83663 -14.36224,6.30361 -33.67851,16.96023 -61.5339,24.90885 -87.29282,24.90927 -26.73294,4.4e-4 -34.54517,-3.55135 -57.996639,-26.36789 C 52.897701,498.88629 47.284654,484.00297 51.637541,448.20273 55.965926,412.604 74.459385,371.53757 109.334,320.08242 c 14.62945,-21.58477 15.01521,-22.42164 12.84995,-27.87733 -7.22608,-18.2072 -20.48952,-60.56845 -23.507233,-75.07822 -9.98421,-48.00618 -8.966336,-86.3371 3.011743,-113.41552 11.7964,-26.667724 38.95249,-36.737177 71.8691,-26.648998 29.08688,8.914454 59.25103,28.424468 90.94662,58.823778 l 18.59299,17.83257 8.1,-5.31336 c 12.48115,-8.18728 53.28116,-27.50443 68.9495,-32.6448 31.02444,-10.1783 60.66488,-11.08994 79.24072,-2.43718 14.69387,6.84451 44.4063,36.5964 51.0991,51.16697 5.86487,12.76813 7.58043,35.8241 4.11782,55.34086 -6.04268,34.05907 -29.94936,82.66148 -64.00915,130.13091 -5.3889,7.51054 -9.79799,14.62415 -9.79799,15.80801 0,1.18387 1.63071,3.62826 3.6238,5.43198 4.25546,3.85114 19.41392,49.34847 24.92072,74.79824 15.70406,72.57667 2.39505,125.98215 -34.58017,138.7609 -12.57807,4.34703 -19.60634,4.11301 -38.31299,-1.27567 -33.57238,-9.67093 -59.27754,-25.86568 -93.79033,-59.08972 l -18.47458,-17.78471 -6.98679,4.62363 -6.98679,4.62364 -1.21208,45.56108 c -0.66664,25.05859 -0.96204,53.25607 -0.65644,62.66107 0.5383,16.56605 0.42894,17.11799 -3.5024,17.67625 -2.52562,0.35864 -4.4962,-0.56556 -5.21832,-2.44738 z"
         id="path55" /><path
         style="fill-opacity:1;fill:#15cffd"
         d="m 382.47031,543.97026 c 12.63566,-3.75239 20.71014,-13.05889 26.04725,-30.02159 3.55702,-11.30512 4.14208,-16.98802 4.13537,-40.16812 -0.009,-31.56756 -3.59662,-51.49233 -16.47282,-91.48984 -7.65113,-23.76679 -8.28881,-25.00522 -14.13288,-27.44703 -6.95244,-2.90492 -10.38415,-7.96415 -8.67061,-12.78273 0.6416,-1.80422 6.60059,-10.9754 13.24222,-20.3804 39.04092,-55.28467 58.34586,-92.94268 65.79185,-128.33966 6.84344,-32.5326 -0.83881,-56.71529 -20.81352,-65.51814 -9.56143,-4.21372 -35.48254,-3.77338 -53.1,0.90204 -34.41962,9.13447 -78.65631,31.67719 -82.21948,41.89849 -4.41821,12.67409 -13.24408,10.21393 -29.40834,-8.19741 -13.40625,-15.26993 -41.50962,-39.64745 -57.88931,-50.21455 -14.70746,-9.48828 -35.59663,-18.34658 -49.56869,-21.020185 -22.0862,-4.226278 -37.64557,5.894795 -44.98977,29.265005 -3.63211,11.55783 -4.10961,16.66951 -4.00042,42.82441 0.10692,25.61138 0.79179,32.57148 4.97495,50.55859 5.45152,23.44089 14.90429,52.48113 26.50452,81.42563 9.1308,22.78286 8.72916,25.20718 -4.31802,26.06359 l -8.3458,0.54782 -11.46896,17.45218 c -34.210492,52.05775 -49.751804,91.53623 -49.740487,126.35219 0.0067,20.67763 4.894297,31.65327 17.357876,38.97923 8.288187,4.8717 9.762538,5.11787 30.311931,5.06119 18.74132,-0.0517 23.6249,-0.72851 36.9,-5.11404 32.5106,-10.74013 72,-31.22628 72,-37.35187 0,-5.90644 3.44929,-10.57451 7.81363,-10.57451 5.29514,0 10.5288,4.21417 34.29547,27.61489 35.58332,35.03545 61.12831,51.28886 93.7909,59.676 12.03188,3.08955 11.56541,3.08958 21.97314,-10e-4 z"
         id="path54" /></g></g></svg>
