<?xml version="1.0" encoding="UTF-8" standalone="no"?>
<!-- Created with Inkscape (http://www.inkscape.org/) -->

<svg
   version="1.1"
   id="svg1"
   width="533.33331"
   height="666.66669"
   viewBox="0 0 533.33331 666.66669"
   sodipodi:docname="Y.svg"
   inkscape:version="1.4.3 (0d15f75042, 2025-12-25)"
   inkscape:export-filename="X.png"
   inkscape:export-xdpi="96"
   inkscape:export-ydpi="96"
   xml:space="preserve"
   xmlns:inkscape="http://www.inkscape.org/namespaces/inkscape"
   xmlns:sodipodi="http://sodipodi.sourceforge.net/DTD/sodipodi-0.dtd"
   xmlns="http://www.w3.org/2000/svg"
   xmlns:svg="http://www.w3.org/2000/svg"><defs
     id="defs1" /><sodipodi:namedview
     id="namedview1"
     pagecolor="#505050"
     bordercolor="#ffffff"
     borderopacity="1"
     inkscape:showpageshadow="0"
     inkscape:pageopacity="0"
     inkscape:pagecheckerboard="1"
     inkscape:deskcolor="#505050"
     inkscape:zoom="0.57599998"
     inkscape:cx="286.45834"
     inkscape:cy="264.75695"
     inkscape:window-width="1706"
     inkscape:window-height="1030"
     inkscape:window-x="0"
     inkscape:window-y="0"
     inkscape:window-maximized="0"
     inkscape:current-layer="g1" /><g
     inkscape:groupmode="layer"
     inkscape:label="Image"
     id="g1"><g
       id="g55"><path
         style="fill-opacity:1;fill:#014a5d"
         d="m 238.52363,638.51775 c -0.63815,-1.66299 -1.05779,-5.1623 -0.93254,-7.77624 0.12525,-2.61394 0.73963,-17.11971 1.3653,-32.23503 l 1.13757,-27.4824 -18.0881,-18.77969 c -15.9641,-16.5745 -19.26871,-21.16788 -28.14233,-39.1176 -17.34463,-35.08502 -23.31949,-70.18105 -19.39713,-113.9379 l 1.61352,-18 -19.03996,-19.89615 C 136.74109,340.08107 122.1408,319.91055 110.20455,296.58889 88.074262,253.34961 74.009434,199.33898 76.620413,167.62178 78.166719,148.83783 83.743375,128.04867 90.318641,116.55631 101.4704,97.065059 124.97467,80.254606 150.73138,73.348595 c 14.32806,-3.841706 40.07368,-3.84244 54.76862,-0.0016 28.80479,7.528826 55.25318,23.098702 81.98713,48.264915 l 16.14691,15.20003 12.55967,-11.66734 c 23.88874,-22.19152 54.62008,-36.34817 73.48593,-33.851916 16.41954,2.172569 24.10817,7.003244 45.40746,28.528976 17.59538,17.78246 20.62134,21.77525 25.58996,33.76626 15.02478,36.26002 9.21729,77.87997 -18.60914,133.36429 -17.12195,34.14019 -35.89613,59.28185 -64.99336,87.03664 l -16.98357,16.2 6.24874,24.3 c 14.289,55.56692 12.81076,104.98413 -4.17702,139.63635 -13.57132,27.68321 -35.72006,43.95939 -59.82411,43.96223 -17.30369,0.002 -28.39917,-2.87846 -41.36523,-10.73879 -9.61981,-5.83176 -11.61517,-6.47117 -12.94163,-4.14712 -0.86254,1.51123 -1.26754,14.99661 -0.9,29.96751 0.6654,27.1032 0.65087,27.22228 -3.38979,27.79606 -2.52562,0.35864 -4.4962,-0.56555 -5.21832,-2.44738 z"
         id="path58" /><path
         style="fill-opacity:1;fill:#15cffd"
         d="m 292.8,552.44404 c 17.55812,-8.21266 32.26632,-30.08447 37.80158,-56.21276 5.91529,-27.92218 2.55621,-76.29199 -7.67671,-110.54239 -7.91006,-26.47563 -8.86331,-23.37739 14.12225,-45.9 30.7005,-30.08218 49.17626,-54.59706 65.11578,-86.4 21.49828,-42.89392 29.39122,-81.59811 21.86604,-107.2233 -12.12838,-41.30025 -38.44015,-48.393073 -78.96704,-21.28703 -15.30214,10.23469 -31.55397,27.11753 -31.57926,32.80538 -0.01,2.14772 0.95508,11.76055 2.14362,21.36184 1.95398,15.78468 1.78387,19.7097 -1.7759,40.97475 -4.02551,24.04735 -10.90691,45.14418 -28.73272,88.08809 -7.24094,17.44405 -9.32437,20.85989 -13.89981,22.78913 -2.96019,1.24818 -5.99769,1.88899 -6.75,1.42404 -3.43673,-2.12402 -0.44829,-13.58867 11.05453,-42.40884 C 294.65403,241.97881 300.9,217.49127 300.9,190.41901 c 0,-11.30712 -4.90593,-28.1993 -11.41607,-39.30801 -6.55828,-11.19087 -31.25981,-33.80518 -48.58162,-44.47661 C 219.11895,93.214348 201.90834,88.095338 178.5,88.073866 c -20.24334,-0.01857 -31.96421,3.128151 -47.7,12.806084 -40.783318,25.08285 -47.931154,81.49277 -19.70008,155.47078 19.30942,50.59929 45.5297,87.00062 80.55777,111.83747 3.11737,2.21039 3.13559,3.64833 0.42292,33.3837 -2.51587,27.57809 -2.53903,33.03933 -0.20584,48.5454 6.31029,41.93747 25.00057,79.05409 47.74518,94.81611 17.14059,11.87844 37.6495,14.77492 53.18005,7.51063 z"
         id="path57" /></g></g></svg>
