<?xml version="1.0" encoding="UTF-8" standalone="no"?>
<!-- Created with Inkscape (http://www.inkscape.org/) -->

<svg
   version="1.1"
   id="svg1"
   width="533.33331"
   height="666.66669"
   viewBox="0 0 533.33331 666.66669"
   sodipodi:docname="Z.svg"
   inkscape:version="1.4.3 (0d15f75042, 2025-12-25)"
   inkscape:export-filename="Y.png"
   inkscape:export-xdpi="96"
   inkscape:export-ydpi="96"
   xml:space="preserve"
   xmlns:inkscape="http://www.inkscape.org/namespaces/inkscape"
   xmlns:sodipodi="http://sodipodi.sourceforge.net/DTD/sodipodi-0.dtd"
   xmlns="http://www.w3.org/2000/svg"
   xmlns:svg="http://www.w3.org/2000/svg"><defs
     id="defs1" /><sodipodi:namedview
     id="namedview1"
     pagecolor="#505050"
     bordercolor="#ffffff"
     borderopacity="1"
     inkscape:showpageshadow="0"
     inkscape:pageopacity="0"
     inkscape:pagecheckerboard="1"
     inkscape:deskcolor="#505050"
     inkscape:zoom="0.57599998"
     inkscape:cx="286.45834"
     inkscape:cy="264.75695"
     inkscape:window-width="1706"
     inkscape:window-height="1030"
     inkscape:window-x="0"
     inkscape:window-y="0"
     inkscape:window-maximized="0"
     inkscape:current-layer="g1" /><g
     inkscape:groupmode="layer"
     inkscape:label="Image"
     id="g1"><g
       id="g58"><path
         style="fill-opacity:1;fill:#014a5d"
         d="m 237.69946,630.99121 c -2.78599,-3.542 -6.0367,-4.51302 -21.17665,-6.32571 -22.06725,-2.64209 -51.48968,-12.21352 -68.51456,-22.28852 -14.74372,-8.72506 -46.29671,-38.6215 -57.954425,-54.91179 -16.890847,-23.60299 -24.324653,-44.98386 -24.251237,-69.75062 0.05336,-18.00151 2.984522,-30.9561 11.358734,-50.20115 7.180426,-16.50157 22.5879,-42.80576 32.184158,-54.94594 l 7.52099,-9.51477 -19.754627,-20.07636 C 70.48391,315.91475 64.176601,302.81303 60.850076,267.65242 57.07646,227.76616 66.719768,179.13495 86.652333,137.53161 96.488759,117.00097 103.12413,108.0417 115.08994,99.134294 c 15.11467,-11.251422 27.57307,-15.040633 52.71831,-16.034223 17.50792,-0.691809 25.18057,-0.118718 40.5,3.025054 50.69012,10.402355 102.51419,35.108725 146.55802,69.869405 19.02144,15.01227 61.9396,58.59059 74.85408,76.00546 14.49534,19.54664 26.21218,44.00955 29.07494,60.70387 2.59158,15.11293 0.5207,29.98032 -5.99249,43.02174 -7.86171,15.74153 -37.10624,40.77341 -65.19112,55.80038 l -10.59656,5.66975 15.31046,7.17473 c 8.42076,3.9461 20.07421,10.43642 25.89657,14.42294 13.55756,9.28276 50.96739,47.43599 56.87636,58.00659 26.82048,47.97943 -11.93298,102.64291 -93.09026,131.30792 -30.85359,10.89759 -66.9699,17.23069 -110.04346,19.29646 -13.2311,0.63456 -24.05654,1.80966 -24.05654,2.61135 0,0.80169 -1.55645,2.2906 -3.45879,3.3087 -2.77848,1.487 -4.10613,1.02808 -6.75,-2.33321 z"
         id="path61" /><path
         style="fill-opacity:1;fill:#15cffd"
         d="m 278.1292,582.88631 c 37.68232,-4.12562 68.33354,-12.3575 96.67905,-25.96474 43.32352,-20.79741 66.375,-46.50132 66.375,-74.01247 0,-28.99569 -25.32817,-52.89119 -73.93886,-69.75657 -35.64891,-12.36831 -62.76047,-15.40306 -107.42906,-12.02514 -15.69774,1.18709 -29.18537,1.48655 -29.97252,0.66547 -0.78716,-0.82108 -1.70195,-4.31539 -2.03288,-7.76513 l -0.60168,-6.27226 41.4,-9.27657 c 43.74155,-9.80124 56.89959,-13.72945 77.55733,-23.15401 28.7984,-13.13853 60.35006,-39.07313 67.36634,-55.37327 13.22323,-30.72007 -5.08145,-70.71579 -53.21058,-116.26509 -36.54432,-34.58547 -89.36858,-64.08826 -138.30954,-77.24704 -15.96399,-4.29224 -21.52533,-4.89686 -45.20355,-4.9144 -24.32095,-0.018 -28.06106,0.40719 -37.6936,4.28534 -20.70696,8.3368 -32.78976,25.49206 -47.761035,67.81155 -9.554673,27.0083 -12.986372,46.97482 -13.281979,77.27801 -0.230756,23.65519 0.255253,28.67241 3.923158,40.5 13.034848,42.03241 35.768946,45.6471 94.128646,14.96632 8.53336,-4.48614 17.73544,-9.92698 20.44906,-12.09076 l 4.93388,-3.93413 -9.64907,-6.22071 c -7.39707,-4.76887 -9.78557,-7.41315 -10.23398,-11.3299 -0.65418,-5.7142 3.89421,-11.99082 8.68923,-11.99082 3.34028,0 30.41591,16.50385 41.57432,25.34148 12.40843,9.82766 8.35577,17.79183 -10.91307,21.44609 -16.13589,3.06011 -45.92785,20.79519 -64.63302,38.47587 -11.19039,10.5775 -32.11947,35.85929 -41.91857,50.63656 -12.70237,19.15546 -26.225474,47.19286 -29.530162,61.22476 -9.865586,41.88987 13.46933,89.054 54.116192,109.37874 12.64469,6.32275 37.31561,13.63981 52.2,15.48181 18.29653,2.26427 66.6491,2.32046 86.92095,0.10101 z"
         id="path60" /></g></g></svg>
